M48
; DRILL file {KiCad 8.0.6} date 2024-12-18T16:47:58-0800
; FORMAT={-:-/ absolute / inch / decimal}
; #@! TF.CreationDate,2024-12-18T16:47:58-08:00
; #@! TF.GenerationSoftware,Kicad,Pcbnew,8.0.6
; #@! TF.FileFunction,Plated,1,2,PTH
FMAT,2
INCH
; #@! TA.AperFunction,Plated,PTH,ViaDrill
T1C0.0157
; #@! TA.AperFunction,Plated,PTH,ComponentDrill
T2C0.0157
; #@! TA.AperFunction,Plated,PTH,ComponentDrill
T3C0.0390
; #@! TA.AperFunction,Plated,PTH,ComponentDrill
T4C0.0402
; #@! TA.AperFunction,Plated,PTH,ComponentDrill
T5C0.0866
%
G90
G05
T1
X2.6289Y-6.3396
X6.2715Y-7.0729
X10.5264Y-6.7924
X11.5391Y-7.133
X13.1713Y-6.2863
X14.0496Y-6.637
T2
X1.997Y-2.7792
X2.0103Y-2.8271
X2.0215Y-2.7359
X2.0536Y-2.8516
X2.0694Y-2.7227
X2.1015Y-2.8383
X2.1127Y-2.7471
X2.126Y-2.795
X3.5358Y-7.0548
X3.5457Y-7.1035
X3.5632Y-7.0133
X3.5871Y-7.1309
X3.6119Y-7.0034
X3.6359Y-7.121
X3.6534Y-7.0308
X3.6633Y-7.0796
X5.6895Y-3.1773
X5.6977Y-3.2264
X5.7183Y-3.1368
X5.7382Y-3.2552
X5.7674Y-3.1286
X5.7872Y-3.247
X5.8079Y-3.1575
X5.8161Y-3.2066
X6.5099Y-5.5803
X6.5164Y-5.6296
X6.5402Y-5.5409
X6.5558Y-5.6599
X6.5894Y-5.5344
X6.6051Y-5.6534
X6.6289Y-5.5646
X6.6354Y-5.6139
X7.7468Y-8.9303
X7.7658Y-8.8843
X7.7658Y-8.9762
X7.8118Y-8.8653
X7.8118Y-8.9952
X7.8577Y-8.8843
X7.8577Y-8.9762
X7.8767Y-8.9303
X9.7362Y-5.6139
X9.7427Y-5.5646
X9.7665Y-5.6534
X9.7821Y-5.5344
X9.8158Y-5.6599
X9.8314Y-5.5409
X9.8552Y-5.6296
X9.8617Y-5.5803
X10.5555Y-3.2066
X10.5637Y-3.1575
X10.5844Y-3.247
X10.6042Y-3.1286
X10.6334Y-3.2552
X10.6532Y-3.1368
X10.6739Y-3.2264
X10.6821Y-3.1773
X12.7083Y-7.0796
X12.7182Y-7.0308
X12.7357Y-7.121
X12.7597Y-7.0034
X12.7844Y-7.1309
X12.8084Y-7.0133
X12.8259Y-7.1035
X12.8358Y-7.0548
X14.2456Y-2.795
X14.2589Y-2.7471
X14.2701Y-2.8383
X14.3022Y-2.7226
X14.318Y-2.8516
X14.3501Y-2.7359
X14.3613Y-2.8271
X14.3746Y-2.7792
T3
X1.0977Y-5.723
X1.1937Y-4.9415
X1.2896Y-4.16
X1.3856Y-3.3785
X1.3955Y-5.7596
X1.4914Y-4.9781
X1.5007Y-2.4406
X1.5874Y-4.1965
X1.6833Y-3.415
X1.7985Y-2.4772
X2.0355Y-5.8382
X2.1315Y-5.0567
X2.2275Y-4.2751
X2.3234Y-3.4936
X2.3333Y-5.8748
X2.4293Y-5.0932
X2.4386Y-2.5558
X2.5252Y-4.3117
X2.6212Y-3.5302
X2.7363Y-2.5923
X2.8741Y-5.7374
X2.9972Y-4.9597
X3.1204Y-4.182
X3.1704Y-5.7844
X3.2436Y-3.4043
X3.2935Y-5.0067
X3.3914Y-2.4711
X3.4167Y-4.229
X3.5399Y-3.4512
X3.6877Y-2.518
X3.7002Y-5.7632
X3.8504Y-4.9903
X3.9947Y-5.8205
X4.0007Y-4.2173
X4.1449Y-5.0475
X4.1509Y-3.4444
X4.2952Y-4.2746
X4.3312Y-2.5169
X4.4454Y-3.5016
X4.4874Y-6.011
X4.6257Y-2.5741
X4.6645Y-5.2438
X4.7797Y-6.0785
X4.8416Y-4.4766
X4.9568Y-5.3113
X5.0187Y-3.7094
X5.1339Y-4.5441
X5.2313Y-2.7887
X5.2698Y-6.267
X5.3111Y-3.7769
X5.4736Y-5.5064
X5.5236Y-2.8562
X5.5361Y-7.7975
X5.5596Y-6.3446
X5.6774Y-4.7458
X5.7482Y-7.5854
X5.7634Y-5.5841
X5.8812Y-3.9853
X5.9672Y-4.8235
X6.0929Y-8.3543
X6.1258Y-3.0726
X6.171Y-4.0629
X6.305Y-8.1421
X6.3852Y-9.1755
X6.4155Y-3.1502
X6.5973Y-8.9634
X6.9141Y-7.533
X6.928Y-8.6327
X7.1262Y-7.3209
X7.1402Y-8.4205
X7.4709Y-8.0898
X7.683Y-7.8777
X8.6886Y-7.8777
X8.9007Y-8.0898
X9.2314Y-8.4205
X9.2453Y-7.3209
X9.4436Y-8.6327
X9.4575Y-7.533
X9.7743Y-8.9634
X9.956Y-3.1502
X9.9864Y-9.1755
X10.0666Y-8.1421
X10.2006Y-4.0629
X10.2458Y-3.0726
X10.2787Y-8.3543
X10.4044Y-4.8235
X10.4904Y-3.9853
X10.6082Y-5.5841
X10.6234Y-7.5854
X10.6942Y-4.7458
X10.812Y-6.3446
X10.8355Y-7.7975
X10.848Y-2.8562
X10.898Y-5.5064
X11.0605Y-3.7769
X11.1018Y-6.267
X11.1403Y-2.7887
X11.2377Y-4.5441
X11.3528Y-3.7094
X11.4148Y-5.3113
X11.53Y-4.4766
X11.5919Y-6.0785
X11.7071Y-5.2438
X11.7459Y-2.5741
X11.8842Y-6.011
X11.9262Y-3.5016
X12.0404Y-2.5169
X12.0764Y-4.2746
X12.2207Y-3.4444
X12.2267Y-5.0475
X12.3709Y-4.2173
X12.3769Y-5.8205
X12.5212Y-4.9903
X12.6714Y-5.7632
X12.6839Y-2.518
X12.8317Y-3.4512
X12.9549Y-4.2289
X12.9802Y-2.4711
X13.078Y-5.0067
X13.128Y-3.4043
X13.2012Y-5.7844
X13.2512Y-4.182
X13.3744Y-4.9597
X13.4975Y-5.7374
X13.6353Y-2.5923
X13.7504Y-3.5302
X13.8464Y-4.3117
X13.933Y-2.5558
X13.9423Y-5.0932
X14.0383Y-5.8748
X14.0482Y-3.4936
X14.1441Y-4.2751
X14.2401Y-5.0567
X14.3361Y-5.8382
X14.5731Y-2.4772
X14.6882Y-3.415
X14.7842Y-4.1965
X14.8709Y-2.4406
X14.8802Y-4.9781
X14.9761Y-5.7596
X14.986Y-3.3785
X15.082Y-4.16
X15.1779Y-4.9415
X15.2739Y-5.723
T4
X7.8358Y-6.8657
X7.8358Y-5.8657
X7.8358Y-6.6657
X7.8358Y-5.4657
X7.8358Y-5.5657
X7.8358Y-5.7657
X7.8358Y-6.1657
X7.8358Y-6.7657
X7.8358Y-5.1657
X7.8358Y-5.6657
X7.8358Y-6.4657
X7.8358Y-6.9657
X7.8358Y-6.5657
X7.8358Y-6.2657
X7.8358Y-7.0657
X7.8358Y-5.2657
X7.8358Y-5.9657
X7.8358Y-6.0657
X7.8358Y-6.3657
X7.8358Y-5.3657
X8.0858Y-7.0566
X8.1858Y-7.0566
X8.2858Y-7.0566
X8.5358Y-6.8657
X8.5358Y-5.8657
X8.5358Y-6.1657
X8.5358Y-6.2657
X8.5358Y-6.9657
X8.5358Y-5.1657
X8.5358Y-5.9657
X8.5358Y-5.6657
X8.5358Y-5.2657
X8.5358Y-5.7657
X8.5358Y-6.5657
X8.5358Y-7.0657
X8.5358Y-5.4657
X8.5358Y-6.0657
X8.5358Y-6.4657
X8.5358Y-6.6657
X8.5358Y-6.7657
X8.5358Y-5.5657
X8.5358Y-6.3657
X8.5358Y-5.3657
T5
X2.0615Y-2.7871
X3.5995Y-7.0672
X5.7528Y-3.1919
X6.5726Y-5.5971
X7.8118Y-8.9303
X9.7989Y-5.5971
X10.6188Y-3.1919
X12.7721Y-7.0672
X14.3101Y-2.7871
M30
