M48
; DRILL file {KiCad 8.0.6} date 2024-12-18T16:29:03-0800
; FORMAT={-:-/ absolute / inch / decimal}
; #@! TF.CreationDate,2024-12-18T16:29:03-08:00
; #@! TF.GenerationSoftware,Kicad,Pcbnew,8.0.6
; #@! TF.FileFunction,NonPlated,1,2,NPTH
FMAT,2
INCH
; #@! TA.AperFunction,NonPlated,NPTH,ComponentDrill
T1C0.0591
; #@! TA.AperFunction,NonPlated,NPTH,ComponentDrill
T2C0.0670
; #@! TA.AperFunction,NonPlated,NPTH,ComponentDrill
T3C0.0709
; #@! TA.AperFunction,NonPlated,NPTH,ComponentDrill
T4C0.1181
; #@! TA.AperFunction,NonPlated,NPTH,ComponentDrill
T5C0.1570
%
G90
G05
T1
X8.0903Y-5.2901
X8.2813Y-5.2901
T2
X1.0721Y-5.5216
X1.168Y-4.74
X1.264Y-3.9585
X1.3599Y-3.177
X1.4691Y-5.5703
X1.4751Y-2.2391
X1.565Y-4.7888
X1.661Y-4.0073
X1.757Y-3.2257
X1.8721Y-2.2879
X2.0099Y-5.6367
X2.1059Y-4.8552
X2.2018Y-4.0737
X2.2978Y-3.2921
X2.4069Y-5.6855
X2.4129Y-2.3543
X2.5029Y-4.9039
X2.5988Y-4.1224
X2.6948Y-3.3409
X2.8099Y-2.403
X2.8555Y-5.5352
X2.9786Y-4.7575
X3.1018Y-3.9798
X3.225Y-3.2021
X3.2505Y-5.5978
X3.3728Y-2.2688
X3.3737Y-4.8201
X3.4969Y-4.0423
X3.6201Y-3.2646
X3.6887Y-5.5604
X3.7679Y-2.3314
X3.8389Y-4.7875
X3.9892Y-4.0146
X4.0813Y-5.6368
X4.1394Y-3.2416
X4.2316Y-4.8638
X4.3197Y-2.3141
X4.3818Y-4.0909
X4.4829Y-5.808
X4.532Y-3.318
X4.66Y-5.0408
X4.7123Y-2.3904
X4.8372Y-4.2735
X4.8727Y-5.898
X5.0143Y-3.5063
X5.0498Y-5.1307
X5.2269Y-2.5857
X5.2269Y-4.3635
X5.2725Y-6.0639
X5.3615Y-7.6936
X5.4041Y-3.5963
X5.4763Y-5.3033
X5.6166Y-2.6756
X5.6444Y-7.4108
X5.6589Y-6.1674
X5.6801Y-4.5428
X5.8626Y-5.4069
X5.8839Y-3.7822
X5.9183Y-8.2504
X6.0664Y-4.6463
X6.1284Y-2.8695
X6.2012Y-7.9676
X6.2106Y-9.0717
X6.2702Y-3.8857
X6.4935Y-8.7888
X6.5148Y-2.973
X6.7396Y-7.4292
X6.7535Y-8.5288
X7.0224Y-7.1463
X7.0363Y-8.246
X7.2963Y-7.986
X7.5792Y-7.7031
X8.7924Y-7.7031
X9.0752Y-7.986
X9.3353Y-8.246
X9.3492Y-7.1463
X9.6181Y-8.5288
X9.632Y-7.4292
X9.8568Y-2.973
X9.8781Y-8.7888
X10.1014Y-3.8857
X10.161Y-9.0717
X10.1704Y-7.9676
X10.2432Y-2.8695
X10.3051Y-4.6463
X10.4533Y-8.2504
X10.4877Y-3.7822
X10.5089Y-5.4069
X10.6915Y-4.5428
X10.7127Y-6.1674
X10.7272Y-7.4108
X10.755Y-2.6756
X10.8953Y-5.3033
X10.9675Y-3.5963
X11.01Y-7.6937
X11.0991Y-6.0639
X11.1447Y-4.3635
X11.1447Y-2.5857
X11.3218Y-5.1307
X11.3573Y-3.5063
X11.4989Y-5.898
X11.5344Y-4.2735
X11.6592Y-2.3904
X11.7115Y-5.0408
X11.8395Y-3.318
X11.8887Y-5.808
X11.9898Y-4.0909
X12.0519Y-2.3141
X12.14Y-4.8638
X12.2322Y-3.2416
X12.2903Y-5.6368
X12.3824Y-4.0146
X12.5327Y-4.7875
X12.6037Y-2.3314
X12.6829Y-5.5604
X12.7515Y-3.2646
X12.8747Y-4.0423
X12.9979Y-4.8201
X12.9988Y-2.2688
X13.121Y-5.5978
X13.1466Y-3.2021
X13.2698Y-3.9798
X13.3929Y-4.7575
X13.5161Y-5.5352
X13.5616Y-2.403
X13.6768Y-3.3409
X13.7728Y-4.1224
X13.8687Y-4.9039
X13.9587Y-2.3543
X13.9647Y-5.6855
X14.0738Y-3.2921
X14.1698Y-4.0737
X14.2657Y-4.8552
X14.3617Y-5.6367
X14.4995Y-2.2879
X14.6146Y-3.2257
X14.7106Y-4.0073
X14.8065Y-4.7888
X14.8965Y-2.2391
X14.9025Y-5.5703
X15.0116Y-3.177
X15.1076Y-3.9585
X15.2036Y-4.74
X15.2995Y-5.5216
T3
X8.0785Y-5.1708
X8.2931Y-5.1708
T4
X1.1339Y-5.4284
X1.2298Y-4.6469
X1.3258Y-3.8653
X1.3942Y-5.3596
X1.4218Y-3.0838
X1.4902Y-4.5781
X1.5369Y-2.146
X1.5861Y-3.7966
X1.6821Y-3.015
X1.7972Y-2.0772
X2.0717Y-5.5436
X2.1677Y-4.762
X2.2636Y-3.9805
X2.332Y-5.4748
X2.3596Y-3.199
X2.428Y-4.6932
X2.4747Y-2.2611
X2.524Y-3.9117
X2.6199Y-3.1302
X2.7351Y-2.1923
X2.9205Y-5.4442
X3.0437Y-4.6665
X3.1668Y-3.8888
X3.1831Y-5.3846
X3.29Y-3.1111
X3.3062Y-4.6069
X3.4294Y-3.8292
X3.4378Y-2.1779
X3.5526Y-3.0515
X3.7004Y-2.1182
X3.7568Y-5.4718
X3.9071Y-4.6989
X4.0213Y-5.4214
X4.0573Y-3.9259
X4.1716Y-4.6484
X4.2076Y-3.153
X4.3218Y-3.8755
X4.3879Y-2.2255
X4.472Y-3.1025
X4.5541Y-5.7218
X4.6523Y-2.175
X4.7313Y-4.9546
X4.8202Y-5.6806
X4.9084Y-4.1873
X4.9973Y-4.9134
X5.0855Y-3.4201
X5.1745Y-4.1461
X5.2981Y-2.4995
X5.3262Y-7.5876
X5.3467Y-5.9803
X5.3516Y-3.3789
X5.4323Y-7.3401
X5.5505Y-5.2197
X5.5642Y-2.4583
X5.614Y-5.9484
X5.7542Y-4.4591
X5.8178Y-5.1878
X5.883Y-8.1444
X5.958Y-3.6985
X5.989Y-7.8969
X6.0216Y-4.4272
X6.1753Y-8.9656
X6.2026Y-2.7859
X6.2254Y-3.6667
X6.2813Y-8.7181
X6.47Y-2.754
X6.7042Y-7.3231
X6.7181Y-8.4227
X6.8103Y-7.0756
X6.8242Y-8.1753
X7.261Y-7.8799
X7.3671Y-7.6324
X8.8985Y-7.6678
X9.146Y-7.7738
X9.4413Y-8.2106
X9.4552Y-7.111
X9.6888Y-8.3167
X9.7027Y-7.217
X9.8792Y-2.8635
X9.9842Y-8.7535
X10.0948Y-2.7022
X10.1238Y-3.7762
X10.2317Y-8.8595
X10.2765Y-7.9322
X10.3276Y-4.5368
X10.3394Y-3.6149
X10.524Y-8.0383
X10.5314Y-5.2973
X10.5432Y-4.3755
X10.7352Y-6.0579
X10.747Y-5.136
X10.7812Y-2.5669
X10.8333Y-7.3755
X10.9508Y-5.8966
X10.9938Y-3.4876
X11.0023Y-2.4133
X11.0808Y-7.4815
X11.1709Y-4.2548
X11.2149Y-3.3339
X11.348Y-5.0221
X11.392Y-4.1012
X11.5251Y-5.7893
X11.5691Y-4.8684
X11.6892Y-2.2827
X11.7462Y-5.6356
X11.8695Y-3.2103
X11.9156Y-2.1369
X12.0198Y-3.9832
X12.0959Y-3.0644
X12.17Y-4.7561
X12.2461Y-3.8373
X12.3203Y-5.5291
X12.3963Y-4.6103
X12.5466Y-5.3832
X12.6374Y-2.2248
X12.7853Y-3.158
X12.8687Y-2.0869
X12.9084Y-3.9358
X13.0165Y-3.0202
X13.0316Y-4.7135
X13.1397Y-3.7979
X13.1548Y-5.4912
X13.2629Y-4.5756
X13.3861Y-5.3533
X13.5991Y-2.2977
X13.7142Y-3.2355
X13.8102Y-4.0171
X13.835Y-2.168
X13.9062Y-4.7986
X13.9502Y-3.1058
X14.0021Y-5.5801
X14.0461Y-3.8873
X14.1421Y-4.6689
X14.2381Y-5.4504
X14.5369Y-2.1825
X14.6521Y-3.1204
X14.748Y-3.9019
X14.7729Y-2.0528
X14.844Y-4.6834
X14.888Y-2.9907
X14.94Y-5.465
X14.984Y-3.7722
X15.0799Y-4.5537
X15.1759Y-5.3352
T5
X1.2706Y-5.5459
X1.3665Y-4.7644
X1.4625Y-3.9829
X1.5584Y-3.2013
X1.6736Y-2.2635
X2.2084Y-5.6611
X2.3044Y-4.8796
X2.4003Y-4.098
X2.4963Y-3.3165
X2.6114Y-2.3787
X3.053Y-5.5665
X3.1762Y-4.7888
X3.2994Y-4.0111
X3.4225Y-3.2334
X3.5703Y-2.3001
X3.885Y-5.5986
X4.0352Y-4.8257
X4.1855Y-4.0527
X4.3357Y-3.2798
X4.516Y-2.3523
X4.6778Y-5.853
X4.8549Y-5.0857
X5.032Y-4.3185
X5.2092Y-3.5513
X5.4217Y-2.6306
X5.4657Y-6.1157
X5.503Y-7.5522
X5.6695Y-5.3551
X5.8733Y-4.5945
X6.0597Y-8.109
X6.077Y-3.834
X6.3216Y-2.9213
X6.352Y-8.9303
X6.881Y-7.2878
X6.8949Y-8.3874
X7.4378Y-7.8445
X8.9338Y-7.8445
X9.4767Y-8.3874
X9.4906Y-7.2878
X10.0195Y-8.9303
X10.05Y-2.9213
X10.2945Y-3.834
X10.3118Y-8.109
X10.4983Y-4.5945
X10.7021Y-5.3551
X10.8686Y-7.5522
X10.9059Y-6.1157
X10.9499Y-2.6306
X11.1624Y-3.5513
X11.3395Y-4.3185
X11.5167Y-5.0857
X11.6938Y-5.853
X11.8556Y-2.3523
X12.0359Y-3.2798
X12.1861Y-4.0527
X12.3363Y-4.8257
X12.4866Y-5.5986
X12.8012Y-2.3001
X12.9491Y-3.2334
X13.0722Y-4.0111
X13.1954Y-4.7888
X13.3186Y-5.5665
X13.7601Y-2.3787
X13.8753Y-3.3165
X13.9713Y-4.098
X14.0672Y-4.8796
X14.1632Y-5.6611
X14.698Y-2.2635
X14.8131Y-3.2013
X14.9091Y-3.9829
X15.0051Y-4.7644
X15.101Y-5.5459
M30
