%TF.GenerationSoftware,KiCad,Pcbnew,8.0.6*%
%TF.CreationDate,2024-12-18T16:48:01-08:00*%
%TF.ProjectId,gundamBowtie,67756e64-616d-4426-9f77-7469652e6b69,v1.0.0*%
%TF.SameCoordinates,Original*%
%TF.FileFunction,Copper,L2,Bot*%
%TF.FilePolarity,Positive*%
%FSLAX46Y46*%
G04 Gerber Fmt 4.6, Leading zero omitted, Abs format (unit mm)*
G04 Created by KiCad (PCBNEW 8.0.6) date 2024-12-18 16:48:01*
%MOMM*%
%LPD*%
G01*
G04 APERTURE LIST*
G04 Aperture macros list*
%AMRotRect*
0 Rectangle, with rotation*
0 The origin of the aperture is its center*
0 $1 length*
0 $2 width*
0 $3 Rotation angle, in degrees counterclockwise*
0 Add horizontal line*
21,1,$1,$2,0,0,$3*%
G04 Aperture macros list end*
%TA.AperFunction,ComponentPad*%
%ADD10RotRect,1.778000X1.778000X45.000000*%
%TD*%
%TA.AperFunction,SMDPad,CuDef*%
%ADD11RotRect,0.900000X1.200000X45.000000*%
%TD*%
%TA.AperFunction,ComponentPad*%
%ADD12C,1.905000*%
%TD*%
%TA.AperFunction,SMDPad,CuDef*%
%ADD13RotRect,2.550000X2.500000X11.000000*%
%TD*%
%TA.AperFunction,SMDPad,CuDef*%
%ADD14RotRect,2.550000X2.500000X15.000000*%
%TD*%
%TA.AperFunction,ComponentPad*%
%ADD15RotRect,1.778000X1.778000X315.000000*%
%TD*%
%TA.AperFunction,SMDPad,CuDef*%
%ADD16RotRect,0.900000X1.200000X315.000000*%
%TD*%
%TA.AperFunction,ComponentPad*%
%ADD17RotRect,1.778000X1.778000X353.000000*%
%TD*%
%TA.AperFunction,SMDPad,CuDef*%
%ADD18RotRect,0.900000X1.200000X353.000000*%
%TD*%
%TA.AperFunction,ComponentPad*%
%ADD19RotRect,1.778000X1.778000X351.000000*%
%TD*%
%TA.AperFunction,SMDPad,CuDef*%
%ADD20RotRect,0.900000X1.200000X351.000000*%
%TD*%
%TA.AperFunction,SMDPad,CuDef*%
%ADD21RotRect,2.550000X2.500000X351.000000*%
%TD*%
%TA.AperFunction,ComponentPad*%
%ADD22RotRect,1.778000X1.778000X349.000000*%
%TD*%
%TA.AperFunction,SMDPad,CuDef*%
%ADD23RotRect,0.900000X1.200000X349.000000*%
%TD*%
%TA.AperFunction,ComponentPad*%
%ADD24RotRect,1.778000X1.778000X11.000000*%
%TD*%
%TA.AperFunction,SMDPad,CuDef*%
%ADD25RotRect,0.900000X1.200000X11.000000*%
%TD*%
%TA.AperFunction,SMDPad,CuDef*%
%ADD26RotRect,2.550000X2.500000X345.000000*%
%TD*%
%TA.AperFunction,ComponentPad*%
%ADD27O,1.700000X1.700000*%
%TD*%
%TA.AperFunction,ComponentPad*%
%ADD28R,1.700000X1.700000*%
%TD*%
%TA.AperFunction,SMDPad,CuDef*%
%ADD29RotRect,2.550000X2.500000X7.000000*%
%TD*%
%TA.AperFunction,SMDPad,CuDef*%
%ADD30RotRect,2.550000X2.500000X353.000000*%
%TD*%
%TA.AperFunction,ComponentPad*%
%ADD31RotRect,1.778000X1.778000X345.000000*%
%TD*%
%TA.AperFunction,SMDPad,CuDef*%
%ADD32RotRect,0.900000X1.200000X345.000000*%
%TD*%
%TA.AperFunction,ComponentPad*%
%ADD33RotRect,1.778000X1.778000X7.000000*%
%TD*%
%TA.AperFunction,SMDPad,CuDef*%
%ADD34RotRect,0.900000X1.200000X7.000000*%
%TD*%
%TA.AperFunction,SMDPad,CuDef*%
%ADD35RotRect,2.550000X2.500000X9.000000*%
%TD*%
%TA.AperFunction,ComponentPad*%
%ADD36RotRect,1.778000X1.778000X13.000000*%
%TD*%
%TA.AperFunction,SMDPad,CuDef*%
%ADD37RotRect,0.900000X1.200000X13.000000*%
%TD*%
%TA.AperFunction,SMDPad,CuDef*%
%ADD38RotRect,2.550000X2.500000X315.000000*%
%TD*%
%TA.AperFunction,SMDPad,CuDef*%
%ADD39RotRect,2.550000X2.500000X13.000000*%
%TD*%
%TA.AperFunction,SMDPad,CuDef*%
%ADD40RotRect,2.550000X2.500000X349.000000*%
%TD*%
%TA.AperFunction,SMDPad,CuDef*%
%ADD41RotRect,2.550000X2.500000X45.000000*%
%TD*%
%TA.AperFunction,ComponentPad*%
%ADD42C,0.700000*%
%TD*%
%TA.AperFunction,ComponentPad*%
%ADD43C,4.400000*%
%TD*%
%TA.AperFunction,SMDPad,CuDef*%
%ADD44RotRect,2.550000X2.500000X347.000000*%
%TD*%
%TA.AperFunction,ComponentPad*%
%ADD45RotRect,1.778000X1.778000X9.000000*%
%TD*%
%TA.AperFunction,SMDPad,CuDef*%
%ADD46RotRect,0.900000X1.200000X9.000000*%
%TD*%
%TA.AperFunction,ComponentPad*%
%ADD47RotRect,1.778000X1.778000X15.000000*%
%TD*%
%TA.AperFunction,SMDPad,CuDef*%
%ADD48RotRect,0.900000X1.200000X15.000000*%
%TD*%
%TA.AperFunction,ComponentPad*%
%ADD49RotRect,1.778000X1.778000X347.000000*%
%TD*%
%TA.AperFunction,SMDPad,CuDef*%
%ADD50RotRect,0.900000X1.200000X347.000000*%
%TD*%
%TA.AperFunction,ViaPad*%
%ADD51C,0.800000*%
%TD*%
%TA.AperFunction,Conductor*%
%ADD52C,0.250000*%
%TD*%
G04 APERTURE END LIST*
D10*
%TO.P,D34,1*%
%TO.N,GP15*%
X162183448Y-233057988D03*
D11*
X163710795Y-231530634D03*
%TO.P,D34,2*%
%TO.N,keysNextToBig_bottom*%
X166044247Y-229197180D03*
D12*
X167571594Y-227669826D03*
%TD*%
D13*
%TO.P,S52,1*%
%TO.N,GP3*%
X309719945Y-141062916D03*
%TO.P,S52,2*%
%TO.N,mirror_middle_bottom*%
X321924777Y-136102991D03*
%TD*%
D14*
%TO.P,S66,1*%
%TO.N,GP5*%
X247768609Y-73580650D03*
%TO.P,S66,2*%
%TO.N,mirror_inner_function*%
X259597731Y-67781436D03*
%TD*%
D15*
%TO.P,D71,1*%
%TO.N,GP16*%
X234478135Y-213881267D03*
D16*
X236005489Y-215408614D03*
%TO.P,D71,2*%
%TO.N,mirror_keysNextToBigPart2_bottom*%
X238338943Y-217742066D03*
D12*
X239866297Y-219269413D03*
%TD*%
D17*
%TO.P,D8,1*%
%TO.N,GP11*%
X56577332Y-108588468D03*
D18*
X58721230Y-108851702D03*
%TO.P,D8,2*%
%TO.N,pinky_top*%
X61996636Y-109253870D03*
D12*
X64140534Y-109517104D03*
%TD*%
D19*
%TO.P,D12,1*%
%TO.N,GP12*%
X76129728Y-125977093D03*
D20*
X78263140Y-126314988D03*
%TO.P,D12,2*%
%TO.N,ring_home*%
X81522500Y-126831226D03*
D12*
X83655912Y-127169121D03*
%TD*%
D21*
%TO.P,S12,1*%
%TO.N,GP2*%
X74074563Y-118017569D03*
%TO.P,S12,2*%
%TO.N,ring_home*%
X87239760Y-117531067D03*
%TD*%
D22*
%TO.P,D18,1*%
%TO.N,GP11*%
X101617200Y-107120422D03*
D23*
X103737517Y-107532561D03*
%TO.P,D18,2*%
%TO.N,middle_top*%
X106976883Y-108162241D03*
D12*
X109097200Y-108574380D03*
%TD*%
D24*
%TO.P,D55,1*%
%TO.N,GP21*%
X302924937Y-88941812D03*
D25*
X305045250Y-88529673D03*
%TO.P,D55,2*%
%TO.N,mirror_middle_number*%
X308284622Y-87900005D03*
D12*
X310404935Y-87487866D03*
%TD*%
D26*
%TO.P,S27,1*%
%TO.N,GP5*%
X137818086Y-131732383D03*
%TO.P,S27,2*%
%TO.N,inner_home*%
X150962004Y-132624690D03*
%TD*%
D27*
%TO.P,_1,43*%
%TO.N,N/C*%
X210459144Y-179238110D03*
D28*
%TO.P,_1,42*%
X207919158Y-179238108D03*
D27*
%TO.P,_1,41*%
X205379148Y-179238123D03*
%TO.P,_1,40*%
%TO.N,VBUS*%
X216809144Y-131208111D03*
%TO.P,_1,39*%
%TO.N,VSYS*%
X216809147Y-133748113D03*
D28*
%TO.P,_1,38*%
%TO.N,GND*%
X216809160Y-136288107D03*
D27*
%TO.P,_1,37*%
%TO.N,3V3_EN*%
X216809148Y-138828099D03*
%TO.P,_1,36*%
%TO.N,3V3*%
X216809153Y-141368114D03*
%TO.P,_1,35*%
%TO.N,ADC_VREF*%
X216809146Y-143908108D03*
%TO.P,_1,34*%
%TO.N,GP28*%
X216809147Y-146448106D03*
D28*
%TO.P,_1,33*%
%TO.N,AGND*%
X216809142Y-148988114D03*
D27*
%TO.P,_1,32*%
%TO.N,GP27*%
X216809145Y-151528110D03*
%TO.P,_1,31*%
%TO.N,GP26*%
X216809148Y-154068102D03*
%TO.P,_1,30*%
%TO.N,RUN*%
X216809143Y-156608112D03*
%TO.P,_1,29*%
%TO.N,GP22*%
X216809143Y-159148111D03*
D28*
%TO.P,_1,28*%
%TO.N,GND*%
X216809154Y-161688111D03*
D27*
%TO.P,_1,27*%
%TO.N,GP21*%
X216809149Y-164228110D03*
%TO.P,_1,26*%
%TO.N,GP20*%
X216809147Y-166768115D03*
%TO.P,_1,25*%
%TO.N,GP19*%
X216809149Y-169308103D03*
%TO.P,_1,24*%
%TO.N,GP18*%
X216809150Y-171848107D03*
D28*
%TO.P,_1,23*%
%TO.N,GND*%
X216809127Y-174388118D03*
D27*
%TO.P,_1,22*%
%TO.N,GP17*%
X216809143Y-176928106D03*
%TO.P,_1,21*%
%TO.N,GP16*%
X216809147Y-179468111D03*
%TO.P,_1,20*%
%TO.N,GP15*%
X199029148Y-179468107D03*
%TO.P,_1,19*%
%TO.N,GP14*%
X199029145Y-176928105D03*
D28*
%TO.P,_1,18*%
%TO.N,GND*%
X199029132Y-174388111D03*
D27*
%TO.P,_1,17*%
%TO.N,GP13*%
X199029144Y-171848119D03*
%TO.P,_1,16*%
%TO.N,GP12*%
X199029139Y-169308104D03*
%TO.P,_1,15*%
%TO.N,GP11*%
X199029146Y-166768110D03*
%TO.P,_1,14*%
%TO.N,GP10*%
X199029145Y-164228112D03*
D28*
%TO.P,_1,13*%
%TO.N,GND*%
X199029150Y-161688104D03*
D27*
%TO.P,_1,12*%
%TO.N,GP9*%
X199029147Y-159148108D03*
%TO.P,_1,11*%
%TO.N,GP8*%
X199029144Y-156608116D03*
%TO.P,_1,10*%
%TO.N,GP7*%
X199029149Y-154068106D03*
%TO.P,_1,9*%
%TO.N,GP6*%
X199029149Y-151528107D03*
D28*
%TO.P,_1,8*%
%TO.N,GND*%
X199029138Y-148988107D03*
D27*
%TO.P,_1,7*%
%TO.N,GP5*%
X199029143Y-146448108D03*
%TO.P,_1,6*%
%TO.N,GP4*%
X199029145Y-143908103D03*
%TO.P,_1,5*%
%TO.N,GP3*%
X199029143Y-141368115D03*
%TO.P,_1,4*%
%TO.N,GP2*%
X199029142Y-138828111D03*
D28*
%TO.P,_1,3*%
%TO.N,GND*%
X199029165Y-136288100D03*
D27*
%TO.P,_1,2*%
%TO.N,GP1*%
X199029149Y-133748112D03*
%TO.P,_1,1*%
%TO.N,GP0*%
X199029145Y-131208107D03*
%TD*%
D29*
%TO.P,S46,1*%
%TO.N,GP1*%
X342166045Y-58760390D03*
%TO.P,S46,2*%
%TO.N,mirror_pinky_function*%
X354687137Y-54663919D03*
%TD*%
D26*
%TO.P,S28,1*%
%TO.N,GP5*%
X142994478Y-112413872D03*
%TO.P,S28,2*%
%TO.N,inner_top*%
X156138396Y-113306179D03*
%TD*%
D30*
%TO.P,S2,1*%
%TO.N,GP0*%
X27987149Y-117631633D03*
%TO.P,S2,2*%
%TO.N,mods_home*%
X41127340Y-116685973D03*
%TD*%
D31*
%TO.P,D28,1*%
%TO.N,GP11*%
X144206372Y-120544585D03*
D32*
X146292772Y-121103624D03*
%TO.P,D28,2*%
%TO.N,inner_top*%
X149480322Y-121957746D03*
D12*
X151566722Y-122516785D03*
%TD*%
D33*
%TO.P,D39,1*%
%TO.N,GP20*%
X375518842Y-106592271D03*
D34*
X377662735Y-106329028D03*
%TO.P,D39,2*%
%TO.N,mirror_mods_top*%
X380938155Y-105926862D03*
D12*
X383082048Y-105663619D03*
%TD*%
D21*
%TO.P,S11,1*%
%TO.N,GP2*%
X70945900Y-137771388D03*
%TO.P,S11,2*%
%TO.N,ring_bottom*%
X84111097Y-137284886D03*
%TD*%
D17*
%TO.P,D4,1*%
%TO.N,GP10*%
X35193599Y-85812684D03*
D18*
X37337497Y-86075918D03*
%TO.P,D4,2*%
%TO.N,mods_number*%
X40612903Y-86478086D03*
D12*
X42756801Y-86741320D03*
%TD*%
D35*
%TO.P,S47,1*%
%TO.N,GP2*%
X330896870Y-139988022D03*
%TO.P,S47,2*%
%TO.N,mirror_ring_bottom*%
X343267362Y-135457063D03*
%TD*%
D29*
%TO.P,S45,1*%
%TO.N,GP1*%
X345090901Y-82581523D03*
%TO.P,S45,2*%
%TO.N,mirror_pinky_number*%
X357611993Y-78485052D03*
%TD*%
D10*
%TO.P,D36,1*%
%TO.N,GP15*%
X189760651Y-205480852D03*
D11*
X191287998Y-203953498D03*
%TO.P,D36,2*%
%TO.N,keysNextToBigPart3_bottom*%
X193621450Y-201620044D03*
D12*
X195148797Y-200092690D03*
%TD*%
D36*
%TO.P,D58,1*%
%TO.N,GP19*%
X289935682Y-134906909D03*
D37*
X292040319Y-134421013D03*
%TO.P,D58,2*%
%TO.N,mirror_index_home*%
X295255741Y-133678677D03*
D12*
X297360378Y-133192781D03*
%TD*%
D17*
%TO.P,D10,1*%
%TO.N,GP9*%
X61939597Y-64916422D03*
D18*
X64083495Y-65179656D03*
%TO.P,D10,2*%
%TO.N,pinky_function*%
X67358901Y-65581824D03*
D12*
X69502799Y-65845058D03*
%TD*%
D38*
%TO.P,S72,1*%
%TO.N,GP5*%
X223705348Y-192445338D03*
%TO.P,S72,2*%
%TO.N,mirror_keysNextToBigPart3_bottom*%
X234642177Y-199790060D03*
%TD*%
D26*
%TO.P,S30,1*%
%TO.N,GP5*%
X154382511Y-69913117D03*
%TO.P,S30,2*%
%TO.N,inner_function*%
X167526429Y-70805424D03*
%TD*%
D30*
%TO.P,S7,1*%
%TO.N,GP1*%
X51808279Y-120556435D03*
%TO.P,S7,2*%
%TO.N,pinky_home*%
X64948470Y-119610775D03*
%TD*%
D33*
%TO.P,D41,1*%
%TO.N,GP22*%
X370156603Y-62920214D03*
D34*
X372300496Y-62656971D03*
%TO.P,D41,2*%
%TO.N,mirror_mods_function*%
X375575916Y-62254805D03*
D12*
X377719809Y-61991562D03*
%TD*%
D21*
%TO.P,S15,1*%
%TO.N,GP2*%
X84086354Y-54805535D03*
%TO.P,S15,2*%
%TO.N,ring_function*%
X97251551Y-54319033D03*
%TD*%
D39*
%TO.P,S59,1*%
%TO.N,GP4*%
X280549453Y-108809460D03*
%TO.P,S59,2*%
%TO.N,mirror_index_top*%
X292573745Y-103426618D03*
%TD*%
D33*
%TO.P,D42,1*%
%TO.N,GP18*%
X356572503Y-149218954D03*
D34*
X358716396Y-148955711D03*
%TO.P,D42,2*%
%TO.N,mirror_pinky_bottom*%
X361991816Y-148553545D03*
D12*
X364135709Y-148290302D03*
%TD*%
D40*
%TO.P,S16,1*%
%TO.N,GP3*%
X92208671Y-138359147D03*
%TO.P,S16,2*%
%TO.N,middle_bottom*%
X105382821Y-138332400D03*
%TD*%
D17*
%TO.P,D2,1*%
%TO.N,GP12*%
X30318832Y-125514531D03*
D18*
X32462730Y-125777765D03*
%TO.P,D2,2*%
%TO.N,mods_home*%
X35738136Y-126179933D03*
D12*
X37882034Y-126443167D03*
%TD*%
D24*
%TO.P,D52,1*%
%TO.N,GP18*%
X314373483Y-147839441D03*
D25*
X316493796Y-147427302D03*
%TO.P,D52,2*%
%TO.N,mirror_middle_bottom*%
X319733168Y-146797634D03*
D12*
X321853481Y-146385495D03*
%TD*%
D15*
%TO.P,D68,1*%
%TO.N,GP18*%
X269833451Y-192668066D03*
D16*
X271360805Y-194195413D03*
%TO.P,D68,2*%
%TO.N,mirror_left_top*%
X273694259Y-196528865D03*
D12*
X275221613Y-198056212D03*
%TD*%
D41*
%TO.P,S32,1*%
%TO.N,GP1*%
X132969332Y-195040406D03*
%TO.P,S32,2*%
%TO.N,left_top*%
X140314054Y-184103577D03*
%TD*%
D31*
%TO.P,D30,1*%
%TO.N,GP9*%
X155594407Y-78043884D03*
D32*
X157680807Y-78602923D03*
%TO.P,D30,2*%
%TO.N,inner_function*%
X160868357Y-79457045D03*
D12*
X162954757Y-80016084D03*
%TD*%
D33*
%TO.P,D40,1*%
%TO.N,GP21*%
X373081491Y-86741308D03*
D34*
X375225384Y-86478065D03*
%TO.P,D40,2*%
%TO.N,mirror_mods_number*%
X378500804Y-86075899D03*
D12*
X380644697Y-85812656D03*
%TD*%
D33*
%TO.P,D43,1*%
%TO.N,GP19*%
X354135141Y-129368063D03*
D34*
X356279034Y-129104820D03*
%TO.P,D43,2*%
%TO.N,mirror_pinky_home*%
X359554454Y-128702654D03*
D12*
X361698347Y-128439411D03*
%TD*%
D17*
%TO.P,D1,1*%
%TO.N,GP13*%
X27881439Y-145365428D03*
D18*
X30025337Y-145628662D03*
%TO.P,D1,2*%
%TO.N,mods_bottom*%
X33300743Y-146030830D03*
D12*
X35444641Y-146294064D03*
%TD*%
D13*
%TO.P,S53,1*%
%TO.N,GP3*%
X305903779Y-121430365D03*
%TO.P,S53,2*%
%TO.N,mirror_middle_home*%
X318108611Y-116470440D03*
%TD*%
D42*
%TO.P,_3,1*%
%TO.N,N/C*%
X361838610Y-70994100D03*
X362460477Y-72093235D03*
X362176102Y-69777174D03*
X363677403Y-72430727D03*
D43*
X363476320Y-70793017D03*
D42*
X363275237Y-69155307D03*
X364776538Y-71808860D03*
X364492163Y-69492799D03*
X365114030Y-70591934D03*
%TD*%
D35*
%TO.P,S51,1*%
%TO.N,GP2*%
X317756384Y-57022247D03*
%TO.P,S51,2*%
%TO.N,mirror_ring_function*%
X330126876Y-52491288D03*
%TD*%
D44*
%TO.P,S25,1*%
%TO.N,GP4*%
X131379927Y-62749619D03*
%TO.P,S25,2*%
%TO.N,index_function*%
X144546988Y-63182654D03*
%TD*%
D33*
%TO.P,D45,1*%
%TO.N,GP21*%
X349260365Y-89666168D03*
D34*
X351404258Y-89402925D03*
%TO.P,D45,2*%
%TO.N,mirror_pinky_number*%
X354679678Y-89000759D03*
D12*
X356823571Y-88737516D03*
%TD*%
D42*
%TO.P,_8,1*%
%TO.N,N/C*%
X165351189Y-141739499D03*
X165516016Y-142991558D03*
X166119966Y-140737612D03*
X167372025Y-140572785D03*
D43*
X166944964Y-142166560D03*
D42*
X166517903Y-143760335D03*
X167769962Y-143595508D03*
X168373912Y-141341562D03*
X168538739Y-142593621D03*
%TD*%
D38*
%TO.P,S67,1*%
%TO.N,GP1*%
X258707146Y-199162835D03*
%TO.P,S67,2*%
%TO.N,mirror_left_middle*%
X269643975Y-206507557D03*
%TD*%
D33*
%TO.P,D38,1*%
%TO.N,GP19*%
X377956267Y-126443168D03*
D34*
X380100160Y-126179925D03*
%TO.P,D38,2*%
%TO.N,mirror_mods_home*%
X383375580Y-125777759D03*
D12*
X385519473Y-125514516D03*
%TD*%
D44*
%TO.P,S22,1*%
%TO.N,GP4*%
X116982984Y-125109331D03*
%TO.P,S22,2*%
%TO.N,index_home*%
X130150045Y-125542366D03*
%TD*%
D45*
%TO.P,D51,1*%
%TO.N,GP22*%
X322170573Y-63957022D03*
D46*
X324303976Y-63619136D03*
%TO.P,D51,2*%
%TO.N,mirror_ring_function*%
X327563350Y-63102904D03*
D12*
X329696753Y-62765018D03*
%TD*%
D47*
%TO.P,D63,1*%
%TO.N,GP19*%
X269447966Y-141835308D03*
D48*
X271534367Y-141276255D03*
%TO.P,D63,2*%
%TO.N,mirror_inner_home*%
X274721921Y-140422153D03*
D12*
X276808322Y-139863100D03*
%TD*%
D13*
%TO.P,S56,1*%
%TO.N,GP3*%
X293692014Y-58606234D03*
%TO.P,S56,2*%
%TO.N,mirror_middle_function*%
X305896846Y-53646309D03*
%TD*%
D49*
%TO.P,D22,1*%
%TO.N,GP12*%
X118477945Y-133192776D03*
D50*
X120582580Y-133678668D03*
%TO.P,D22,2*%
%TO.N,index_home*%
X123798018Y-134421016D03*
D12*
X125902653Y-134906908D03*
%TD*%
D44*
%TO.P,S23,1*%
%TO.N,GP4*%
X121482027Y-105621936D03*
%TO.P,S23,2*%
%TO.N,index_top*%
X134649088Y-106054971D03*
%TD*%
D35*
%TO.P,S50,1*%
%TO.N,GP2*%
X321510819Y-80726764D03*
%TO.P,S50,2*%
%TO.N,mirror_ring_number*%
X333881311Y-76195805D03*
%TD*%
D13*
%TO.P,S54,1*%
%TO.N,GP3*%
X302087586Y-101797767D03*
%TO.P,S54,2*%
%TO.N,mirror_middle_top*%
X314292418Y-96837842D03*
%TD*%
D14*
%TO.P,S63,1*%
%TO.N,GP5*%
X264333053Y-135399845D03*
%TO.P,S63,2*%
%TO.N,mirror_inner_home*%
X276162175Y-129600631D03*
%TD*%
D36*
%TO.P,D60,1*%
%TO.N,GP21*%
X280937626Y-95932102D03*
D37*
X283042263Y-95446206D03*
%TO.P,D60,2*%
%TO.N,mirror_index_number*%
X286257685Y-94703870D03*
D12*
X288362322Y-94217974D03*
%TD*%
D15*
%TO.P,D69,1*%
%TO.N,GP17*%
X234831694Y-185950547D03*
D16*
X236359048Y-187477894D03*
%TO.P,D69,2*%
%TO.N,mirror_right_middle*%
X238692502Y-189811346D03*
D12*
X240219856Y-191338693D03*
%TD*%
D14*
%TO.P,S62,1*%
%TO.N,GP5*%
X269509429Y-154718382D03*
%TO.P,S62,2*%
%TO.N,mirror_inner_bottom*%
X281338551Y-148919168D03*
%TD*%
D31*
%TO.P,D29,1*%
%TO.N,GP10*%
X149382713Y-101226076D03*
D32*
X151469113Y-101785115D03*
%TO.P,D29,2*%
%TO.N,inner_number*%
X154656663Y-102639237D03*
D12*
X156743063Y-103198276D03*
%TD*%
D39*
%TO.P,S57,1*%
%TO.N,GP4*%
X289547485Y-147784286D03*
%TO.P,S57,2*%
%TO.N,mirror_index_bottom*%
X301571777Y-142401444D03*
%TD*%
D15*
%TO.P,D67,1*%
%TO.N,GP17*%
X255691310Y-206810226D03*
D16*
X257218664Y-208337573D03*
%TO.P,D67,2*%
%TO.N,mirror_left_middle*%
X259552118Y-210671025D03*
D12*
X261079472Y-212198372D03*
%TD*%
D29*
%TO.P,S42,1*%
%TO.N,GP1*%
X352403018Y-142134282D03*
%TO.P,S42,2*%
%TO.N,mirror_pinky_bottom*%
X364924110Y-138037811D03*
%TD*%
D38*
%TO.P,S69,1*%
%TO.N,GP2*%
X237847450Y-178303211D03*
%TO.P,S69,2*%
%TO.N,mirror_right_middle*%
X248784279Y-185647933D03*
%TD*%
D29*
%TO.P,S43,1*%
%TO.N,GP1*%
X349965651Y-122283325D03*
%TO.P,S43,2*%
%TO.N,mirror_pinky_home*%
X362486743Y-118186854D03*
%TD*%
D30*
%TO.P,S5,2*%
%TO.N,mods_function*%
X48926972Y-53162991D03*
%TO.P,S5,1*%
%TO.N,GP0*%
X35786781Y-54108651D03*
%TD*%
D39*
%TO.P,S58,1*%
%TO.N,GP4*%
X285048447Y-128296885D03*
%TO.P,S58,2*%
%TO.N,mirror_index_home*%
X297072739Y-122914043D03*
%TD*%
D10*
%TO.P,D31,1*%
%TO.N,GP14*%
X154758799Y-212198368D03*
D11*
X156286146Y-210671014D03*
%TO.P,D31,2*%
%TO.N,left_middle*%
X158619598Y-208337560D03*
D12*
X160146945Y-206810206D03*
%TD*%
D31*
%TO.P,D27,1*%
%TO.N,GP12*%
X139030014Y-139863138D03*
D32*
X141116414Y-140422177D03*
%TO.P,D27,2*%
%TO.N,inner_home*%
X144303964Y-141276299D03*
D12*
X146390364Y-141835338D03*
%TD*%
D26*
%TO.P,S29,1*%
%TO.N,GP5*%
X148170836Y-93095348D03*
%TO.P,S29,2*%
%TO.N,inner_number*%
X161314754Y-93987655D03*
%TD*%
D35*
%TO.P,S49,1*%
%TO.N,GP2*%
X324639480Y-100480536D03*
%TO.P,S49,2*%
%TO.N,mirror_ring_top*%
X337009972Y-95949577D03*
%TD*%
D42*
%TO.P,_4,1*%
%TO.N,N/C*%
X144512588Y-80704059D03*
X144721022Y-81949597D03*
X145245943Y-79675948D03*
X146491481Y-79467514D03*
D43*
X146120307Y-81075233D03*
D42*
X145749133Y-82682952D03*
X146994671Y-82474518D03*
X147519592Y-80200869D03*
X147728026Y-81446407D03*
%TD*%
%TO.P,_9,1*%
%TO.N,N/C*%
X247299489Y-142593601D03*
X247464325Y-141341548D03*
X248068264Y-143595491D03*
X249320317Y-143760327D03*
D43*
X248893266Y-142166550D03*
D42*
X248466215Y-140572773D03*
X249718268Y-140737609D03*
X250322207Y-142991552D03*
X250487043Y-141739499D03*
%TD*%
D36*
%TO.P,D61,1*%
%TO.N,GP22*%
X275538809Y-72547253D03*
D37*
X277643446Y-72061357D03*
%TO.P,D61,2*%
%TO.N,mirror_index_function*%
X280858868Y-71319021D03*
D12*
X282963505Y-70833125D03*
%TD*%
D40*
%TO.P,S19,1*%
%TO.N,GP3*%
X103657234Y-79461494D03*
%TO.P,S19,2*%
%TO.N,middle_number*%
X116831384Y-79434747D03*
%TD*%
D19*
%TO.P,D11,1*%
%TO.N,GP13*%
X73001053Y-145730843D03*
D20*
X75134465Y-146068738D03*
%TO.P,D11,2*%
%TO.N,ring_bottom*%
X78393825Y-146584976D03*
D12*
X80527237Y-146922871D03*
%TD*%
D41*
%TO.P,S35,1*%
%TO.N,GP4*%
X168324634Y-216253636D03*
%TO.P,S35,2*%
%TO.N,keysNextToBigPart2_bottom*%
X175669356Y-205316807D03*
%TD*%
D15*
%TO.P,D72,1*%
%TO.N,GP16*%
X220689516Y-200092698D03*
D16*
X222216870Y-201620045D03*
%TO.P,D72,2*%
%TO.N,mirror_keysNextToBigPart3_bottom*%
X224550324Y-203953497D03*
D12*
X226077678Y-205480844D03*
%TD*%
D29*
%TO.P,S38,1*%
%TO.N,GP0*%
X373786747Y-119358490D03*
%TO.P,S38,2*%
%TO.N,mirror_mods_home*%
X386307839Y-115262019D03*
%TD*%
D33*
%TO.P,D37,1*%
%TO.N,GP18*%
X380393630Y-146294086D03*
D34*
X382537523Y-146030843D03*
%TO.P,D37,2*%
%TO.N,mirror_mods_bottom*%
X385812943Y-145628677D03*
D12*
X387956836Y-145365434D03*
%TD*%
D44*
%TO.P,S24,1*%
%TO.N,GP4*%
X125981059Y-86134529D03*
%TO.P,S24,2*%
%TO.N,index_number*%
X139148120Y-86567564D03*
%TD*%
D29*
%TO.P,S39,1*%
%TO.N,GP0*%
X371349405Y-99507588D03*
%TO.P,S39,2*%
%TO.N,mirror_mods_top*%
X383870497Y-95411117D03*
%TD*%
D14*
%TO.P,S65,1*%
%TO.N,GP5*%
X253980238Y-96762845D03*
%TO.P,S65,2*%
%TO.N,mirror_inner_number*%
X265809360Y-90963631D03*
%TD*%
D47*
%TO.P,D62,1*%
%TO.N,GP18*%
X274624307Y-161153842D03*
D48*
X276710708Y-160594789D03*
%TO.P,D62,2*%
%TO.N,mirror_inner_bottom*%
X279898262Y-159740687D03*
D12*
X281984663Y-159181634D03*
%TD*%
D45*
%TO.P,D49,1*%
%TO.N,GP20*%
X329053688Y-107415326D03*
D46*
X331187091Y-107077440D03*
%TO.P,D49,2*%
%TO.N,mirror_ring_top*%
X334446465Y-106561208D03*
D12*
X336579868Y-106223322D03*
%TD*%
D19*
%TO.P,D15,1*%
%TO.N,GP9*%
X86141574Y-62765044D03*
D20*
X88274986Y-63102939D03*
%TO.P,D15,2*%
%TO.N,ring_function*%
X91534346Y-63619177D03*
D12*
X93667758Y-63957072D03*
%TD*%
D41*
%TO.P,S34,1*%
%TO.N,GP3*%
X154536065Y-230042201D03*
%TO.P,S34,2*%
%TO.N,keysNextToBig_bottom*%
X161880787Y-219105372D03*
%TD*%
D30*
%TO.P,S6,1*%
%TO.N,GP1*%
X49370872Y-140407423D03*
%TO.P,S6,2*%
%TO.N,pinky_bottom*%
X62511063Y-139461763D03*
%TD*%
D42*
%TO.P,_6,1*%
%TO.N,N/C*%
X89808442Y-179191307D03*
X90505461Y-178138231D03*
X90060209Y-180428811D03*
X91742965Y-177886464D03*
D43*
X91428125Y-179506147D03*
D42*
X91113285Y-181125830D03*
X92796041Y-178583483D03*
X92350789Y-180874063D03*
X93047808Y-179820987D03*
%TD*%
D30*
%TO.P,S3,1*%
%TO.N,GP0*%
X30424524Y-97780682D03*
%TO.P,S3,2*%
%TO.N,mods_top*%
X43564715Y-96835022D03*
%TD*%
D42*
%TO.P,_2,1*%
%TO.N,N/C*%
X50724313Y-70591939D03*
X51061796Y-71808861D03*
X51346178Y-69492803D03*
X52563100Y-69155320D03*
D43*
X52362016Y-70793023D03*
D42*
X52160932Y-72430726D03*
X53377854Y-72093243D03*
X53662236Y-69777185D03*
X53999719Y-70994107D03*
%TD*%
D30*
%TO.P,S10,1*%
%TO.N,GP1*%
X59607904Y-57033506D03*
%TO.P,S10,2*%
%TO.N,pinky_function*%
X72748095Y-56087846D03*
%TD*%
D22*
%TO.P,D16,1*%
%TO.N,GP13*%
X93984821Y-146385521D03*
D23*
X96105138Y-146797660D03*
%TO.P,D16,2*%
%TO.N,middle_bottom*%
X99344504Y-147427340D03*
D12*
X101464821Y-147839479D03*
%TD*%
D29*
%TO.P,S40,1*%
%TO.N,GP0*%
X368912000Y-79656631D03*
%TO.P,S40,2*%
%TO.N,mirror_mods_number*%
X381433092Y-75560160D03*
%TD*%
D45*
%TO.P,D48,1*%
%TO.N,GP19*%
X332182374Y-127169111D03*
D46*
X334315777Y-126831225D03*
%TO.P,D48,2*%
%TO.N,mirror_ring_home*%
X337575151Y-126314993D03*
D12*
X339708554Y-125977107D03*
%TD*%
D47*
%TO.P,D66,1*%
%TO.N,GP22*%
X252883564Y-80016084D03*
D48*
X254969965Y-79457031D03*
%TO.P,D66,2*%
%TO.N,mirror_inner_function*%
X258157519Y-78602929D03*
D12*
X260243920Y-78043876D03*
%TD*%
D40*
%TO.P,S17,1*%
%TO.N,GP3*%
X96024840Y-118726562D03*
%TO.P,S17,2*%
%TO.N,middle_home*%
X109198990Y-118699815D03*
%TD*%
D21*
%TO.P,S14,1*%
%TO.N,GP2*%
X80331938Y-78510037D03*
%TO.P,S14,2*%
%TO.N,ring_number*%
X93497135Y-78023535D03*
%TD*%
%TO.P,S13,1*%
%TO.N,GP2*%
X77203293Y-98263829D03*
%TO.P,S13,2*%
%TO.N,ring_top*%
X90368490Y-97777327D03*
%TD*%
D36*
%TO.P,D59,1*%
%TO.N,GP20*%
X285436669Y-115419508D03*
D37*
X287541306Y-114933612D03*
%TO.P,D59,2*%
%TO.N,mirror_index_top*%
X290756728Y-114191276D03*
D12*
X292861365Y-113705380D03*
%TD*%
D40*
%TO.P,S20,1*%
%TO.N,GP3*%
X108236646Y-55902445D03*
%TO.P,S20,2*%
%TO.N,middle_function*%
X121410796Y-55875698D03*
%TD*%
D24*
%TO.P,D56,1*%
%TO.N,GP22*%
X298345539Y-65382756D03*
D25*
X300465852Y-64970617D03*
%TO.P,D56,2*%
%TO.N,mirror_middle_function*%
X303705224Y-64340949D03*
D12*
X305825537Y-63928810D03*
%TD*%
D38*
%TO.P,S71,1*%
%TO.N,GP4*%
X237493936Y-206233903D03*
%TO.P,S71,2*%
%TO.N,mirror_keysNextToBigPart2_bottom*%
X248430765Y-213578625D03*
%TD*%
D41*
%TO.P,S36,1*%
%TO.N,GP5*%
X182113228Y-202465034D03*
%TO.P,S36,2*%
%TO.N,keysNextToBigPart3_bottom*%
X189457950Y-191528205D03*
%TD*%
D24*
%TO.P,D54,1*%
%TO.N,GP20*%
X306741115Y-108574346D03*
D25*
X308861428Y-108162207D03*
%TO.P,D54,2*%
%TO.N,mirror_middle_top*%
X312100800Y-107532539D03*
D12*
X314221113Y-107120400D03*
%TD*%
D10*
%TO.P,D33,1*%
%TO.N,GP14*%
X175618453Y-191338692D03*
D11*
X177145800Y-189811338D03*
%TO.P,D33,2*%
%TO.N,right_middle*%
X179479252Y-187477884D03*
D12*
X181006599Y-185950530D03*
%TD*%
D39*
%TO.P,S61,1*%
%TO.N,GP4*%
X270651643Y-65937176D03*
%TO.P,S61,2*%
%TO.N,mirror_index_function*%
X282675935Y-60554334D03*
%TD*%
D49*
%TO.P,D23,1*%
%TO.N,GP11*%
X122976965Y-113705372D03*
D50*
X125081600Y-114191264D03*
%TO.P,D23,2*%
%TO.N,index_top*%
X128297038Y-114933612D03*
D12*
X130401673Y-115419504D03*
%TD*%
D41*
%TO.P,S33,1*%
%TO.N,GP2*%
X167971101Y-188322917D03*
%TO.P,S33,2*%
%TO.N,right_middle*%
X175315823Y-177386088D03*
%TD*%
D22*
%TO.P,D17,1*%
%TO.N,GP12*%
X97801032Y-126752958D03*
D23*
X99921349Y-127165097D03*
%TO.P,D17,2*%
%TO.N,middle_home*%
X103160715Y-127794777D03*
D12*
X105281032Y-128206916D03*
%TD*%
D38*
%TO.P,S68,1*%
%TO.N,GP1*%
X272849259Y-185020718D03*
%TO.P,S68,2*%
%TO.N,mirror_left_top*%
X283786088Y-192365440D03*
%TD*%
D31*
%TO.P,D26,1*%
%TO.N,GP13*%
X133853628Y-159181640D03*
D32*
X135940028Y-159740679D03*
%TO.P,D26,2*%
%TO.N,inner_bottom*%
X139127578Y-160594801D03*
D12*
X141213978Y-161153840D03*
%TD*%
D13*
%TO.P,S55,1*%
%TO.N,GP3*%
X298271401Y-82165273D03*
%TO.P,S55,2*%
%TO.N,mirror_middle_number*%
X310476233Y-77205348D03*
%TD*%
D45*
%TO.P,D50,1*%
%TO.N,GP21*%
X325925008Y-87661603D03*
D46*
X328058411Y-87323717D03*
%TO.P,D50,2*%
%TO.N,mirror_ring_number*%
X331317785Y-86807485D03*
D12*
X333451188Y-86469599D03*
%TD*%
D24*
%TO.P,D53,1*%
%TO.N,GP19*%
X310557253Y-128206901D03*
D25*
X312677566Y-127794762D03*
%TO.P,D53,2*%
%TO.N,mirror_middle_home*%
X315916938Y-127165094D03*
D12*
X318037251Y-126752955D03*
%TD*%
D29*
%TO.P,S44,1*%
%TO.N,GP1*%
X347528297Y-102432446D03*
%TO.P,S44,2*%
%TO.N,mirror_pinky_top*%
X360049389Y-98335975D03*
%TD*%
D10*
%TO.P,D32,1*%
%TO.N,GP13*%
X140616680Y-198056222D03*
D11*
X142144027Y-196528868D03*
%TO.P,D32,2*%
%TO.N,left_top*%
X144477479Y-194195414D03*
D12*
X146004826Y-192668060D03*
%TD*%
D47*
%TO.P,D64,1*%
%TO.N,GP20*%
X264271534Y-122516761D03*
D48*
X266357935Y-121957708D03*
%TO.P,D64,2*%
%TO.N,mirror_inner_top*%
X269545489Y-121103606D03*
D12*
X271631890Y-120544553D03*
%TD*%
D36*
%TO.P,D57,1*%
%TO.N,GP18*%
X294434673Y-154394277D03*
D37*
X296539310Y-153908381D03*
%TO.P,D57,2*%
%TO.N,mirror_index_bottom*%
X299754732Y-153166045D03*
D12*
X301859369Y-152680149D03*
%TD*%
D19*
%TO.P,D13,1*%
%TO.N,GP11*%
X79258424Y-106223345D03*
D20*
X81391836Y-106561240D03*
%TO.P,D13,2*%
%TO.N,ring_top*%
X84651196Y-107077478D03*
D12*
X86784608Y-107415373D03*
%TD*%
D33*
%TO.P,D44,1*%
%TO.N,GP20*%
X351697775Y-109517111D03*
D34*
X353841668Y-109253868D03*
%TO.P,D44,2*%
%TO.N,mirror_pinky_top*%
X357117088Y-108851702D03*
D12*
X359260981Y-108588459D03*
%TD*%
D49*
%TO.P,D25,1*%
%TO.N,GP9*%
X132874787Y-70833088D03*
D50*
X134979422Y-71318980D03*
%TO.P,D25,2*%
%TO.N,index_function*%
X138194860Y-72061328D03*
D12*
X140299495Y-72547220D03*
%TD*%
D38*
%TO.P,S70,1*%
%TO.N,GP3*%
X251282516Y-220022491D03*
%TO.P,S70,2*%
%TO.N,mirror_keysNextToBig_bottom*%
X262219345Y-227367213D03*
%TD*%
D26*
%TO.P,S26,1*%
%TO.N,GP5*%
X132641731Y-151050898D03*
%TO.P,S26,2*%
%TO.N,inner_bottom*%
X145785649Y-151943205D03*
%TD*%
D14*
%TO.P,S64,1*%
%TO.N,GP5*%
X259156665Y-116081353D03*
%TO.P,S64,2*%
%TO.N,mirror_inner_top*%
X270985787Y-110282139D03*
%TD*%
D42*
%TO.P,_5,1*%
%TO.N,N/C*%
X268110280Y-81446376D03*
X268843625Y-82474487D03*
X268318712Y-80200842D03*
X269346823Y-79467497D03*
D43*
X269717991Y-81075208D03*
D42*
X270089159Y-82682919D03*
X271117270Y-81949574D03*
X270592357Y-79675929D03*
X271325702Y-80704040D03*
%TD*%
D10*
%TO.P,D35,1*%
%TO.N,GP15*%
X175972037Y-219269402D03*
D11*
X177499384Y-217742048D03*
%TO.P,D35,2*%
%TO.N,keysNextToBigPart2_bottom*%
X179832836Y-215408594D03*
D12*
X181360183Y-213881240D03*
%TD*%
D17*
%TO.P,D7,1*%
%TO.N,GP12*%
X54139941Y-128439395D03*
D18*
X56283839Y-128702629D03*
%TO.P,D7,2*%
%TO.N,pinky_home*%
X59559245Y-129104797D03*
D12*
X61703143Y-129368031D03*
%TD*%
D30*
%TO.P,S4,1*%
%TO.N,GP0*%
X32861944Y-77929762D03*
%TO.P,S4,2*%
%TO.N,mods_number*%
X46002135Y-76984102D03*
%TD*%
D41*
%TO.P,S31,1*%
%TO.N,GP1*%
X147111468Y-209182574D03*
%TO.P,S31,2*%
%TO.N,left_middle*%
X154456190Y-198245745D03*
%TD*%
D17*
%TO.P,D9,1*%
%TO.N,GP10*%
X59014707Y-88737566D03*
D18*
X61158605Y-89000800D03*
%TO.P,D9,2*%
%TO.N,pinky_number*%
X64434011Y-89402968D03*
D12*
X66577909Y-89666202D03*
%TD*%
D42*
%TO.P,_7,1*%
%TO.N,N/C*%
X322790496Y-179820983D03*
X323042271Y-178583482D03*
X323487515Y-180874060D03*
X324095348Y-177886463D03*
D43*
X324410182Y-179506149D03*
D42*
X324725016Y-181125835D03*
X325332849Y-178138238D03*
X325778093Y-180428816D03*
X326029868Y-179191315D03*
%TD*%
D30*
%TO.P,S8,1*%
%TO.N,GP1*%
X54245614Y-100705571D03*
%TO.P,S8,2*%
%TO.N,pinky_top*%
X67385805Y-99759911D03*
%TD*%
D33*
%TO.P,D46,1*%
%TO.N,GP22*%
X346335480Y-65845098D03*
D34*
X348479373Y-65581855D03*
%TO.P,D46,2*%
%TO.N,mirror_pinky_function*%
X351754793Y-65179689D03*
D12*
X353898686Y-64916446D03*
%TD*%
D39*
%TO.P,S60,1*%
%TO.N,GP4*%
X276050437Y-89322073D03*
%TO.P,S60,2*%
%TO.N,mirror_index_number*%
X288074729Y-83939231D03*
%TD*%
D17*
%TO.P,D5,1*%
%TO.N,GP9*%
X38118460Y-61991564D03*
D18*
X40262358Y-62254798D03*
%TO.P,D5,2*%
%TO.N,mods_function*%
X43537764Y-62656966D03*
D12*
X45681662Y-62920200D03*
%TD*%
D17*
%TO.P,D6,1*%
%TO.N,GP13*%
X51702545Y-148290324D03*
D18*
X53846443Y-148553558D03*
%TO.P,D6,2*%
%TO.N,pinky_bottom*%
X57121849Y-148955726D03*
D12*
X59265747Y-149218960D03*
%TD*%
D40*
%TO.P,S18,1*%
%TO.N,GP3*%
X99841060Y-99094013D03*
%TO.P,S18,2*%
%TO.N,middle_top*%
X113015210Y-99067266D03*
%TD*%
D45*
%TO.P,D47,1*%
%TO.N,GP18*%
X335311056Y-146922877D03*
D46*
X337444459Y-146584991D03*
%TO.P,D47,2*%
%TO.N,mirror_ring_bottom*%
X340703833Y-146068759D03*
D12*
X342837236Y-145730873D03*
%TD*%
D29*
%TO.P,S37,1*%
%TO.N,GP0*%
X376224141Y-139209413D03*
%TO.P,S37,2*%
%TO.N,mirror_mods_bottom*%
X388745233Y-135112942D03*
%TD*%
D30*
%TO.P,S1,1*%
%TO.N,GP0*%
X25549800Y-137482533D03*
%TO.P,S1,2*%
%TO.N,mods_bottom*%
X38689991Y-136536873D03*
%TD*%
D17*
%TO.P,D3,1*%
%TO.N,GP11*%
X32756238Y-105663626D03*
D18*
X34900136Y-105926860D03*
%TO.P,D3,2*%
%TO.N,mods_top*%
X38175542Y-106329028D03*
D12*
X40319440Y-106592262D03*
%TD*%
D19*
%TO.P,D14,1*%
%TO.N,GP10*%
X82387141Y-86469571D03*
D20*
X84520553Y-86807466D03*
%TO.P,D14,2*%
%TO.N,ring_number*%
X87779913Y-87323704D03*
D12*
X89913325Y-87661599D03*
%TD*%
D15*
%TO.P,D70,1*%
%TO.N,GP16*%
X248266688Y-227669847D03*
D16*
X249794042Y-229197194D03*
%TO.P,D70,2*%
%TO.N,mirror_keysNextToBig_bottom*%
X252127496Y-231530646D03*
D12*
X253654850Y-233057993D03*
%TD*%
D49*
%TO.P,D24,1*%
%TO.N,GP10*%
X127475966Y-94217974D03*
D50*
X129580601Y-94703866D03*
%TO.P,D24,2*%
%TO.N,index_number*%
X132796039Y-95446214D03*
D12*
X134900674Y-95932106D03*
%TD*%
D49*
%TO.P,D21,1*%
%TO.N,GP13*%
X113978861Y-152680159D03*
D50*
X116083496Y-153166051D03*
%TO.P,D21,2*%
%TO.N,index_bottom*%
X119298934Y-153908399D03*
D12*
X121403569Y-154394291D03*
%TD*%
D22*
%TO.P,D20,1*%
%TO.N,GP9*%
X110012793Y-63928795D03*
D23*
X112133110Y-64340934D03*
%TO.P,D20,2*%
%TO.N,middle_function*%
X115372476Y-64970614D03*
D12*
X117492793Y-65382753D03*
%TD*%
D29*
%TO.P,S41,1*%
%TO.N,GP0*%
X365987136Y-55835535D03*
%TO.P,S41,2*%
%TO.N,mirror_mods_function*%
X378508228Y-51739064D03*
%TD*%
D42*
%TO.P,_10,1*%
%TO.N,N/C*%
X196769122Y-226828436D03*
X197252404Y-227995160D03*
X197252403Y-225661707D03*
X198419127Y-225178425D03*
D43*
X198419130Y-226828433D03*
D42*
X198419133Y-228478441D03*
X199585857Y-227995159D03*
X199585856Y-225661706D03*
X200069138Y-226828430D03*
%TD*%
D47*
%TO.P,D65,1*%
%TO.N,GP21*%
X259095138Y-103198289D03*
D48*
X261181539Y-102639236D03*
%TO.P,D65,2*%
%TO.N,mirror_inner_number*%
X264369093Y-101785134D03*
D12*
X266455494Y-101226081D03*
%TD*%
D44*
%TO.P,S21,1*%
%TO.N,GP4*%
X112483980Y-144596733D03*
%TO.P,S21,2*%
%TO.N,index_bottom*%
X125651041Y-145029768D03*
%TD*%
D30*
%TO.P,S9,1*%
%TO.N,GP1*%
X56683021Y-80854624D03*
%TO.P,S9,2*%
%TO.N,pinky_number*%
X69823212Y-79908964D03*
%TD*%
D22*
%TO.P,D19,1*%
%TO.N,GP10*%
X105433376Y-87487842D03*
D23*
X107553693Y-87899981D03*
%TO.P,D19,2*%
%TO.N,middle_number*%
X110793059Y-88529661D03*
D12*
X112913376Y-88941800D03*
%TD*%
D35*
%TO.P,S48,1*%
%TO.N,GP2*%
X327768192Y-120234261D03*
%TO.P,S48,2*%
%TO.N,mirror_ring_home*%
X340138684Y-115703302D03*
%TD*%
D51*
%TO.N,GP2*%
X66773440Y-161025458D03*
X159294947Y-179651622D03*
%TO.N,GP1*%
X293093364Y-181177929D03*
X356860979Y-168579020D03*
%TO.N,GP2*%
X267370123Y-172527219D03*
X334551584Y-159672206D03*
%TD*%
D52*
%TO.N,GP1*%
X195409043Y-130127991D02*
X199029141Y-133748106D01*
%TO.N,GP0*%
X116346982Y-48220828D02*
X171404128Y-65053491D01*
%TO.N,GP1*%
X171125702Y-65681291D02*
X171110705Y-65737173D01*
X163443725Y-121846718D02*
X195409032Y-121846715D01*
X163280709Y-121683687D02*
X163443725Y-121846718D01*
X103604958Y-48502378D02*
X116397164Y-48949088D01*
X173242466Y-69429468D02*
X173232141Y-69468032D01*
%TO.N,GP0*%
X36917988Y-44895761D02*
X36947078Y-44873013D01*
X171404128Y-65053491D02*
X173459808Y-66853274D01*
X35786772Y-54108675D02*
X36917988Y-44895761D01*
%TO.N,GP1*%
X160521523Y-116904652D02*
X163280709Y-121683687D01*
X173232141Y-69468032D02*
X160521523Y-116904652D01*
X116397164Y-48949088D02*
X171125702Y-65681291D01*
X171110705Y-65737173D02*
X173242466Y-69429468D01*
X195409032Y-121846715D02*
X195409043Y-130127991D01*
%TO.N,GP0*%
X173459808Y-66853274D02*
X173730452Y-69428714D01*
X114348181Y-48151030D02*
X116346982Y-48220828D01*
%TO.N,GP2*%
X70945903Y-137771388D02*
X67326457Y-160623665D01*
X67326457Y-160623665D02*
X66773440Y-161025458D01*
X167971100Y-188322913D02*
X159299811Y-179651626D01*
X159299811Y-179651626D02*
X159294947Y-179651622D01*
%TO.N,GP1*%
X292987180Y-181106303D02*
X293093364Y-181177929D01*
X272849265Y-185020716D02*
X292987180Y-181106303D01*
X357390699Y-167793680D02*
X352403012Y-142134285D01*
X356860979Y-168579020D02*
X357390699Y-167793680D01*
%TO.N,GP2*%
X330896863Y-139988017D02*
X334684718Y-159474836D01*
X334684718Y-159474836D02*
X334551584Y-159672206D01*
X237847454Y-178303214D02*
X267341121Y-172570223D01*
X267341121Y-172570223D02*
X267370123Y-172527219D01*
%TO.N,GP3*%
X259493987Y-220022491D02*
X314257015Y-165259452D01*
X309719941Y-141062904D02*
X314386081Y-165068108D01*
X314386081Y-165068108D02*
X314257015Y-165259452D01*
X251282514Y-220022484D02*
X259493987Y-220022491D01*
%TO.N,GP4*%
X289547491Y-147784279D02*
X289547489Y-154180345D01*
X289547489Y-154180345D02*
X237493943Y-206233908D01*
%TO.N,GP5*%
X223705341Y-192445329D02*
X223705343Y-190182567D01*
X223705343Y-190182567D02*
X259169538Y-154718380D01*
X259169538Y-154718380D02*
X269509423Y-154718379D01*
X192435481Y-124264794D02*
X192435479Y-139854445D01*
X192435479Y-139854445D02*
X199029140Y-146448098D01*
X162378998Y-124264791D02*
X192435481Y-124264794D01*
X142994474Y-112413870D02*
X149081418Y-108899574D01*
X149081418Y-108899574D02*
X159340804Y-111648565D01*
X157994942Y-116671379D02*
X162378998Y-124264791D01*
X159340804Y-111648565D02*
X157994942Y-116671379D01*
%TO.N,GP4*%
X193179162Y-123612331D02*
X193179162Y-138058135D01*
X193179162Y-138058135D02*
X199029149Y-143908101D01*
X162634399Y-123612327D02*
X193179162Y-123612331D01*
X171173281Y-69678321D02*
X158595954Y-116617551D01*
X158595954Y-116617551D02*
X162634399Y-123612327D01*
X131379921Y-62749623D02*
X133463997Y-55932923D01*
X133463997Y-55932923D02*
X133564321Y-55879583D01*
X169712634Y-66931222D02*
X171173281Y-69678321D01*
X133564321Y-55879583D02*
X169712634Y-66931222D01*
%TO.N,GP3*%
X162944211Y-123026419D02*
X194016722Y-123026417D01*
X194042853Y-123052548D02*
X194042847Y-136381833D01*
X194016722Y-123026417D02*
X194042853Y-123052548D01*
X194042847Y-136381833D02*
X199029136Y-141368115D01*
X171766883Y-69604356D02*
X159193295Y-116529649D01*
X159193295Y-116529649D02*
X162944211Y-123026419D01*
X116734077Y-50243544D02*
X170156973Y-66576561D01*
X170156973Y-66576561D02*
X171766883Y-69604356D01*
X108236646Y-55902447D02*
X108555145Y-49825294D01*
X108555145Y-49825294D02*
X108545318Y-49814380D01*
X108545318Y-49814380D02*
X116734077Y-50243544D01*
%TO.N,GP5*%
X203429711Y-123744542D02*
X203429716Y-142047547D01*
X203429716Y-142047547D02*
X199029144Y-146448106D01*
X254732322Y-123744540D02*
X203429711Y-123744542D01*
X259156665Y-116081364D02*
X254732322Y-123744540D01*
%TO.N,GP4*%
X202898540Y-122518558D02*
X202898531Y-140038704D01*
X202898531Y-140038704D02*
X199029150Y-143908103D01*
X253371419Y-122518546D02*
X202898540Y-122518558D01*
X244205442Y-69389570D02*
X256834211Y-116520792D01*
X256834211Y-116520792D02*
X253371419Y-122518546D01*
X270651633Y-65937169D02*
X268976168Y-60457004D01*
X268976168Y-60457004D02*
X268851307Y-60390611D01*
X268851307Y-60390611D02*
X245134938Y-67641428D01*
X245134938Y-67641428D02*
X244205442Y-69389570D01*
%TO.N,GP3*%
X202272831Y-121939648D02*
X202272840Y-138124411D01*
X202272840Y-138124411D02*
X199029145Y-141368111D01*
X253101356Y-121939650D02*
X202272831Y-121939648D01*
X243627657Y-69314396D02*
X256261793Y-116465618D01*
X256261793Y-116465618D02*
X253101356Y-121939650D01*
X293692011Y-58606221D02*
X291882343Y-52687083D01*
X244822749Y-67066768D02*
X243627657Y-69314396D01*
X291882343Y-52687083D02*
X291872938Y-52682083D01*
X291872938Y-52682083D02*
X244822749Y-67066768D01*
%TO.N,GP2*%
X317756392Y-57022243D02*
X317473083Y-48909708D01*
X299394602Y-49841244D02*
X244435936Y-66643769D01*
X317473083Y-48909708D02*
X317369671Y-48813279D01*
X317369671Y-48813279D02*
X306576246Y-49190199D01*
X306576246Y-49190199D02*
X306190450Y-49603910D01*
X306190450Y-49603910D02*
X299394602Y-49841244D01*
X243074399Y-69204424D02*
X255706596Y-116348311D01*
X252838601Y-121315787D02*
X201620914Y-121315801D01*
X201620914Y-121315801D02*
X201620919Y-136236323D01*
X244435936Y-66643769D02*
X243074399Y-69204424D01*
X201620919Y-136236323D02*
X199029140Y-138828095D01*
X163241688Y-122516118D02*
X194856375Y-122516105D01*
X194895451Y-134694416D02*
X199029154Y-138828101D01*
X194856375Y-122516105D02*
X194895452Y-122477014D01*
X194895452Y-122477014D02*
X194895451Y-134694416D01*
X116474324Y-49547211D02*
X170728758Y-66134462D01*
X101083693Y-49009757D02*
X116474324Y-49547211D01*
X170728758Y-66134462D02*
X172483926Y-69435449D01*
X172483926Y-69435449D02*
X159839819Y-116623881D01*
X159839819Y-116623881D02*
X163241688Y-122516118D01*
%TO.N,GP1*%
X252554373Y-120751217D02*
X201173716Y-120751232D01*
X201173716Y-120751232D02*
X201170925Y-120754039D01*
X201170925Y-120754039D02*
X201170891Y-131606355D01*
X201170891Y-131606355D02*
X199029145Y-133748108D01*
X252695799Y-120506277D02*
X252554373Y-120751217D01*
X299253179Y-49245681D02*
X244126589Y-66099571D01*
X244126589Y-66099571D02*
X242505475Y-69148450D01*
X340809837Y-47714886D02*
X340799205Y-47409864D01*
X340813867Y-47394119D02*
X306234958Y-48601639D01*
X305849170Y-49015358D02*
X299253179Y-49245681D01*
X340799205Y-47409864D02*
X340813867Y-47394119D01*
X306234958Y-48601639D02*
X305849170Y-49015358D01*
X342166050Y-58760374D02*
X340809837Y-47714886D01*
%TO.N,GP0*%
X200609045Y-120246708D02*
X252321116Y-120246703D01*
X241813739Y-69029000D02*
X243740526Y-65691730D01*
X306083067Y-48013309D02*
X364447482Y-45975191D01*
X252321116Y-120246703D02*
X254517954Y-116441680D01*
X254517954Y-116441680D02*
X241813739Y-69029000D01*
X305619674Y-48510227D02*
X306083067Y-48013309D01*
X243740526Y-65691730D02*
X299206207Y-48734186D01*
X299206207Y-48734186D02*
X305619674Y-48510227D01*
X364447482Y-45975191D02*
X365683039Y-47127341D01*
X365683039Y-47127341D02*
X365987147Y-55835519D01*
X197314428Y-121025938D02*
X197314424Y-129493358D01*
X197314424Y-129493358D02*
X199029156Y-131208090D01*
X163557401Y-121025908D02*
X197314428Y-121025938D01*
X161062764Y-116705119D02*
X163557401Y-121025908D01*
X173730452Y-69428714D02*
X161062764Y-116705119D01*
%TO.N,GP1*%
X132969317Y-195040403D02*
X66615957Y-177261070D01*
X66615957Y-177261070D02*
X48092649Y-145177796D01*
X48092649Y-145177796D02*
X49370883Y-140407374D01*
%TO.N,GP3*%
X154536054Y-230042174D02*
X149258345Y-224844868D01*
X162634435Y-211243393D02*
X168013169Y-205851778D01*
X149258345Y-224844868D02*
X162634435Y-211243393D01*
X124752832Y-161752550D02*
X91524986Y-152849160D01*
X89340103Y-149064858D02*
X92208693Y-138359128D01*
X91524986Y-152849160D02*
X89340103Y-149064858D01*
%TO.N,GP4*%
X112483972Y-144596728D02*
X109505089Y-156838687D01*
X109505089Y-156838687D02*
X147755741Y-167087936D01*
X147755741Y-167087936D02*
X170383146Y-206279753D01*
X170383146Y-206279753D02*
X167905295Y-215527269D01*
X167905295Y-215527269D02*
X168324654Y-216253585D01*
%TO.N,GP5*%
X149597744Y-167115639D02*
X129761391Y-161800488D01*
X167791089Y-198627449D02*
X149597744Y-167115639D01*
X182113213Y-202465041D02*
X167791089Y-198627449D01*
X129761391Y-161800488D02*
X132641728Y-151050938D01*
%TO.N,GP0*%
X25549786Y-137482529D02*
X24792325Y-138648890D01*
%TO.N,GP1*%
X272849278Y-185020726D02*
X258707125Y-199162808D01*
X258707125Y-199162808D02*
X258707132Y-199162817D01*
X132969313Y-195040381D02*
X147111446Y-209182560D01*
X147111446Y-209182560D02*
X147111431Y-209182565D01*
%TO.N,GP0*%
X368912013Y-79656651D02*
X365987177Y-55835541D01*
X365987177Y-55835541D02*
X365987143Y-55835512D01*
X368912013Y-79656651D02*
X371349409Y-99507560D01*
X371349409Y-99507560D02*
X371349383Y-99507566D01*
X373786775Y-119358510D02*
X371349383Y-99507566D01*
X376224178Y-139209415D02*
X373786753Y-119358503D01*
X373786753Y-119358503D02*
X373786775Y-119358510D01*
%TO.N,GP1*%
X352403018Y-142134286D02*
X349965647Y-122283361D01*
X349965647Y-122283361D02*
X349965641Y-122283345D01*
X349965641Y-122283345D02*
X347528275Y-102432453D01*
X347528275Y-102432453D02*
X347528277Y-102432433D01*
X345090882Y-82581537D02*
X347528277Y-102432425D01*
X347528277Y-102432425D02*
X347528277Y-102432433D01*
X342166055Y-58760413D02*
X345090908Y-82581517D01*
X345090908Y-82581517D02*
X345090882Y-82581537D01*
%TO.N,GP2*%
X321510823Y-80726749D02*
X317756400Y-57022241D01*
X317756400Y-57022241D02*
X317756373Y-57022244D01*
X324639470Y-100480514D02*
X321510800Y-80726783D01*
X321510800Y-80726783D02*
X321510823Y-80726749D01*
X327768177Y-120234271D02*
X324639461Y-100480512D01*
X324639461Y-100480512D02*
X324639470Y-100480514D01*
X330896838Y-139988014D02*
X327768196Y-120234267D01*
X327768196Y-120234267D02*
X327768177Y-120234271D01*
%TO.N,GP3*%
X305903769Y-121430361D02*
X309719954Y-141062890D01*
X309719954Y-141062890D02*
X309719943Y-141062883D01*
X305903769Y-121430361D02*
X302087579Y-101797816D01*
X302087579Y-101797816D02*
X302087576Y-101797765D01*
X302087576Y-101797765D02*
X298271398Y-82165301D01*
X298271398Y-82165301D02*
X298271408Y-82165263D01*
X293692002Y-58606183D02*
X298271431Y-82165249D01*
X298271431Y-82165249D02*
X298271408Y-82165263D01*
%TO.N,GP4*%
X276050434Y-89322064D02*
X271222734Y-68411019D01*
X271222734Y-68411019D02*
X271222735Y-68411010D01*
X271222735Y-68411010D02*
X270651616Y-65937187D01*
X280549439Y-108809464D02*
X276050400Y-89322071D01*
X276050400Y-89322071D02*
X276050434Y-89322064D01*
X285048439Y-128296855D02*
X284847433Y-127426097D01*
X284847433Y-127426097D02*
X284847427Y-127426079D01*
X284847427Y-127426079D02*
X280549439Y-108809464D01*
X289547521Y-147784244D02*
X285048479Y-128296904D01*
X285048479Y-128296904D02*
X285048439Y-128296855D01*
%TO.N,GP5*%
X269509439Y-154718371D02*
X264333070Y-135399892D01*
X264333070Y-135399892D02*
X264333046Y-135399861D01*
X264333046Y-135399861D02*
X259156638Y-116081347D01*
X259156638Y-116081347D02*
X259156646Y-116081323D01*
X253980226Y-96762844D02*
X259156655Y-116081329D01*
X259156655Y-116081329D02*
X259156646Y-116081323D01*
X247768634Y-73580628D02*
X253980274Y-96762844D01*
X253980274Y-96762844D02*
X253980226Y-96762844D01*
X148170849Y-93095370D02*
X154382493Y-69913182D01*
X154382493Y-69913182D02*
X154382492Y-69913174D01*
X142994469Y-112413858D02*
X148170837Y-93095360D01*
X148170837Y-93095360D02*
X148170849Y-93095370D01*
X142994469Y-112413858D02*
X137818090Y-131732378D01*
X137818090Y-131732378D02*
X137818079Y-131732374D01*
X132641702Y-151050916D02*
X137818076Y-131732406D01*
X137818076Y-131732406D02*
X137818079Y-131732374D01*
%TO.N,GP4*%
X116983008Y-125109302D02*
X112483959Y-144596733D01*
X112483959Y-144596733D02*
X112483958Y-144596736D01*
X121482050Y-105621911D02*
X121240345Y-106668773D01*
X121240345Y-106668773D02*
X121240312Y-106668816D01*
X121240312Y-106668816D02*
X116983008Y-125109302D01*
X125981043Y-86134532D02*
X121482028Y-105621898D01*
X121482028Y-105621898D02*
X121482050Y-105621911D01*
X131379870Y-62749622D02*
X125981068Y-86134523D01*
X125981068Y-86134523D02*
X125981043Y-86134532D01*
%TO.N,GP3*%
X108236676Y-55902405D02*
X103657245Y-79461477D01*
X103657245Y-79461477D02*
X103657225Y-79461480D01*
X99841060Y-99094050D02*
X103120799Y-82221140D01*
X103120799Y-82221140D02*
X103120798Y-82221101D01*
X103120798Y-82221101D02*
X103657225Y-79461480D01*
X96024911Y-118726564D02*
X99841056Y-99094060D01*
X99841056Y-99094060D02*
X99841060Y-99094050D01*
X92208720Y-138359122D02*
X96024869Y-118726568D01*
X96024869Y-118726568D02*
X96024911Y-118726564D01*
%TO.N,GP2*%
X70945929Y-137771335D02*
X74074598Y-118017611D01*
X74074598Y-118017611D02*
X74074615Y-118017609D01*
X74074615Y-118017609D02*
X77203258Y-98263817D01*
X77203258Y-98263817D02*
X77203287Y-98263798D01*
X77203287Y-98263798D02*
X80331922Y-78510066D01*
X80331922Y-78510066D02*
X80331978Y-78510044D01*
X84086388Y-54805563D02*
X80331978Y-78510032D01*
X80331978Y-78510032D02*
X80331978Y-78510044D01*
%TO.N,GP1*%
X59607906Y-57033502D02*
X56683020Y-80854614D01*
X56683020Y-80854614D02*
X56683027Y-80854611D01*
X54245629Y-100705544D02*
X55917839Y-87086548D01*
X55917839Y-87086548D02*
X55917852Y-87086500D01*
X55917852Y-87086500D02*
X56683027Y-80854611D01*
X54245629Y-100705544D02*
X51808252Y-120556455D01*
X51808252Y-120556455D02*
X51808268Y-120556462D01*
X49370880Y-140407369D02*
X51808278Y-120556442D01*
X51808278Y-120556442D02*
X51808268Y-120556462D01*
%TO.N,GP0*%
X25549769Y-137482517D02*
X27987142Y-117631612D01*
X27987142Y-117631612D02*
X27987129Y-117631591D01*
X30424553Y-97780672D02*
X27987109Y-117631595D01*
X27987109Y-117631595D02*
X27987129Y-117631591D01*
X30424553Y-97780672D02*
X32861906Y-77929733D01*
X32861906Y-77929733D02*
X32861928Y-77929767D01*
X35786806Y-54108633D02*
X32861929Y-77929759D01*
X32861929Y-77929759D02*
X32861928Y-77929767D01*
%TO.N,mirror_keysNextToBig_bottom*%
X262219342Y-227367207D02*
X262219313Y-228023320D01*
X257184566Y-233058007D02*
X253654851Y-233057989D01*
X262219313Y-228023320D02*
X257184566Y-233058007D01*
%TO.N,mirror_left_top*%
X283786091Y-192365422D02*
X283786081Y-193021494D01*
X283786081Y-193021494D02*
X278751340Y-198056240D01*
X278751340Y-198056240D02*
X275221619Y-198056219D01*
%TO.N,mirror_left_middle*%
X269643943Y-206507536D02*
X269643956Y-207163597D01*
X269643956Y-207163597D02*
X264609194Y-212198364D01*
X264609194Y-212198364D02*
X261079495Y-212198369D01*
%TO.N,mirror_keysNextToBigPart2_bottom*%
X248430748Y-213578639D02*
X248430740Y-214234685D01*
X248430740Y-214234685D02*
X243395985Y-219269427D01*
X243395985Y-219269427D02*
X239866279Y-219269419D01*
%TO.N,mirror_right_middle*%
X248784291Y-185647893D02*
X248784274Y-186303977D01*
X248784274Y-186303977D02*
X243749564Y-191338727D01*
X243749564Y-191338727D02*
X240219853Y-191338692D01*
%TO.N,mirror_keysNextToBigPart3_bottom*%
X234642190Y-199790027D02*
X234642166Y-200446093D01*
X234642166Y-200446093D02*
X229607465Y-205480865D01*
X229607465Y-205480865D02*
X226077691Y-205480819D01*
%TO.N,right_middle*%
X175315823Y-177386068D02*
X175971884Y-177386086D01*
X175971884Y-177386086D02*
X181006621Y-182420796D01*
X181006621Y-182420796D02*
X181006603Y-185950532D01*
%TO.N,keysNextToBigPart3_bottom*%
X189457962Y-191528195D02*
X190114021Y-191528192D01*
X190114021Y-191528192D02*
X195148761Y-196562952D01*
X195148761Y-196562952D02*
X195148777Y-200092657D01*
%TO.N,keysNextToBigPart2_bottom*%
X175669379Y-205316783D02*
X176325422Y-205316802D01*
X176325422Y-205316802D02*
X181360188Y-210351559D01*
X181360188Y-210351559D02*
X181360183Y-213881272D01*
%TO.N,keysNextToBig_bottom*%
X161880784Y-219105347D02*
X162536867Y-219105381D01*
X167571589Y-224140116D02*
X167571579Y-227669862D01*
X162536867Y-219105381D02*
X167571589Y-224140116D01*
%TO.N,left_middle*%
X154456179Y-198245748D02*
X155112230Y-198245705D01*
X160146950Y-203280473D02*
X160146987Y-206810190D01*
X155112230Y-198245705D02*
X160146950Y-203280473D01*
%TO.N,left_top*%
X140314017Y-184103587D02*
X140970112Y-184103603D01*
X140970112Y-184103603D02*
X146004826Y-189138349D01*
X146004826Y-189138349D02*
X146004836Y-192668080D01*
%TO.N,inner_bottom*%
X145785651Y-151943227D02*
X146113676Y-152511404D01*
X146113676Y-152511404D02*
X144270833Y-159388972D01*
X144270833Y-159388972D02*
X141213954Y-161153859D01*
%TO.N,inner_home*%
X150962013Y-132624707D02*
X151290026Y-133192879D01*
X151290026Y-133192879D02*
X149447165Y-140070448D01*
X149447165Y-140070448D02*
X146390358Y-141835317D01*
%TO.N,inner_top*%
X156138380Y-113306152D02*
X156466428Y-113874361D01*
X154623580Y-120751940D02*
X151566745Y-122516805D01*
X156466428Y-113874361D02*
X154623580Y-120751940D01*
%TO.N,inner_number*%
X161314734Y-93987673D02*
X161642776Y-94555841D01*
X161642776Y-94555841D02*
X159799965Y-101433406D01*
X159799965Y-101433406D02*
X156743099Y-103198240D01*
%TO.N,inner_function*%
X167526458Y-70805452D02*
X167854451Y-71373631D01*
X167854451Y-71373631D02*
X166011597Y-78251194D01*
X166011597Y-78251194D02*
X162954769Y-80016039D01*
%TO.N,mirror_mods_function*%
X378508198Y-51739089D02*
X379025193Y-52143002D01*
X379025193Y-52143002D02*
X379892904Y-59210074D01*
X379892904Y-59210074D02*
X377719772Y-61991568D01*
%TO.N,mirror_mods_number*%
X381433096Y-75560174D02*
X381950084Y-75964079D01*
X381950084Y-75964079D02*
X382817830Y-83031203D01*
X382817830Y-83031203D02*
X380644664Y-85812667D01*
%TO.N,mirror_mods_top*%
X383870477Y-95411136D02*
X384387419Y-95814990D01*
X384387419Y-95814990D02*
X385255182Y-102882124D01*
X385255182Y-102882124D02*
X383082083Y-105663606D01*
%TO.N,mirror_mods_home*%
X386307868Y-115262034D02*
X386824834Y-115665916D01*
X386824834Y-115665916D02*
X387692565Y-122733026D01*
X387692565Y-122733026D02*
X385519466Y-125514504D01*
%TO.N,mirror_mods_bottom*%
X388745265Y-135112956D02*
X389262208Y-135516845D01*
X389262208Y-135516845D02*
X390129949Y-142583981D01*
X390129949Y-142583981D02*
X387956835Y-145365444D01*
%TO.N,mirror_pinky_bottom*%
X364924143Y-138037807D02*
X365441091Y-138441715D01*
X365441091Y-138441715D02*
X366308836Y-145508885D01*
X366308836Y-145508885D02*
X364135715Y-148290300D01*
%TO.N,mirror_pinky_home*%
X362486760Y-118186858D02*
X363003728Y-118590794D01*
X363871473Y-125657926D02*
X361698342Y-128439378D01*
X363003728Y-118590794D02*
X363871473Y-125657926D01*
%TO.N,mirror_pinky_top*%
X360049371Y-98335981D02*
X360566335Y-98739883D01*
X360566335Y-98739883D02*
X361434105Y-105806981D01*
X361434105Y-105806981D02*
X359260933Y-108588459D01*
%TO.N,mirror_pinky_number*%
X357612002Y-78485058D02*
X358128955Y-78888971D01*
X358128955Y-78888971D02*
X358996694Y-85956035D01*
X358996694Y-85956035D02*
X356823579Y-88737508D01*
%TO.N,mirror_pinky_function*%
X354687144Y-54663941D02*
X355204124Y-55067834D01*
X355204124Y-55067834D02*
X356071845Y-62134962D01*
X356071845Y-62134962D02*
X353898698Y-64916416D01*
%TO.N,mirror_ring_function*%
X330126877Y-52491245D02*
X330657635Y-52876888D01*
X331771484Y-59909415D02*
X329696736Y-62765005D01*
X330657635Y-52876888D02*
X331771484Y-59909415D01*
%TO.N,mirror_ring_number*%
X333881299Y-76195759D02*
X334412061Y-76581392D01*
X334412061Y-76581392D02*
X335525897Y-83613942D01*
X335525897Y-83613942D02*
X333451140Y-86469564D01*
%TO.N,mirror_ring_top*%
X337010030Y-95949578D02*
X337540753Y-96335186D01*
X337540753Y-96335186D02*
X338654576Y-103367661D01*
X338654576Y-103367661D02*
X336579847Y-106223315D01*
%TO.N,mirror_ring_home*%
X340138677Y-115703319D02*
X340669416Y-116088951D01*
X341783286Y-123121500D02*
X339708574Y-125977112D01*
X340669416Y-116088951D02*
X341783286Y-123121500D01*
%TO.N,mirror_ring_bottom*%
X343267374Y-135457079D02*
X343798123Y-135842654D01*
X343798123Y-135842654D02*
X344911976Y-142875220D01*
X344911976Y-142875220D02*
X342837261Y-145730841D01*
%TO.N,mirror_middle_bottom*%
X321924792Y-136102980D02*
X322468689Y-136469836D01*
X322468689Y-136469836D02*
X323827268Y-143459155D01*
X323827268Y-143459155D02*
X321853441Y-146385498D01*
%TO.N,mirror_middle_home*%
X318108587Y-116470442D02*
X318652468Y-116837318D01*
X320011118Y-123826682D02*
X318037299Y-126752969D01*
X318652468Y-116837318D02*
X320011118Y-123826682D01*
%TO.N,mirror_middle_top*%
X314292405Y-96837878D02*
X314836326Y-97204706D01*
X314836326Y-97204706D02*
X316194915Y-104194146D01*
X316194915Y-104194146D02*
X314221112Y-107120423D01*
%TO.N,mirror_middle_number*%
X310476266Y-77205348D02*
X311020128Y-77572211D01*
X311020128Y-77572211D02*
X312378702Y-84561591D01*
X312378702Y-84561591D02*
X310404943Y-87487864D01*
%TO.N,mirror_middle_function*%
X305896844Y-53646273D02*
X306440692Y-54013137D01*
X306440692Y-54013137D02*
X307799322Y-61002492D01*
X307799322Y-61002492D02*
X305825507Y-63928804D01*
%TO.N,mirror_index_function*%
X282675916Y-60554342D02*
X283232285Y-60902017D01*
X284833985Y-67839690D02*
X282963510Y-70833084D01*
X283232285Y-60902017D02*
X284833985Y-67839690D01*
%TO.N,mirror_index_number*%
X288074740Y-83939226D02*
X288631112Y-84286894D01*
X288631112Y-84286894D02*
X290232802Y-91224574D01*
X290232802Y-91224574D02*
X288362315Y-94217971D01*
%TO.N,mirror_index_top*%
X292573752Y-103426620D02*
X293130133Y-103774284D01*
X293130133Y-103774284D02*
X294731795Y-110711995D01*
X294731795Y-110711995D02*
X292861359Y-113705349D01*
%TO.N,mirror_index_home*%
X297072775Y-122914037D02*
X297629103Y-123261696D01*
X297629103Y-123261696D02*
X299230840Y-130199403D01*
X299230840Y-130199403D02*
X297360345Y-133192784D01*
%TO.N,mirror_index_bottom*%
X301571809Y-142401404D02*
X302128192Y-142749042D01*
X302128192Y-142749042D02*
X303729901Y-149686758D01*
X303729901Y-149686758D02*
X301859354Y-152680186D01*
%TO.N,mirror_inner_bottom*%
X281338558Y-148919165D02*
X281906752Y-149247207D01*
X281906752Y-149247207D02*
X283749545Y-156124766D01*
X283749545Y-156124766D02*
X281984682Y-159181584D01*
%TO.N,mirror_inner_home*%
X276162177Y-129600648D02*
X276730310Y-129928680D01*
X276730310Y-129928680D02*
X278573175Y-136806228D01*
X278573175Y-136806228D02*
X276808322Y-139863138D01*
%TO.N,mirror_inner_top*%
X270985782Y-110282174D02*
X271553934Y-110610164D01*
X271553934Y-110610164D02*
X273396788Y-117487738D01*
X273396788Y-117487738D02*
X271631906Y-120544569D01*
%TO.N,mirror_inner_number*%
X265809391Y-90963638D02*
X266377562Y-91291667D01*
X266377562Y-91291667D02*
X268220394Y-98169214D01*
X268220394Y-98169214D02*
X266455521Y-101226080D01*
%TO.N,mirror_inner_function*%
X259597796Y-67781422D02*
X260165921Y-68109463D01*
X260165921Y-68109463D02*
X262008763Y-74987021D01*
X262008763Y-74987021D02*
X260243884Y-78043866D01*
%TO.N,index_bottom*%
X125651011Y-145029765D02*
X125998672Y-145586117D01*
X125998672Y-145586117D02*
X124396987Y-152523798D01*
X124396987Y-152523798D02*
X121403602Y-154394272D01*
%TO.N,index_home*%
X130150041Y-125542346D02*
X130497710Y-126098724D01*
X130497710Y-126098724D02*
X128895986Y-133036447D01*
X128895986Y-133036447D02*
X125902592Y-134906912D01*
%TO.N,index_top*%
X134649087Y-106054974D02*
X134996723Y-106611342D01*
X133395036Y-113549001D02*
X130401654Y-115419497D01*
X134996723Y-106611342D02*
X133395036Y-113549001D01*
%TO.N,index_number*%
X139148113Y-86567559D02*
X139495754Y-87123908D01*
X137894072Y-94061590D02*
X134900675Y-95932141D01*
X139495754Y-87123908D02*
X137894072Y-94061590D01*
%TO.N,index_function*%
X144546910Y-63182673D02*
X144894578Y-63739014D01*
X144894578Y-63739014D02*
X143292898Y-70676760D01*
X143292898Y-70676760D02*
X140299498Y-72547234D01*
%TO.N,middle_function*%
X121410829Y-55875713D02*
X121777666Y-56419560D01*
X121777666Y-56419560D02*
X120419073Y-63408957D01*
X120419073Y-63408957D02*
X117492783Y-65382733D01*
%TO.N,middle_number*%
X116831361Y-79434751D02*
X117198213Y-79978639D01*
X117198213Y-79978639D02*
X115839626Y-86968040D01*
X115839626Y-86968040D02*
X112913364Y-88941817D01*
%TO.N,middle_top*%
X113015224Y-99067285D02*
X113382089Y-99611186D01*
X112023443Y-106600556D02*
X109097186Y-108574353D01*
X113382089Y-99611186D02*
X112023443Y-106600556D01*
%TO.N,middle_home*%
X109199057Y-118699811D02*
X109565867Y-119243705D01*
X109565867Y-119243705D02*
X108207263Y-126233104D01*
X108207263Y-126233104D02*
X105281018Y-128206899D01*
%TO.N,middle_bottom*%
X105382869Y-138332379D02*
X105749674Y-138876262D01*
X105749674Y-138876262D02*
X104391119Y-145865656D01*
X104391119Y-145865656D02*
X101464824Y-147839429D01*
%TO.N,ring_bottom*%
X84111081Y-137284877D02*
X84496721Y-137815618D01*
X84496721Y-137815618D02*
X83382876Y-144848149D01*
X83382876Y-144848149D02*
X80527216Y-146922902D01*
%TO.N,ring_home*%
X87239764Y-117531043D02*
X87625391Y-118061820D01*
X87625391Y-118061820D02*
X86511542Y-125094411D01*
X86511542Y-125094411D02*
X83655926Y-127169121D01*
%TO.N,ring_top*%
X90368470Y-97777348D02*
X90754067Y-98308100D01*
X90754067Y-98308100D02*
X89640238Y-105340606D01*
X89640238Y-105340606D02*
X86784631Y-107415369D01*
%TO.N,ring_number*%
X93497119Y-78023558D02*
X93882755Y-78554330D01*
X93882755Y-78554330D02*
X92768914Y-85586853D01*
X92768914Y-85586853D02*
X89913315Y-87661585D01*
%TO.N,ring_function*%
X97251575Y-54319044D02*
X97637216Y-54849831D01*
X97637216Y-54849831D02*
X96523352Y-61882348D01*
X96523352Y-61882348D02*
X93667756Y-63957050D01*
%TO.N,pinky_function*%
X72748081Y-56087864D02*
X73152008Y-56604845D01*
X73152008Y-56604845D02*
X72284293Y-63671953D01*
X72284293Y-63671953D02*
X69502788Y-65845071D01*
%TO.N,pinky_number*%
X69823223Y-79908971D02*
X70227112Y-80425971D01*
X70227112Y-80425971D02*
X69359407Y-87493071D01*
X69359407Y-87493071D02*
X66577928Y-89666182D01*
%TO.N,pinky_top*%
X67385820Y-99759865D02*
X67789733Y-100276901D01*
X66921999Y-107344003D02*
X64140559Y-109517102D01*
X67789733Y-100276901D02*
X66921999Y-107344003D01*
%TO.N,pinky_home*%
X64948444Y-119610827D02*
X65352339Y-120127767D01*
X65352339Y-120127767D02*
X64484605Y-127194929D01*
X64484605Y-127194929D02*
X61703148Y-129368069D01*
%TO.N,pinky_bottom*%
X62511047Y-139461772D02*
X62914954Y-139978725D01*
X62914954Y-139978725D02*
X62047205Y-147045819D01*
X62047205Y-147045819D02*
X59265732Y-149218965D01*
%TO.N,mods_bottom*%
X38689955Y-136536867D02*
X39093890Y-137053850D01*
X39093890Y-137053850D02*
X38226142Y-144120998D01*
X38226142Y-144120998D02*
X35444628Y-146294088D01*
%TO.N,mods_home*%
X41127326Y-116685971D02*
X41531216Y-117202938D01*
X41531216Y-117202938D02*
X40663479Y-124270055D01*
X40663479Y-124270055D02*
X37882037Y-126443130D01*
%TO.N,mods_top*%
X43564719Y-96835003D02*
X43968641Y-97351990D01*
X43968641Y-97351990D02*
X43100876Y-104419147D01*
X43100876Y-104419147D02*
X40319417Y-106592262D01*
%TO.N,mods_number*%
X46002111Y-76984079D02*
X46405990Y-77501077D01*
X46405990Y-77501077D02*
X45538296Y-84568243D01*
X45538296Y-84568243D02*
X42756817Y-86741327D01*
%TO.N,mods_function*%
X48926983Y-53162979D02*
X49330914Y-53679981D01*
X49330914Y-53679981D02*
X48463194Y-60747075D01*
X48463194Y-60747075D02*
X45681692Y-62920253D01*
%TO.N,GP18*%
X382537525Y-146030827D02*
X380393638Y-146294095D01*
X380393638Y-146294095D02*
X380393621Y-146294105D01*
%TO.N,mirror_mods_bottom*%
X387956859Y-145365440D02*
X385812940Y-145628705D01*
X385812940Y-145628705D02*
X385812938Y-145628686D01*
%TO.N,mirror_mods_home*%
X383375526Y-125777766D02*
X385519468Y-125514510D01*
X385519468Y-125514510D02*
X385519463Y-125514527D01*
%TO.N,GP19*%
X377956267Y-126443145D02*
X380100151Y-126179889D01*
X380100151Y-126179889D02*
X380100143Y-126179928D01*
%TO.N,GP20*%
X377662757Y-106329025D02*
X375518886Y-106592233D01*
X375518886Y-106592233D02*
X375518900Y-106592267D01*
%TO.N,mirror_mods_top*%
X383082092Y-105663625D02*
X380938156Y-105926836D01*
X380938156Y-105926836D02*
X380938158Y-105926832D01*
%TO.N,mirror_mods_number*%
X378500781Y-86075951D02*
X380644686Y-85812670D01*
X380644686Y-85812670D02*
X380644657Y-85812672D01*
%TO.N,GP21*%
X373081453Y-86741318D02*
X375225391Y-86478056D01*
X375225391Y-86478056D02*
X375225387Y-86478071D01*
%TO.N,GP22*%
X372300528Y-62656992D02*
X370156612Y-62920207D01*
X370156612Y-62920207D02*
X370156618Y-62920208D01*
%TO.N,mirror_mods_function*%
X377719776Y-61991565D02*
X375575900Y-62254808D01*
X375575900Y-62254808D02*
X375575924Y-62254783D01*
%TO.N,mirror_pinky_function*%
X351754805Y-65179679D02*
X353898699Y-64916456D01*
X353898699Y-64916456D02*
X353898698Y-64916439D01*
%TO.N,GP22*%
X346335520Y-65845097D02*
X348479402Y-65581862D01*
X348479402Y-65581862D02*
X348479416Y-65581844D01*
%TO.N,GP21*%
X351404266Y-89402915D02*
X349260356Y-89666190D01*
X349260356Y-89666190D02*
X349260354Y-89666184D01*
%TO.N,mirror_pinky_number*%
X356823579Y-88737508D02*
X354679678Y-89000786D01*
X354679678Y-89000786D02*
X354679673Y-89000761D01*
%TO.N,mirror_pinky_top*%
X357117067Y-108851658D02*
X359260966Y-108588472D01*
X359260966Y-108588472D02*
X359260967Y-108588470D01*
%TO.N,GP20*%
X351697752Y-109517105D02*
X353841672Y-109253878D01*
X353841672Y-109253878D02*
X353841677Y-109253874D01*
%TO.N,mirror_pinky_home*%
X359554443Y-128702653D02*
X361698323Y-128439406D01*
X361698323Y-128439406D02*
X361698325Y-128439407D01*
%TO.N,GP19*%
X354135142Y-129368049D02*
X356279056Y-129104818D01*
X356279056Y-129104818D02*
X356279060Y-129104819D01*
%TO.N,mirror_pinky_bottom*%
X361991834Y-148553577D02*
X364135737Y-148290308D01*
X364135737Y-148290308D02*
X364135711Y-148290299D01*
%TO.N,GP18*%
X356572516Y-149218963D02*
X358716435Y-148955720D01*
X358716435Y-148955720D02*
X358716422Y-148955729D01*
X337444453Y-146584988D02*
X335311066Y-146922905D01*
X335311066Y-146922905D02*
X335311059Y-146922890D01*
%TO.N,mirror_ring_bottom*%
X342837246Y-145730811D02*
X340703817Y-146068739D01*
X340703817Y-146068739D02*
X340703817Y-146068740D01*
%TO.N,mirror_ring_home*%
X337575149Y-126314976D02*
X339708574Y-125977112D01*
X339708574Y-125977112D02*
X339708569Y-125977095D01*
%TO.N,GP19*%
X334315762Y-126831231D02*
X332182405Y-127169123D01*
X332182405Y-127169123D02*
X332182400Y-127169125D01*
%TO.N,GP20*%
X331187080Y-107077482D02*
X329053658Y-107415349D01*
X329053658Y-107415349D02*
X329053697Y-107415330D01*
%TO.N,mirror_ring_top*%
X336579867Y-106223337D02*
X334446471Y-106561247D01*
X334446471Y-106561247D02*
X334446441Y-106561214D01*
%TO.N,mirror_ring_number*%
X331317780Y-86807486D02*
X333451152Y-86469579D01*
X333451152Y-86469579D02*
X333451177Y-86469560D01*
%TO.N,GP21*%
X328058360Y-87323685D02*
X325924987Y-87661594D01*
X325924987Y-87661594D02*
X325924992Y-87661616D01*
%TO.N,GP22*%
X324303968Y-63619175D02*
X322170587Y-63957031D01*
X322170587Y-63957031D02*
X322170571Y-63957016D01*
%TO.N,mirror_ring_function*%
X327563346Y-63102933D02*
X329696708Y-62765027D01*
X329696708Y-62765027D02*
X329696734Y-62765006D01*
%TO.N,mirror_middle_function*%
X303705220Y-64340958D02*
X305825489Y-63928823D01*
X305825489Y-63928823D02*
X305825527Y-63928820D01*
%TO.N,GP22*%
X298345487Y-65382763D02*
X300465832Y-64970630D01*
X300465832Y-64970630D02*
X300465833Y-64970626D01*
%TO.N,GP21*%
X305045245Y-88529683D02*
X302924977Y-88941838D01*
X302924977Y-88941838D02*
X302924933Y-88941826D01*
%TO.N,mirror_middle_number*%
X310404945Y-87487865D02*
X308284642Y-87900047D01*
X308284642Y-87900047D02*
X308284624Y-87899993D01*
%TO.N,GP20*%
X308861448Y-108162227D02*
X306741139Y-108574347D01*
X306741139Y-108574347D02*
X306741124Y-108574335D01*
%TO.N,mirror_middle_top*%
X314221114Y-107120430D02*
X312100817Y-107532539D01*
X312100817Y-107532539D02*
X312100790Y-107532539D01*
%TO.N,mirror_middle_home*%
X315916974Y-127165103D02*
X318037285Y-126752941D01*
X318037285Y-126752941D02*
X318037310Y-126752950D01*
%TO.N,GP19*%
X312677576Y-127794793D02*
X310557281Y-128206930D01*
X310557281Y-128206930D02*
X310557270Y-128206929D01*
%TO.N,GP18*%
X316493776Y-147427321D02*
X314373469Y-147839454D01*
X314373469Y-147839454D02*
X314373461Y-147839451D01*
%TO.N,mirror_middle_bottom*%
X321853479Y-146385482D02*
X319733175Y-146797626D01*
X319733175Y-146797626D02*
X319733175Y-146797619D01*
%TO.N,mirror_index_bottom*%
X299754730Y-153166086D02*
X301859354Y-152680186D01*
%TO.N,GP18*%
X296539292Y-153908442D02*
X294434685Y-154394311D01*
%TO.N,GP19*%
X292040298Y-134421013D02*
X289935663Y-134906895D01*
%TO.N,mirror_index_home*%
X297360350Y-133192781D02*
X295255727Y-133678654D01*
%TO.N,mirror_index_top*%
X290756718Y-114191257D02*
X292861344Y-113705374D01*
%TO.N,GP20*%
X287541312Y-114933582D02*
X285436667Y-115419526D01*
%TO.N,GP21*%
X283042261Y-95446201D02*
X280937598Y-95932104D01*
%TO.N,mirror_index_number*%
X288362322Y-94217995D02*
X286257684Y-94703849D01*
%TO.N,mirror_index_function*%
X280858876Y-71318996D02*
X282963507Y-70833073D01*
%TO.N,GP22*%
X277643452Y-72061287D02*
X275538791Y-72547237D01*
%TO.N,mirror_inner_bottom*%
X279898290Y-159740696D02*
X281984664Y-159181608D01*
X281984664Y-159181608D02*
X281984692Y-159181590D01*
%TO.N,GP18*%
X274624337Y-161153875D02*
X276710726Y-160594782D01*
X276710726Y-160594782D02*
X276710734Y-160594800D01*
%TO.N,mirror_inner_home*%
X274721917Y-140422166D02*
X276808317Y-139863116D01*
X276808317Y-139863116D02*
X276808322Y-139863110D01*
%TO.N,GP19*%
X269447974Y-141835305D02*
X271534339Y-141276274D01*
X271534339Y-141276274D02*
X271534340Y-141276278D01*
%TO.N,mirror_inner_top*%
X269545518Y-121103643D02*
X271631900Y-120544549D01*
X271631900Y-120544549D02*
X271631908Y-120544563D01*
%TO.N,GP20*%
X264271536Y-122516804D02*
X266357954Y-121957723D01*
X266357954Y-121957723D02*
X266357968Y-121957716D01*
%TO.N,GP21*%
X261181568Y-102639241D02*
X259095169Y-103198278D01*
X259095169Y-103198278D02*
X259095159Y-103198285D01*
%TO.N,mirror_inner_number*%
X266455514Y-101226084D02*
X264369122Y-101785105D01*
X264369122Y-101785105D02*
X264369138Y-101785114D01*
%TO.N,mirror_inner_function*%
X260243888Y-78043882D02*
X258157482Y-78602891D01*
X258157482Y-78602891D02*
X258157498Y-78602902D01*
%TO.N,GP22*%
X254969925Y-79457018D02*
X252883552Y-80016045D01*
X252883552Y-80016045D02*
X252883555Y-80016055D01*
%TO.N,mods_bottom*%
X35444641Y-146294093D02*
X33300748Y-146030879D01*
%TO.N,mods_home*%
X35738142Y-126179936D02*
X37882049Y-126443152D01*
%TO.N,mods_top*%
X38175556Y-106329001D02*
X40319426Y-106592269D01*
%TO.N,mods_number*%
X40612897Y-86478055D02*
X42756820Y-86741323D01*
%TO.N,mods_function*%
X43537782Y-62656976D02*
X45681676Y-62920226D01*
%TO.N,pinky_bottom*%
X57121841Y-148955712D02*
X59265733Y-149218961D01*
%TO.N,pinky_home*%
X61703152Y-129368083D02*
X59559241Y-129104833D01*
%TO.N,pinky_top*%
X64140559Y-109517102D02*
X61996649Y-109253869D01*
%TO.N,pinky_number*%
X66577959Y-89666200D02*
X64434014Y-89402910D01*
%TO.N,pinky_function*%
X67358872Y-65581842D02*
X69502782Y-65845070D01*
X67358872Y-65581842D02*
X67375764Y-65443938D01*
X67375764Y-65443938D02*
X67319260Y-65371543D01*
%TO.N,ring_bottom*%
X78393832Y-146585006D02*
X78393849Y-146584997D01*
X80527226Y-146922902D02*
X78393832Y-146585006D01*
%TO.N,ring_home*%
X81522522Y-126831243D02*
X83655935Y-127169108D01*
X83655935Y-127169108D02*
X83655930Y-127169123D01*
%TO.N,ring_top*%
X84651210Y-107077458D02*
X86784629Y-107415367D01*
X86784629Y-107415367D02*
X86784617Y-107415382D01*
%TO.N,ring_number*%
X89913317Y-87661584D02*
X87779891Y-87323728D01*
X87779891Y-87323728D02*
X87779882Y-87323736D01*
%TO.N,ring_function*%
X93602113Y-63873062D02*
X93667720Y-63957069D01*
X91534346Y-63619190D02*
X91534339Y-63619185D01*
X93667727Y-63957064D02*
X91534346Y-63619190D01*
%TO.N,middle_bottom*%
X101464828Y-147839419D02*
X101464818Y-147839418D01*
X99344499Y-147427297D02*
X101464828Y-147839419D01*
%TO.N,middle_home*%
X103160693Y-127794728D02*
X103160682Y-127794758D01*
X105281002Y-128206920D02*
X103160693Y-127794728D01*
%TO.N,middle_top*%
X109097171Y-108574372D02*
X106976878Y-108162235D01*
X106976878Y-108162235D02*
X106976875Y-108162240D01*
%TO.N,middle_number*%
X110793041Y-88529658D02*
X112913379Y-88941839D01*
X112913379Y-88941839D02*
X112913356Y-88941818D01*
%TO.N,middle_function*%
X115372469Y-64970592D02*
X117492761Y-65382762D01*
X117492761Y-65382762D02*
X117492752Y-65382782D01*
%TO.N,index_bottom*%
X121403599Y-154394291D02*
X119298983Y-153908416D01*
X119298983Y-153908416D02*
X119298981Y-153908405D01*
%TO.N,index_home*%
X123797993Y-134421042D02*
X125902616Y-134906875D01*
X125902616Y-134906875D02*
X125902595Y-134906908D01*
%TO.N,index_top*%
X130401652Y-115419509D02*
X130401662Y-115419474D01*
X128296991Y-114933598D02*
X130401652Y-115419509D01*
%TO.N,index_number*%
X132796011Y-95446217D02*
X132796014Y-95446216D01*
X134900652Y-95932097D02*
X132796011Y-95446217D01*
%TO.N,index_function*%
X140299484Y-72547200D02*
X138194857Y-72061314D01*
X138194857Y-72061314D02*
X138194867Y-72061329D01*
%TO.N,inner_bottom*%
X139127569Y-160594792D02*
X139127576Y-160594791D01*
X141213957Y-161153857D02*
X139127569Y-160594792D01*
%TO.N,inner_home*%
X146390324Y-141835317D02*
X144303957Y-141276260D01*
X144303957Y-141276260D02*
X144303964Y-141276271D01*
%TO.N,inner_top*%
X151566742Y-122516802D02*
X149480334Y-121957737D01*
X149480334Y-121957737D02*
X149480348Y-121957762D01*
%TO.N,inner_number*%
X154656691Y-102639258D02*
X156743142Y-103198287D01*
X156743142Y-103198287D02*
X156743101Y-103198239D01*
%TO.N,inner_function*%
X162954764Y-80016042D02*
X162954756Y-80016031D01*
X160868358Y-79457049D02*
X162954764Y-80016042D01*
%TO.N,left_middle*%
X160146953Y-206810209D02*
X158619619Y-208337553D01*
X158619619Y-208337553D02*
X158619608Y-208337563D01*
%TO.N,left_top*%
X144477499Y-194195412D02*
X146004835Y-192668108D01*
X146004835Y-192668108D02*
X146004852Y-192668064D01*
%TO.N,right_middle*%
X179479263Y-187477908D02*
X181006623Y-185950587D01*
X181006623Y-185950587D02*
X181006632Y-185950584D01*
%TO.N,keysNextToBig_bottom*%
X166044231Y-229197189D02*
X166044295Y-229197212D01*
X167571595Y-227669864D02*
X166044231Y-229197189D01*
%TO.N,keysNextToBigPart2_bottom*%
X181360187Y-213881272D02*
X179832848Y-215408594D01*
X179832848Y-215408594D02*
X179832848Y-215408608D01*
%TO.N,keysNextToBigPart3_bottom*%
X195148745Y-200092680D02*
X193621425Y-201619997D01*
X193621425Y-201619997D02*
X193621432Y-201620004D01*
%TO.N,mirror_left_middle*%
X261079473Y-212198308D02*
X259552127Y-210671032D01*
%TO.N,mirror_left_top*%
X275221604Y-198056233D02*
X273694258Y-196528842D01*
%TO.N,mirror_right_middle*%
X238692484Y-189811377D02*
X240219851Y-191338698D01*
%TO.N,mirror_keysNextToBig_bottom*%
X252127505Y-231530667D02*
X253654894Y-233058015D01*
%TO.N,mirror_keysNextToBigPart2_bottom*%
X238338882Y-217742099D02*
X239866263Y-219269414D01*
%TO.N,mirror_keysNextToBigPart3_bottom*%
X224550334Y-203953495D02*
X226077671Y-205480834D01*
%TO.N,GP13*%
X133853611Y-159181641D02*
X133853571Y-159181634D01*
X142144014Y-196528882D02*
X142144036Y-196528862D01*
X96105120Y-146797630D02*
X96105153Y-146797646D01*
X51702578Y-148290331D02*
X53846484Y-148553564D01*
X140616662Y-198056241D02*
X142144014Y-196528882D01*
X113978904Y-152680132D02*
X113978892Y-152680146D01*
X116083555Y-153166054D02*
X113978904Y-152680132D01*
X73001053Y-145730886D02*
X73001045Y-145730882D01*
X135939989Y-159740680D02*
X133853611Y-159181641D01*
X75134454Y-146068763D02*
X73001053Y-145730886D01*
X93984836Y-146385510D02*
X96105120Y-146797630D01*
X30025367Y-145628693D02*
X27881438Y-145365452D01*
%TO.N,GP12*%
X120582573Y-133678653D02*
X120582550Y-133678684D01*
X99921306Y-127165104D02*
X97800967Y-126752948D01*
X76129731Y-125977076D02*
X78263168Y-126314977D01*
X97800967Y-126752948D02*
X97800963Y-126752954D01*
X141116390Y-140422180D02*
X139029976Y-139863137D01*
X118477901Y-133192787D02*
X120582573Y-133678653D01*
X78263168Y-126314977D02*
X78263156Y-126314968D01*
X56283817Y-128702647D02*
X54139925Y-128439407D01*
X139029976Y-139863137D02*
X139029983Y-139863134D01*
X32462762Y-125777748D02*
X30318820Y-125514526D01*
%TO.N,GP11*%
X122976927Y-113705397D02*
X122976944Y-113705390D01*
X103737509Y-107532561D02*
X101617194Y-107120415D01*
X146292757Y-121103633D02*
X144206376Y-120544567D01*
X101617194Y-107120415D02*
X101617177Y-107120433D01*
X79258422Y-106223329D02*
X79258414Y-106223305D01*
X144206376Y-120544567D02*
X144206407Y-120544599D01*
X125081587Y-114191280D02*
X122976927Y-113705397D01*
X81391852Y-106561198D02*
X79258422Y-106223329D01*
X58721251Y-108851684D02*
X56577319Y-108588480D01*
X34900132Y-105926835D02*
X32756191Y-105663622D01*
%TO.N,GP10*%
X149382752Y-101226078D02*
X151469170Y-101785115D01*
X129580599Y-94703861D02*
X127475965Y-94217996D01*
X151469170Y-101785115D02*
X151469160Y-101785131D01*
X84520544Y-86807445D02*
X82387124Y-86469596D01*
X61158592Y-89000770D02*
X59014710Y-88737512D01*
X107553674Y-87899988D02*
X105433364Y-87487881D01*
X105433364Y-87487881D02*
X105433356Y-87487884D01*
X82387124Y-86469596D02*
X82387111Y-86469579D01*
X127475965Y-94217996D02*
X127475950Y-94217981D01*
X37337517Y-86075962D02*
X35193626Y-85812696D01*
%TO.N,GP9*%
X112133057Y-64340959D02*
X110012794Y-63928812D01*
X86207188Y-62849048D02*
X86141548Y-62764999D01*
X64083450Y-65179671D02*
X61939566Y-64916417D01*
X110012794Y-63928812D02*
X110012779Y-63928806D01*
X155594390Y-78043893D02*
X155594392Y-78043879D01*
X134979442Y-71318947D02*
X132874783Y-70833061D01*
X88274936Y-63102912D02*
X86141600Y-62765049D01*
X86141600Y-62765049D02*
X86141588Y-62765057D01*
X132874783Y-70833061D02*
X132874772Y-70833068D01*
X157680809Y-78602896D02*
X155594390Y-78043893D01*
X40262401Y-62254820D02*
X38118452Y-61991551D01*
%TO.N,GP14*%
X154758818Y-212198347D02*
X154758823Y-212198343D01*
X175618488Y-191338684D02*
X175618448Y-191338705D01*
X177145814Y-189811380D02*
X175618488Y-191338684D01*
X156286150Y-210671017D02*
X154758818Y-212198347D01*
%TO.N,GP15*%
X162183435Y-233057991D02*
X162183434Y-233057996D01*
X189760598Y-205480836D02*
X189760622Y-205480825D01*
X177499373Y-217742048D02*
X175972022Y-219269463D01*
X191287957Y-203953469D02*
X189760598Y-205480836D01*
X175972022Y-219269463D02*
X175972014Y-219269472D01*
X163710798Y-231530644D02*
X162183435Y-233057991D01*
%TO.N,GP18*%
X271360812Y-194195406D02*
X269833445Y-192668047D01*
%TO.N,GP17*%
X257218679Y-208337536D02*
X255691315Y-206810200D01*
X236359048Y-187477910D02*
X234831695Y-185950571D01*
%TO.N,GP16*%
X220689546Y-200092677D02*
X222216868Y-201620059D01*
X236005498Y-215408608D02*
X234478116Y-213881274D01*
X248266724Y-227669867D02*
X249794097Y-229197216D01*
%TO.N,GP3*%
X168013169Y-205851778D02*
X124752832Y-161752550D01*
%TO.N,GP0*%
X199029156Y-131208090D02*
X200590268Y-129646950D01*
X200590268Y-129646950D02*
X200590276Y-120265479D01*
X200590276Y-120265479D02*
X200609045Y-120246708D01*
%TO.N,GP1*%
X255000834Y-116505266D02*
X252904230Y-120136740D01*
X255133263Y-116275951D02*
X255000834Y-116505266D01*
X242505475Y-69148450D02*
X255133263Y-116275951D01*
X252905787Y-120142573D02*
X252695799Y-120506277D01*
X252904230Y-120136740D02*
X252905787Y-120142573D01*
%TO.N,GP0*%
X101917893Y-47802030D02*
X102008850Y-47720131D01*
X102008850Y-47720131D02*
X114348181Y-48151030D01*
X81621811Y-46938631D02*
X81832004Y-46749372D01*
X61249768Y-45870977D02*
X81621811Y-46938631D01*
X60960430Y-46131499D02*
X61249768Y-45870977D01*
X81832004Y-46749372D02*
X101917893Y-47802030D01*
X101955725Y-47718276D02*
X102008850Y-47720131D01*
X36947078Y-44873013D02*
X60960430Y-46131499D01*
%TO.N,GP1*%
X98332517Y-48258148D02*
X101770936Y-48438348D01*
X60140566Y-46869708D02*
X60408996Y-46628013D01*
X97957467Y-48595845D02*
X98332517Y-48258148D01*
X60408996Y-46628013D02*
X97957467Y-48595845D01*
X59607904Y-57033507D02*
X60140566Y-46869708D01*
%TO.N,GP2*%
X84544429Y-48493721D02*
X100715571Y-49341214D01*
X100715571Y-49341214D02*
X101083693Y-49009757D01*
X84410837Y-48614008D02*
X84544429Y-48493721D01*
X84086353Y-54805534D02*
X84410837Y-48614008D01*
%TO.N,GP1*%
X101770936Y-48438348D02*
X103604958Y-48502378D01*
%TO.N,GP2*%
X255706596Y-116348311D02*
X252838601Y-121315787D01*
%TD*%
M02*
