%TF.GenerationSoftware,KiCad,Pcbnew,8.0.6*%
%TF.CreationDate,2024-12-18T16:48:01-08:00*%
%TF.ProjectId,gundamBowtie,67756e64-616d-4426-9f77-7469652e6b69,v1.0.0*%
%TF.SameCoordinates,Original*%
%TF.FileFunction,Legend,Bot*%
%TF.FilePolarity,Positive*%
%FSLAX46Y46*%
G04 Gerber Fmt 4.6, Leading zero omitted, Abs format (unit mm)*
G04 Created by KiCad (PCBNEW 8.0.6) date 2024-12-18 16:48:01*
%MOMM*%
%LPD*%
G01*
G04 APERTURE LIST*
%ADD10C,0.100000*%
G04 APERTURE END LIST*
D10*
%TO.C,D34*%
X164347185Y-230894239D02*
X164630033Y-230611387D01*
X164630033Y-230611387D02*
X164241129Y-230222485D01*
X164630033Y-230611387D02*
X164771462Y-229904298D01*
X164630033Y-230611387D02*
X165018940Y-231000307D01*
X164771462Y-229904298D02*
X165337135Y-230469977D01*
X165054302Y-230187132D02*
X165407857Y-229833575D01*
X165337135Y-230469977D02*
X164630033Y-230611387D01*
%TO.C,D71*%
X236641884Y-216045004D02*
X236924736Y-216327852D01*
X236924736Y-216327852D02*
X236535816Y-216716759D01*
X236924736Y-216327852D02*
X237313638Y-215938948D01*
X236924736Y-216327852D02*
X237631825Y-216469281D01*
X237066146Y-217034954D02*
X236924736Y-216327852D01*
X237348991Y-216752121D02*
X237702548Y-217105676D01*
X237631825Y-216469281D02*
X237066146Y-217034954D01*
%TO.C,D8*%
X59614525Y-108961386D02*
X60011542Y-109010143D01*
X60011542Y-109010143D02*
X59944511Y-109556040D01*
X60011542Y-109010143D02*
X60078566Y-108464228D01*
X60011542Y-109010143D02*
X60655810Y-108686239D01*
X60558330Y-109480274D02*
X60011542Y-109010143D01*
X60607069Y-109083253D02*
X61103341Y-109144186D01*
X60655810Y-108686239D02*
X60558330Y-109480274D01*
%TO.C,D12*%
X79152055Y-126455779D02*
X79547134Y-126518364D01*
X79547134Y-126518364D02*
X79461097Y-127061585D01*
X79547134Y-126518364D02*
X79633169Y-125975128D01*
X79547134Y-126518364D02*
X80202313Y-126217145D01*
X80077173Y-127007292D02*
X79547134Y-126518364D01*
X80139745Y-126612216D02*
X80633585Y-126690435D01*
X80202313Y-126217145D02*
X80077173Y-127007292D01*
%TO.C,D18*%
X104620978Y-107704289D02*
X105013634Y-107780621D01*
X105013634Y-107780621D02*
X104908691Y-108320516D01*
X105013634Y-107780621D02*
X105118580Y-107240708D01*
X105013634Y-107780621D02*
X105678917Y-107502454D01*
X105526285Y-108287754D02*
X105013634Y-107780621D01*
X105602618Y-107895102D02*
X106093422Y-107990513D01*
X105678917Y-107502454D02*
X105526285Y-108287754D01*
%TO.C,D55*%
X305928713Y-88357949D02*
X306321365Y-88281624D01*
X306321365Y-88281624D02*
X306216425Y-87741727D01*
X306321365Y-88281624D02*
X306426306Y-88821519D01*
X306321365Y-88281624D02*
X306834021Y-87774493D01*
X306834021Y-87774493D02*
X306986666Y-88559778D01*
X306910355Y-88167132D02*
X307401159Y-88071729D01*
X306986666Y-88559778D02*
X306321365Y-88281624D01*
%TO.C,D28*%
X147162102Y-121336565D02*
X147548468Y-121440099D01*
X147548468Y-121440099D02*
X147406121Y-121971367D01*
X147548468Y-121440099D02*
X147690831Y-120908839D01*
X147548468Y-121440099D02*
X148231553Y-121209021D01*
X148024502Y-121981763D02*
X147548468Y-121440099D01*
X148128018Y-121595391D02*
X148610992Y-121724805D01*
X148231553Y-121209021D02*
X148024502Y-121981763D01*
%TO.C,D39*%
X378556035Y-106219343D02*
X378953054Y-106170598D01*
X378953054Y-106170598D02*
X378886028Y-105624702D01*
X378953054Y-106170598D02*
X379020092Y-106716500D01*
X378953054Y-106170598D02*
X379499827Y-105700466D01*
X379499827Y-105700466D02*
X379597324Y-106494498D01*
X379548587Y-106097480D02*
X380044855Y-106036547D01*
X379597324Y-106494498D02*
X378953054Y-106170598D01*
%TO.C,D4*%
X38230792Y-86185602D02*
X38627809Y-86234359D01*
X38627809Y-86234359D02*
X38560778Y-86780256D01*
X38627809Y-86234359D02*
X38694833Y-85688444D01*
X38627809Y-86234359D02*
X39272077Y-85910455D01*
X39174597Y-86704490D02*
X38627809Y-86234359D01*
X39223336Y-86307469D02*
X39719608Y-86368402D01*
X39272077Y-85910455D02*
X39174597Y-86704490D01*
%TO.C,D36*%
X191924388Y-203317103D02*
X192207236Y-203034251D01*
X192207236Y-203034251D02*
X191818332Y-202645349D01*
X192207236Y-203034251D02*
X192348665Y-202327162D01*
X192207236Y-203034251D02*
X192596143Y-203423171D01*
X192348665Y-202327162D02*
X192914338Y-202892841D01*
X192631505Y-202609996D02*
X192985060Y-202256439D01*
X192914338Y-202892841D02*
X192207236Y-203034251D01*
%TO.C,D58*%
X292917247Y-134218560D02*
X293307001Y-134128579D01*
X293307001Y-134128579D02*
X293183284Y-133592673D01*
X293307001Y-134128579D02*
X293430717Y-134664487D01*
X293307001Y-134128579D02*
X293801640Y-133603862D01*
X293801640Y-133603862D02*
X293981602Y-134383351D01*
X293891613Y-133993606D02*
X294378813Y-133881130D01*
X293981602Y-134383351D02*
X293307001Y-134128579D01*
%TO.C,D10*%
X64976790Y-65289340D02*
X65373807Y-65338097D01*
X65373807Y-65338097D02*
X65306776Y-65883994D01*
X65373807Y-65338097D02*
X65440831Y-64792182D01*
X65373807Y-65338097D02*
X66018075Y-65014193D01*
X65920595Y-65808228D02*
X65373807Y-65338097D01*
X65969334Y-65411207D02*
X66465606Y-65472140D01*
X66018075Y-65014193D02*
X65920595Y-65808228D01*
%TO.C,D41*%
X373193796Y-62547286D02*
X373590815Y-62498541D01*
X373590815Y-62498541D02*
X373523789Y-61952645D01*
X373590815Y-62498541D02*
X373657853Y-63044443D01*
X373590815Y-62498541D02*
X374137588Y-62028409D01*
X374137588Y-62028409D02*
X374235085Y-62822441D01*
X374186348Y-62425423D02*
X374682616Y-62364490D01*
X374235085Y-62822441D02*
X373590815Y-62498541D01*
%TO.C,D42*%
X359609696Y-148846026D02*
X360006715Y-148797281D01*
X360006715Y-148797281D02*
X359939689Y-148251385D01*
X360006715Y-148797281D02*
X360073753Y-149343183D01*
X360006715Y-148797281D02*
X360553488Y-148327149D01*
X360553488Y-148327149D02*
X360650985Y-149121181D01*
X360602248Y-148724163D02*
X361098516Y-148663230D01*
X360650985Y-149121181D02*
X360006715Y-148797281D01*
%TO.C,D2*%
X33356025Y-125887449D02*
X33753042Y-125936206D01*
X33753042Y-125936206D02*
X33686011Y-126482103D01*
X33753042Y-125936206D02*
X33820066Y-125390291D01*
X33753042Y-125936206D02*
X34397310Y-125612302D01*
X34299830Y-126406337D02*
X33753042Y-125936206D01*
X34348569Y-126009316D02*
X34844841Y-126070249D01*
X34397310Y-125612302D02*
X34299830Y-126406337D01*
%TO.C,D52*%
X317377259Y-147255578D02*
X317769911Y-147179253D01*
X317769911Y-147179253D02*
X317664971Y-146639356D01*
X317769911Y-147179253D02*
X317874852Y-147719148D01*
X317769911Y-147179253D02*
X318282567Y-146672122D01*
X318282567Y-146672122D02*
X318435212Y-147457407D01*
X318358901Y-147064761D02*
X318849705Y-146969358D01*
X318435212Y-147457407D02*
X317769911Y-147179253D01*
%TO.C,D68*%
X271997200Y-194831803D02*
X272280052Y-195114651D01*
X272280052Y-195114651D02*
X271891132Y-195503558D01*
X272280052Y-195114651D02*
X272668954Y-194725747D01*
X272280052Y-195114651D02*
X272987141Y-195256080D01*
X272421462Y-195821753D02*
X272280052Y-195114651D01*
X272704307Y-195538920D02*
X273057864Y-195892475D01*
X272987141Y-195256080D02*
X272421462Y-195821753D01*
%TO.C,D30*%
X158550137Y-78835864D02*
X158936503Y-78939398D01*
X158936503Y-78939398D02*
X158794156Y-79470666D01*
X158936503Y-78939398D02*
X159078866Y-78408138D01*
X158936503Y-78939398D02*
X159619588Y-78708320D01*
X159412537Y-79481062D02*
X158936503Y-78939398D01*
X159516053Y-79094690D02*
X159999027Y-79224104D01*
X159619588Y-78708320D02*
X159412537Y-79481062D01*
%TO.C,D40*%
X376118684Y-86368380D02*
X376515703Y-86319635D01*
X376515703Y-86319635D02*
X376448677Y-85773739D01*
X376515703Y-86319635D02*
X376582741Y-86865537D01*
X376515703Y-86319635D02*
X377062476Y-85849503D01*
X377062476Y-85849503D02*
X377159973Y-86643535D01*
X377111236Y-86246517D02*
X377607504Y-86185584D01*
X377159973Y-86643535D02*
X376515703Y-86319635D01*
%TO.C,D43*%
X357172334Y-128995135D02*
X357569353Y-128946390D01*
X357569353Y-128946390D02*
X357502327Y-128400494D01*
X357569353Y-128946390D02*
X357636391Y-129492292D01*
X357569353Y-128946390D02*
X358116126Y-128476258D01*
X358116126Y-128476258D02*
X358213623Y-129270290D01*
X358164886Y-128873272D02*
X358661154Y-128812339D01*
X358213623Y-129270290D02*
X357569353Y-128946390D01*
%TO.C,D1*%
X30918632Y-145738346D02*
X31315649Y-145787103D01*
X31315649Y-145787103D02*
X31248618Y-146333000D01*
X31315649Y-145787103D02*
X31382673Y-145241188D01*
X31315649Y-145787103D02*
X31959917Y-145463199D01*
X31862437Y-146257234D02*
X31315649Y-145787103D01*
X31911176Y-145860213D02*
X32407448Y-145921146D01*
X31959917Y-145463199D02*
X31862437Y-146257234D01*
%TO.C,D45*%
X352297558Y-89293240D02*
X352694577Y-89244495D01*
X352694577Y-89244495D02*
X352627551Y-88698599D01*
X352694577Y-89244495D02*
X352761615Y-89790397D01*
X352694577Y-89244495D02*
X353241350Y-88774363D01*
X353241350Y-88774363D02*
X353338847Y-89568395D01*
X353290110Y-89171377D02*
X353786378Y-89110444D01*
X353338847Y-89568395D02*
X352694577Y-89244495D01*
%TO.C,D38*%
X380993460Y-126070240D02*
X381390479Y-126021495D01*
X381390479Y-126021495D02*
X381323453Y-125475599D01*
X381390479Y-126021495D02*
X381457517Y-126567397D01*
X381390479Y-126021495D02*
X381937252Y-125551363D01*
X381937252Y-125551363D02*
X382034749Y-126345395D01*
X381986012Y-125948377D02*
X382482280Y-125887444D01*
X382034749Y-126345395D02*
X381390479Y-126021495D01*
%TO.C,D51*%
X325192897Y-63478343D02*
X325587979Y-63415773D01*
X325587979Y-63415773D02*
X325501936Y-62872542D01*
X325587979Y-63415773D02*
X325674003Y-63959006D01*
X325587979Y-63415773D02*
X326118009Y-62926830D01*
X326118009Y-62926830D02*
X326243153Y-63716988D01*
X326180601Y-63321903D02*
X326674429Y-63243697D01*
X326243153Y-63716988D02*
X325587979Y-63415773D01*
%TO.C,D63*%
X272403693Y-141043315D02*
X272790076Y-140939797D01*
X272790076Y-140939797D02*
X272647722Y-140408523D01*
X272790076Y-140939797D02*
X272932419Y-141471055D01*
X272790076Y-140939797D02*
X273266099Y-140398129D01*
X273266099Y-140398129D02*
X273473159Y-141170866D01*
X273369625Y-140784501D02*
X273852595Y-140655093D01*
X273473159Y-141170866D02*
X272790076Y-140939797D01*
%TO.C,D22*%
X121459514Y-133881125D02*
X121849276Y-133971109D01*
X121849276Y-133971109D02*
X121725541Y-134507023D01*
X121849276Y-133971109D02*
X121973001Y-133435195D01*
X121849276Y-133971109D02*
X122523875Y-133716343D01*
X122343889Y-134495828D02*
X121849276Y-133971109D01*
X122433900Y-134106073D02*
X122921084Y-134218559D01*
X122523875Y-133716343D02*
X122343889Y-134495828D01*
%TO.C,D60*%
X283919191Y-95243753D02*
X284308945Y-95153772D01*
X284308945Y-95153772D02*
X284185228Y-94617866D01*
X284308945Y-95153772D02*
X284432661Y-95689680D01*
X284308945Y-95153772D02*
X284803584Y-94629055D01*
X284803584Y-94629055D02*
X284983546Y-95408544D01*
X284893557Y-95018799D02*
X285380757Y-94906323D01*
X284983546Y-95408544D02*
X284308945Y-95153772D01*
%TO.C,D69*%
X236995443Y-188114284D02*
X237278295Y-188397132D01*
X237278295Y-188397132D02*
X236889375Y-188786039D01*
X237278295Y-188397132D02*
X237667197Y-188008228D01*
X237278295Y-188397132D02*
X237985384Y-188538561D01*
X237419705Y-189104234D02*
X237278295Y-188397132D01*
X237702550Y-188821401D02*
X238056107Y-189174956D01*
X237985384Y-188538561D02*
X237419705Y-189104234D01*
%TO.C,D29*%
X152338443Y-102018056D02*
X152724809Y-102121590D01*
X152724809Y-102121590D02*
X152582462Y-102652858D01*
X152724809Y-102121590D02*
X152867172Y-101590330D01*
X152724809Y-102121590D02*
X153407894Y-101890512D01*
X153200843Y-102663254D02*
X152724809Y-102121590D01*
X153304359Y-102276882D02*
X153787333Y-102406296D01*
X153407894Y-101890512D02*
X153200843Y-102663254D01*
%TO.C,D67*%
X257855059Y-208973963D02*
X258137911Y-209256811D01*
X258137911Y-209256811D02*
X257748991Y-209645718D01*
X258137911Y-209256811D02*
X258526813Y-208867907D01*
X258137911Y-209256811D02*
X258845000Y-209398240D01*
X258279321Y-209963913D02*
X258137911Y-209256811D01*
X258562166Y-209681080D02*
X258915723Y-210034635D01*
X258845000Y-209398240D02*
X258279321Y-209963913D01*
%TO.C,D31*%
X156922536Y-210034619D02*
X157205384Y-209751767D01*
X157205384Y-209751767D02*
X156816480Y-209362865D01*
X157205384Y-209751767D02*
X157346813Y-209044678D01*
X157205384Y-209751767D02*
X157594291Y-210140687D01*
X157346813Y-209044678D02*
X157912486Y-209610357D01*
X157629653Y-209327512D02*
X157983208Y-208973955D01*
X157912486Y-209610357D02*
X157205384Y-209751767D01*
%TO.C,D27*%
X141985744Y-140655118D02*
X142372110Y-140758652D01*
X142372110Y-140758652D02*
X142229763Y-141289920D01*
X142372110Y-140758652D02*
X142514473Y-140227392D01*
X142372110Y-140758652D02*
X143055195Y-140527574D01*
X142848144Y-141300316D02*
X142372110Y-140758652D01*
X142951660Y-140913944D02*
X143434634Y-141043358D01*
X143055195Y-140527574D02*
X142848144Y-141300316D01*
%TO.C,D61*%
X278520374Y-71858904D02*
X278910128Y-71768923D01*
X278910128Y-71768923D02*
X278786411Y-71233017D01*
X278910128Y-71768923D02*
X279033844Y-72304831D01*
X278910128Y-71768923D02*
X279404767Y-71244206D01*
X279404767Y-71244206D02*
X279584729Y-72023695D01*
X279494740Y-71633950D02*
X279981940Y-71521474D01*
X279584729Y-72023695D02*
X278910128Y-71768923D01*
%TO.C,D11*%
X76023380Y-146209529D02*
X76418459Y-146272114D01*
X76418459Y-146272114D02*
X76332422Y-146815335D01*
X76418459Y-146272114D02*
X76504494Y-145728878D01*
X76418459Y-146272114D02*
X77073638Y-145970895D01*
X76948498Y-146761042D02*
X76418459Y-146272114D01*
X77011070Y-146365966D02*
X77504910Y-146444185D01*
X77073638Y-145970895D02*
X76948498Y-146761042D01*
%TO.C,D72*%
X222853265Y-202256435D02*
X223136117Y-202539283D01*
X223136117Y-202539283D02*
X222747197Y-202928190D01*
X223136117Y-202539283D02*
X223525019Y-202150379D01*
X223136117Y-202539283D02*
X223843206Y-202680712D01*
X223277527Y-203246385D02*
X223136117Y-202539283D01*
X223560372Y-202963552D02*
X223913929Y-203317107D01*
X223843206Y-202680712D02*
X223277527Y-203246385D01*
%TO.C,D37*%
X383430823Y-145921158D02*
X383827842Y-145872413D01*
X383827842Y-145872413D02*
X383760816Y-145326517D01*
X383827842Y-145872413D02*
X383894880Y-146418315D01*
X383827842Y-145872413D02*
X384374615Y-145402281D01*
X384374615Y-145402281D02*
X384472112Y-146196313D01*
X384423375Y-145799295D02*
X384919643Y-145738362D01*
X384472112Y-146196313D02*
X383827842Y-145872413D01*
%TO.C,D62*%
X277580034Y-160361849D02*
X277966417Y-160258331D01*
X277966417Y-160258331D02*
X277824063Y-159727057D01*
X277966417Y-160258331D02*
X278108760Y-160789589D01*
X277966417Y-160258331D02*
X278442440Y-159716663D01*
X278442440Y-159716663D02*
X278649500Y-160489400D01*
X278545966Y-160103035D02*
X279028936Y-159973627D01*
X278649500Y-160489400D02*
X277966417Y-160258331D01*
%TO.C,D49*%
X332076012Y-106936647D02*
X332471094Y-106874077D01*
X332471094Y-106874077D02*
X332385051Y-106330846D01*
X332471094Y-106874077D02*
X332557118Y-107417310D01*
X332471094Y-106874077D02*
X333001124Y-106385134D01*
X333001124Y-106385134D02*
X333126268Y-107175292D01*
X333063716Y-106780207D02*
X333557544Y-106702001D01*
X333126268Y-107175292D02*
X332471094Y-106874077D01*
%TO.C,D15*%
X89163901Y-63243730D02*
X89558980Y-63306315D01*
X89558980Y-63306315D02*
X89472943Y-63849536D01*
X89558980Y-63306315D02*
X89645015Y-62763079D01*
X89558980Y-63306315D02*
X90214159Y-63005096D01*
X90089019Y-63795243D02*
X89558980Y-63306315D01*
X90151591Y-63400167D02*
X90645431Y-63478386D01*
X90214159Y-63005096D02*
X90089019Y-63795243D01*
%TO.C,D16*%
X96988599Y-146969388D02*
X97381255Y-147045720D01*
X97381255Y-147045720D02*
X97276312Y-147585615D01*
X97381255Y-147045720D02*
X97486201Y-146505807D01*
X97381255Y-147045720D02*
X98046538Y-146767553D01*
X97893906Y-147552853D02*
X97381255Y-147045720D01*
X97970239Y-147160201D02*
X98461043Y-147255612D01*
X98046538Y-146767553D02*
X97893906Y-147552853D01*
%TO.C,D48*%
X335204698Y-126690432D02*
X335599780Y-126627862D01*
X335599780Y-126627862D02*
X335513737Y-126084631D01*
X335599780Y-126627862D02*
X335685804Y-127171095D01*
X335599780Y-126627862D02*
X336129810Y-126138919D01*
X336129810Y-126138919D02*
X336254954Y-126929077D01*
X336192402Y-126533992D02*
X336686230Y-126455786D01*
X336254954Y-126929077D02*
X335599780Y-126627862D01*
%TO.C,D66*%
X255839291Y-79224091D02*
X256225674Y-79120573D01*
X256225674Y-79120573D02*
X256083320Y-78589299D01*
X256225674Y-79120573D02*
X256368017Y-79651831D01*
X256225674Y-79120573D02*
X256701697Y-78578905D01*
X256701697Y-78578905D02*
X256908757Y-79351642D01*
X256805223Y-78965277D02*
X257288193Y-78835869D01*
X256908757Y-79351642D02*
X256225674Y-79120573D01*
%TO.C,D59*%
X288418234Y-114731159D02*
X288807988Y-114641178D01*
X288807988Y-114641178D02*
X288684271Y-114105272D01*
X288807988Y-114641178D02*
X288931704Y-115177086D01*
X288807988Y-114641178D02*
X289302627Y-114116461D01*
X289302627Y-114116461D02*
X289482589Y-114895950D01*
X289392600Y-114506205D02*
X289879800Y-114393729D01*
X289482589Y-114895950D02*
X288807988Y-114641178D01*
%TO.C,D56*%
X301349315Y-64798893D02*
X301741967Y-64722568D01*
X301741967Y-64722568D02*
X301637027Y-64182671D01*
X301741967Y-64722568D02*
X301846908Y-65262463D01*
X301741967Y-64722568D02*
X302254623Y-64215437D01*
X302254623Y-64215437D02*
X302407268Y-65000722D01*
X302330957Y-64608076D02*
X302821761Y-64512673D01*
X302407268Y-65000722D02*
X301741967Y-64722568D01*
%TO.C,D54*%
X309744891Y-107990483D02*
X310137543Y-107914158D01*
X310137543Y-107914158D02*
X310032603Y-107374261D01*
X310137543Y-107914158D02*
X310242484Y-108454053D01*
X310137543Y-107914158D02*
X310650199Y-107407027D01*
X310650199Y-107407027D02*
X310802844Y-108192312D01*
X310726533Y-107799666D02*
X311217337Y-107704263D01*
X310802844Y-108192312D02*
X310137543Y-107914158D01*
%TO.C,D33*%
X177782190Y-189174943D02*
X178065038Y-188892091D01*
X178065038Y-188892091D02*
X177676134Y-188503189D01*
X178065038Y-188892091D02*
X178206467Y-188185002D01*
X178065038Y-188892091D02*
X178453945Y-189281011D01*
X178206467Y-188185002D02*
X178772140Y-188750681D01*
X178489307Y-188467836D02*
X178842862Y-188114279D01*
X178772140Y-188750681D02*
X178065038Y-188892091D01*
%TO.C,D23*%
X125958534Y-114393721D02*
X126348296Y-114483705D01*
X126348296Y-114483705D02*
X126224561Y-115019619D01*
X126348296Y-114483705D02*
X126472021Y-113947791D01*
X126348296Y-114483705D02*
X127022895Y-114228939D01*
X126842909Y-115008424D02*
X126348296Y-114483705D01*
X126932920Y-114618669D02*
X127420104Y-114731155D01*
X127022895Y-114228939D02*
X126842909Y-115008424D01*
%TO.C,D17*%
X100804810Y-127336825D02*
X101197466Y-127413157D01*
X101197466Y-127413157D02*
X101092523Y-127953052D01*
X101197466Y-127413157D02*
X101302412Y-126873244D01*
X101197466Y-127413157D02*
X101862749Y-127134990D01*
X101710117Y-127920290D02*
X101197466Y-127413157D01*
X101786450Y-127527638D02*
X102277254Y-127623049D01*
X101862749Y-127134990D02*
X101710117Y-127920290D01*
%TO.C,D26*%
X136809358Y-159973620D02*
X137195724Y-160077154D01*
X137195724Y-160077154D02*
X137053377Y-160608422D01*
X137195724Y-160077154D02*
X137338087Y-159545894D01*
X137195724Y-160077154D02*
X137878809Y-159846076D01*
X137671758Y-160618818D02*
X137195724Y-160077154D01*
X137775274Y-160232446D02*
X138258248Y-160361860D01*
X137878809Y-159846076D02*
X137671758Y-160618818D01*
%TO.C,D50*%
X328947332Y-87182924D02*
X329342414Y-87120354D01*
X329342414Y-87120354D02*
X329256371Y-86577123D01*
X329342414Y-87120354D02*
X329428438Y-87663587D01*
X329342414Y-87120354D02*
X329872444Y-86631411D01*
X329872444Y-86631411D02*
X329997588Y-87421569D01*
X329935036Y-87026484D02*
X330428864Y-86948278D01*
X329997588Y-87421569D02*
X329342414Y-87120354D01*
%TO.C,D53*%
X313561029Y-127623038D02*
X313953681Y-127546713D01*
X313953681Y-127546713D02*
X313848741Y-127006816D01*
X313953681Y-127546713D02*
X314058622Y-128086608D01*
X313953681Y-127546713D02*
X314466337Y-127039582D01*
X314466337Y-127039582D02*
X314618982Y-127824867D01*
X314542671Y-127432221D02*
X315033475Y-127336818D01*
X314618982Y-127824867D02*
X313953681Y-127546713D01*
%TO.C,D32*%
X142780417Y-195892473D02*
X143063265Y-195609621D01*
X143063265Y-195609621D02*
X142674361Y-195220719D01*
X143063265Y-195609621D02*
X143204694Y-194902532D01*
X143063265Y-195609621D02*
X143452172Y-195998541D01*
X143204694Y-194902532D02*
X143770367Y-195468211D01*
X143487534Y-195185366D02*
X143841089Y-194831809D01*
X143770367Y-195468211D02*
X143063265Y-195609621D01*
%TO.C,D64*%
X267227261Y-121724768D02*
X267613644Y-121621250D01*
X267613644Y-121621250D02*
X267471290Y-121089976D01*
X267613644Y-121621250D02*
X267755987Y-122152508D01*
X267613644Y-121621250D02*
X268089667Y-121079582D01*
X268089667Y-121079582D02*
X268296727Y-121852319D01*
X268193193Y-121465954D02*
X268676163Y-121336546D01*
X268296727Y-121852319D02*
X267613644Y-121621250D01*
%TO.C,D57*%
X297416238Y-153705928D02*
X297805992Y-153615947D01*
X297805992Y-153615947D02*
X297682275Y-153080041D01*
X297805992Y-153615947D02*
X297929708Y-154151855D01*
X297805992Y-153615947D02*
X298300631Y-153091230D01*
X298300631Y-153091230D02*
X298480593Y-153870719D01*
X298390604Y-153480974D02*
X298877804Y-153368498D01*
X298480593Y-153870719D02*
X297805992Y-153615947D01*
%TO.C,D13*%
X82280751Y-106702031D02*
X82675830Y-106764616D01*
X82675830Y-106764616D02*
X82589793Y-107307837D01*
X82675830Y-106764616D02*
X82761865Y-106221380D01*
X82675830Y-106764616D02*
X83331009Y-106463397D01*
X83205869Y-107253544D02*
X82675830Y-106764616D01*
X83268441Y-106858468D02*
X83762281Y-106936687D01*
X83331009Y-106463397D02*
X83205869Y-107253544D01*
%TO.C,D44*%
X354734968Y-109144183D02*
X355131987Y-109095438D01*
X355131987Y-109095438D02*
X355064961Y-108549542D01*
X355131987Y-109095438D02*
X355199025Y-109641340D01*
X355131987Y-109095438D02*
X355678760Y-108625306D01*
X355678760Y-108625306D02*
X355776257Y-109419338D01*
X355727520Y-109022320D02*
X356223788Y-108961387D01*
X355776257Y-109419338D02*
X355131987Y-109095438D01*
%TO.C,D25*%
X135856356Y-71521437D02*
X136246118Y-71611421D01*
X136246118Y-71611421D02*
X136122383Y-72147335D01*
X136246118Y-71611421D02*
X136369843Y-71075507D01*
X136246118Y-71611421D02*
X136920717Y-71356655D01*
X136740731Y-72136140D02*
X136246118Y-71611421D01*
X136830742Y-71746385D02*
X137317926Y-71858871D01*
X136920717Y-71356655D02*
X136740731Y-72136140D01*
%TO.C,D35*%
X178135774Y-217105653D02*
X178418622Y-216822801D01*
X178418622Y-216822801D02*
X178029718Y-216433899D01*
X178418622Y-216822801D02*
X178560051Y-216115712D01*
X178418622Y-216822801D02*
X178807529Y-217211721D01*
X178560051Y-216115712D02*
X179125724Y-216681391D01*
X178842891Y-216398546D02*
X179196446Y-216044989D01*
X179125724Y-216681391D02*
X178418622Y-216822801D01*
%TO.C,D7*%
X57177134Y-128812313D02*
X57574151Y-128861070D01*
X57574151Y-128861070D02*
X57507120Y-129406967D01*
X57574151Y-128861070D02*
X57641175Y-128315155D01*
X57574151Y-128861070D02*
X58218419Y-128537166D01*
X58120939Y-129331201D02*
X57574151Y-128861070D01*
X58169678Y-128934180D02*
X58665950Y-128995113D01*
X58218419Y-128537166D02*
X58120939Y-129331201D01*
%TO.C,D9*%
X62051900Y-89110484D02*
X62448917Y-89159241D01*
X62448917Y-89159241D02*
X62381886Y-89705138D01*
X62448917Y-89159241D02*
X62515941Y-88613326D01*
X62448917Y-89159241D02*
X63093185Y-88835337D01*
X62995705Y-89629372D02*
X62448917Y-89159241D01*
X63044444Y-89232351D02*
X63540716Y-89293284D01*
X63093185Y-88835337D02*
X62995705Y-89629372D01*
%TO.C,D46*%
X349372673Y-65472170D02*
X349769692Y-65423425D01*
X349769692Y-65423425D02*
X349702666Y-64877529D01*
X349769692Y-65423425D02*
X349836730Y-65969327D01*
X349769692Y-65423425D02*
X350316465Y-64953293D01*
X350316465Y-64953293D02*
X350413962Y-65747325D01*
X350365225Y-65350307D02*
X350861493Y-65289374D01*
X350413962Y-65747325D02*
X349769692Y-65423425D01*
%TO.C,D5*%
X41155653Y-62364482D02*
X41552670Y-62413239D01*
X41552670Y-62413239D02*
X41485639Y-62959136D01*
X41552670Y-62413239D02*
X41619694Y-61867324D01*
X41552670Y-62413239D02*
X42196938Y-62089335D01*
X42099458Y-62883370D02*
X41552670Y-62413239D01*
X42148197Y-62486349D02*
X42644469Y-62547282D01*
X42196938Y-62089335D02*
X42099458Y-62883370D01*
%TO.C,D6*%
X54739738Y-148663242D02*
X55136755Y-148711999D01*
X55136755Y-148711999D02*
X55069724Y-149257896D01*
X55136755Y-148711999D02*
X55203779Y-148166084D01*
X55136755Y-148711999D02*
X55781023Y-148388095D01*
X55683543Y-149182130D02*
X55136755Y-148711999D01*
X55732282Y-148785109D02*
X56228554Y-148846042D01*
X55781023Y-148388095D02*
X55683543Y-149182130D01*
%TO.C,D47*%
X338333380Y-146444198D02*
X338728462Y-146381628D01*
X338728462Y-146381628D02*
X338642419Y-145838397D01*
X338728462Y-146381628D02*
X338814486Y-146924861D01*
X338728462Y-146381628D02*
X339258492Y-145892685D01*
X339258492Y-145892685D02*
X339383636Y-146682843D01*
X339321084Y-146287758D02*
X339814912Y-146209552D01*
X339383636Y-146682843D02*
X338728462Y-146381628D01*
%TO.C,D3*%
X35793431Y-106036544D02*
X36190448Y-106085301D01*
X36190448Y-106085301D02*
X36123417Y-106631198D01*
X36190448Y-106085301D02*
X36257472Y-105539386D01*
X36190448Y-106085301D02*
X36834716Y-105761397D01*
X36737236Y-106555432D02*
X36190448Y-106085301D01*
X36785975Y-106158411D02*
X37282247Y-106219344D01*
X36834716Y-105761397D02*
X36737236Y-106555432D01*
%TO.C,D14*%
X85409468Y-86948257D02*
X85804547Y-87010842D01*
X85804547Y-87010842D02*
X85718510Y-87554063D01*
X85804547Y-87010842D02*
X85890582Y-86467606D01*
X85804547Y-87010842D02*
X86459726Y-86709623D01*
X86334586Y-87499770D02*
X85804547Y-87010842D01*
X86397158Y-87104694D02*
X86890998Y-87182913D01*
X86459726Y-86709623D02*
X86334586Y-87499770D01*
%TO.C,D70*%
X250430437Y-229833584D02*
X250713289Y-230116432D01*
X250713289Y-230116432D02*
X250324369Y-230505339D01*
X250713289Y-230116432D02*
X251102191Y-229727528D01*
X250713289Y-230116432D02*
X251420378Y-230257861D01*
X250854699Y-230823534D02*
X250713289Y-230116432D01*
X251137544Y-230540701D02*
X251491101Y-230894256D01*
X251420378Y-230257861D02*
X250854699Y-230823534D01*
%TO.C,D24*%
X130457535Y-94906323D02*
X130847297Y-94996307D01*
X130847297Y-94996307D02*
X130723562Y-95532221D01*
X130847297Y-94996307D02*
X130971022Y-94460393D01*
X130847297Y-94996307D02*
X131521896Y-94741541D01*
X131341910Y-95521026D02*
X130847297Y-94996307D01*
X131431921Y-95131271D02*
X131919105Y-95243757D01*
X131521896Y-94741541D02*
X131341910Y-95521026D01*
%TO.C,D21*%
X116960430Y-153368508D02*
X117350192Y-153458492D01*
X117350192Y-153458492D02*
X117226457Y-153994406D01*
X117350192Y-153458492D02*
X117473917Y-152922578D01*
X117350192Y-153458492D02*
X118024791Y-153203726D01*
X117844805Y-153983211D02*
X117350192Y-153458492D01*
X117934816Y-153593456D02*
X118422000Y-153705942D01*
X118024791Y-153203726D02*
X117844805Y-153983211D01*
%TO.C,D20*%
X113016571Y-64512662D02*
X113409227Y-64588994D01*
X113409227Y-64588994D02*
X113304284Y-65128889D01*
X113409227Y-64588994D02*
X113514173Y-64049081D01*
X113409227Y-64588994D02*
X114074510Y-64310827D01*
X113921878Y-65096127D02*
X113409227Y-64588994D01*
X113998211Y-64703475D02*
X114489015Y-64798886D01*
X114074510Y-64310827D02*
X113921878Y-65096127D01*
%TO.C,D65*%
X262050865Y-102406296D02*
X262437248Y-102302778D01*
X262437248Y-102302778D02*
X262294894Y-101771504D01*
X262437248Y-102302778D02*
X262579591Y-102834036D01*
X262437248Y-102302778D02*
X262913271Y-101761110D01*
X262913271Y-101761110D02*
X263120331Y-102533847D01*
X263016797Y-102147482D02*
X263499767Y-102018074D01*
X263120331Y-102533847D02*
X262437248Y-102302778D01*
%TO.C,D19*%
X108437154Y-88071709D02*
X108829810Y-88148041D01*
X108829810Y-88148041D02*
X108724867Y-88687936D01*
X108829810Y-88148041D02*
X108934756Y-87608128D01*
X108829810Y-88148041D02*
X109495093Y-87869874D01*
X109342461Y-88655174D02*
X108829810Y-88148041D01*
X109418794Y-88262522D02*
X109909598Y-88357933D01*
X109495093Y-87869874D02*
X109342461Y-88655174D01*
%TD*%
M02*
