%TF.GenerationSoftware,KiCad,Pcbnew,8.0.6*%
%TF.CreationDate,2024-12-18T16:48:01-08:00*%
%TF.ProjectId,gundamBowtie,67756e64-616d-4426-9f77-7469652e6b69,v1.0.0*%
%TF.SameCoordinates,Original*%
%TF.FileFunction,Profile,NP*%
%FSLAX46Y46*%
G04 Gerber Fmt 4.6, Leading zero omitted, Abs format (unit mm)*
G04 Created by KiCad (PCBNEW 8.0.6) date 2024-12-18 16:48:01*
%MOMM*%
%LPD*%
G01*
G04 APERTURE LIST*
%TA.AperFunction,Profile*%
%ADD10C,0.150000*%
%TD*%
G04 APERTURE END LIST*
D10*
X92530725Y-46569009D02*
X35744162Y-44269330D01*
X298381474Y-48108822D02*
X275430247Y-55124847D01*
X162120967Y-114771598D02*
X174264099Y-69452702D01*
X171563169Y-64590189D02*
G75*
G02*
X174264154Y-69452717I-1162737J-3827286D01*
G01*
X31612077Y-47778575D02*
X19204063Y-148834043D01*
X298381452Y-48108819D02*
G75*
G02*
X299322343Y-47940623I1169178J-3824629D01*
G01*
X20996030Y-152676451D02*
X160348387Y-243153831D01*
X241574180Y-69452731D02*
X253717349Y-114771645D01*
X396634242Y-148834051D02*
G75*
G02*
X394842288Y-152676432I-3970120J-487516D01*
G01*
X380094134Y-44269328D02*
X323307570Y-46568994D01*
X92530725Y-46569009D02*
G75*
G02*
X92597321Y-46572254I-166195J-4095185D01*
G01*
X323240950Y-46572248D02*
X299322344Y-47940646D01*
X162526613Y-243798941D02*
G75*
G02*
X160348390Y-243153826I9J3999958D01*
G01*
X162526613Y-243798941D02*
X253311668Y-243798960D01*
X31612127Y-47778589D02*
G75*
G02*
X35744162Y-44269331I3970182J-487462D01*
G01*
X140408049Y-55124842D02*
X117456850Y-48108858D01*
X275423668Y-55126845D02*
X244275103Y-64590211D01*
X241574180Y-69452731D02*
G75*
G02*
X244275086Y-64590156I3863743J1035286D01*
G01*
X20996012Y-152676452D02*
G75*
G02*
X19203954Y-148834030I2178203J3354995D01*
G01*
X116515956Y-47940622D02*
G75*
G02*
X117456860Y-48108824I-228409J-3993457D01*
G01*
X165984657Y-119806877D02*
G75*
G02*
X162120921Y-114771586I-20J4000013D01*
G01*
X255489901Y-243153883D02*
G75*
G02*
X253311668Y-243798953I-2178185J3354964D01*
G01*
X253717349Y-114771645D02*
G75*
G02*
X249853634Y-119806908I-3863715J-1035257D01*
G01*
X380094161Y-44269331D02*
G75*
G02*
X384226266Y-47778560I161897J-3996751D01*
G01*
X171563169Y-64590189D02*
X140414592Y-55126879D01*
X396634242Y-148834051D02*
X384226185Y-47778570D01*
X249853634Y-119806902D02*
X165984657Y-119806877D01*
X323240950Y-46572248D02*
G75*
G02*
X323307570Y-46568992I229776J-4017679D01*
G01*
X255489901Y-243153883D02*
X394842268Y-152676402D01*
X116515956Y-47940622D02*
X92597321Y-46572263D01*
M02*
