%TF.GenerationSoftware,KiCad,Pcbnew,8.0.6*%
%TF.CreationDate,2024-12-18T16:31:54-08:00*%
%TF.ProjectId,gundamBowtie,67756e64-616d-4426-9f77-7469652e6b69,v1.0.0*%
%TF.SameCoordinates,Original*%
%TF.FileFunction,Copper,L1,Top*%
%TF.FilePolarity,Positive*%
%FSLAX46Y46*%
G04 Gerber Fmt 4.6, Leading zero omitted, Abs format (unit mm)*
G04 Created by KiCad (PCBNEW 8.0.6) date 2024-12-18 16:31:54*
%MOMM*%
%LPD*%
G01*
G04 APERTURE LIST*
G04 Aperture macros list*
%AMRotRect*
0 Rectangle, with rotation*
0 The origin of the aperture is its center*
0 $1 length*
0 $2 width*
0 $3 Rotation angle, in degrees counterclockwise*
0 Add horizontal line*
21,1,$1,$2,0,0,$3*%
G04 Aperture macros list end*
%TA.AperFunction,ComponentPad*%
%ADD10RotRect,1.778000X1.778000X45.000000*%
%TD*%
%TA.AperFunction,SMDPad,CuDef*%
%ADD11RotRect,0.900000X1.200000X45.000000*%
%TD*%
%TA.AperFunction,ComponentPad*%
%ADD12C,1.905000*%
%TD*%
%TA.AperFunction,ComponentPad*%
%ADD13RotRect,1.778000X1.778000X315.000000*%
%TD*%
%TA.AperFunction,SMDPad,CuDef*%
%ADD14RotRect,0.900000X1.200000X315.000000*%
%TD*%
%TA.AperFunction,ComponentPad*%
%ADD15RotRect,1.778000X1.778000X353.000000*%
%TD*%
%TA.AperFunction,SMDPad,CuDef*%
%ADD16RotRect,0.900000X1.200000X353.000000*%
%TD*%
%TA.AperFunction,ComponentPad*%
%ADD17RotRect,1.778000X1.778000X351.000000*%
%TD*%
%TA.AperFunction,SMDPad,CuDef*%
%ADD18RotRect,0.900000X1.200000X351.000000*%
%TD*%
%TA.AperFunction,ComponentPad*%
%ADD19RotRect,1.778000X1.778000X349.000000*%
%TD*%
%TA.AperFunction,SMDPad,CuDef*%
%ADD20RotRect,0.900000X1.200000X349.000000*%
%TD*%
%TA.AperFunction,ComponentPad*%
%ADD21RotRect,1.778000X1.778000X11.000000*%
%TD*%
%TA.AperFunction,SMDPad,CuDef*%
%ADD22RotRect,0.900000X1.200000X11.000000*%
%TD*%
%TA.AperFunction,ComponentPad*%
%ADD23O,1.700000X1.700000*%
%TD*%
%TA.AperFunction,ComponentPad*%
%ADD24R,1.700000X1.700000*%
%TD*%
%TA.AperFunction,ComponentPad*%
%ADD25RotRect,1.778000X1.778000X345.000000*%
%TD*%
%TA.AperFunction,SMDPad,CuDef*%
%ADD26RotRect,0.900000X1.200000X345.000000*%
%TD*%
%TA.AperFunction,ComponentPad*%
%ADD27RotRect,1.778000X1.778000X7.000000*%
%TD*%
%TA.AperFunction,SMDPad,CuDef*%
%ADD28RotRect,0.900000X1.200000X7.000000*%
%TD*%
%TA.AperFunction,ComponentPad*%
%ADD29RotRect,1.778000X1.778000X13.000000*%
%TD*%
%TA.AperFunction,SMDPad,CuDef*%
%ADD30RotRect,0.900000X1.200000X13.000000*%
%TD*%
%TA.AperFunction,ComponentPad*%
%ADD31C,0.700000*%
%TD*%
%TA.AperFunction,ComponentPad*%
%ADD32C,4.400000*%
%TD*%
%TA.AperFunction,ComponentPad*%
%ADD33RotRect,1.778000X1.778000X9.000000*%
%TD*%
%TA.AperFunction,SMDPad,CuDef*%
%ADD34RotRect,0.900000X1.200000X9.000000*%
%TD*%
%TA.AperFunction,ComponentPad*%
%ADD35RotRect,1.778000X1.778000X15.000000*%
%TD*%
%TA.AperFunction,SMDPad,CuDef*%
%ADD36RotRect,0.900000X1.200000X15.000000*%
%TD*%
%TA.AperFunction,ComponentPad*%
%ADD37RotRect,1.778000X1.778000X347.000000*%
%TD*%
%TA.AperFunction,SMDPad,CuDef*%
%ADD38RotRect,0.900000X1.200000X347.000000*%
%TD*%
%TA.AperFunction,SMDPad,CuDef*%
%ADD39R,1.100000X1.800000*%
%TD*%
%TA.AperFunction,ViaPad*%
%ADD40C,0.800000*%
%TD*%
%TA.AperFunction,Conductor*%
%ADD41C,0.250000*%
%TD*%
G04 APERTURE END LIST*
D10*
%TO.P,D34,1*%
%TO.N,GP15*%
X162183448Y-233057988D03*
D11*
X163710795Y-231530634D03*
%TO.P,D34,2*%
%TO.N,keysNextToBig_bottom*%
X166044247Y-229197180D03*
D12*
X167571594Y-227669826D03*
%TD*%
D13*
%TO.P,D71,1*%
%TO.N,GP16*%
X234478135Y-213881267D03*
D14*
X236005489Y-215408614D03*
%TO.P,D71,2*%
%TO.N,mirror_keysNextToBigPart2_bottom*%
X238338943Y-217742066D03*
D12*
X239866297Y-219269413D03*
%TD*%
D15*
%TO.P,D8,1*%
%TO.N,GP11*%
X56577332Y-108588468D03*
D16*
X58721230Y-108851702D03*
%TO.P,D8,2*%
%TO.N,pinky_top*%
X61996636Y-109253870D03*
D12*
X64140534Y-109517104D03*
%TD*%
D17*
%TO.P,D12,1*%
%TO.N,GP12*%
X76129728Y-125977093D03*
D18*
X78263140Y-126314988D03*
%TO.P,D12,2*%
%TO.N,ring_home*%
X81522500Y-126831226D03*
D12*
X83655912Y-127169121D03*
%TD*%
D19*
%TO.P,D18,1*%
%TO.N,GP11*%
X101617200Y-107120422D03*
D20*
X103737517Y-107532561D03*
%TO.P,D18,2*%
%TO.N,middle_top*%
X106976883Y-108162241D03*
D12*
X109097200Y-108574380D03*
%TD*%
D21*
%TO.P,D55,1*%
%TO.N,GP21*%
X302924937Y-88941812D03*
D22*
X305045250Y-88529673D03*
%TO.P,D55,2*%
%TO.N,mirror_middle_number*%
X308284622Y-87900005D03*
D12*
X310404935Y-87487866D03*
%TD*%
D23*
%TO.P,_1,43*%
%TO.N,N/C*%
X210459144Y-179238110D03*
D24*
%TO.P,_1,42*%
X207919158Y-179238108D03*
D23*
%TO.P,_1,41*%
X205379148Y-179238123D03*
%TO.P,_1,40*%
%TO.N,VBUS*%
X216809144Y-131208111D03*
%TO.P,_1,39*%
%TO.N,VSYS*%
X216809147Y-133748113D03*
D24*
%TO.P,_1,38*%
%TO.N,GND*%
X216809160Y-136288107D03*
D23*
%TO.P,_1,37*%
%TO.N,3V3_EN*%
X216809148Y-138828099D03*
%TO.P,_1,36*%
%TO.N,3V3*%
X216809153Y-141368114D03*
%TO.P,_1,35*%
%TO.N,ADC_VREF*%
X216809146Y-143908108D03*
%TO.P,_1,34*%
%TO.N,GP28*%
X216809147Y-146448106D03*
D24*
%TO.P,_1,33*%
%TO.N,AGND*%
X216809142Y-148988114D03*
D23*
%TO.P,_1,32*%
%TO.N,GP27*%
X216809145Y-151528110D03*
%TO.P,_1,31*%
%TO.N,GP26*%
X216809148Y-154068102D03*
%TO.P,_1,30*%
%TO.N,RUN*%
X216809143Y-156608112D03*
%TO.P,_1,29*%
%TO.N,GP22*%
X216809143Y-159148111D03*
D24*
%TO.P,_1,28*%
%TO.N,GND*%
X216809154Y-161688111D03*
D23*
%TO.P,_1,27*%
%TO.N,GP21*%
X216809149Y-164228110D03*
%TO.P,_1,26*%
%TO.N,GP20*%
X216809147Y-166768115D03*
%TO.P,_1,25*%
%TO.N,GP19*%
X216809149Y-169308103D03*
%TO.P,_1,24*%
%TO.N,GP18*%
X216809150Y-171848107D03*
D24*
%TO.P,_1,23*%
%TO.N,GND*%
X216809127Y-174388118D03*
D23*
%TO.P,_1,22*%
%TO.N,GP17*%
X216809143Y-176928106D03*
%TO.P,_1,21*%
%TO.N,GP16*%
X216809147Y-179468111D03*
%TO.P,_1,20*%
%TO.N,GP15*%
X199029148Y-179468107D03*
%TO.P,_1,19*%
%TO.N,GP14*%
X199029145Y-176928105D03*
D24*
%TO.P,_1,18*%
%TO.N,GND*%
X199029132Y-174388111D03*
D23*
%TO.P,_1,17*%
%TO.N,GP13*%
X199029144Y-171848119D03*
%TO.P,_1,16*%
%TO.N,GP12*%
X199029139Y-169308104D03*
%TO.P,_1,15*%
%TO.N,GP11*%
X199029146Y-166768110D03*
%TO.P,_1,14*%
%TO.N,GP10*%
X199029145Y-164228112D03*
D24*
%TO.P,_1,13*%
%TO.N,GND*%
X199029150Y-161688104D03*
D23*
%TO.P,_1,12*%
%TO.N,GP9*%
X199029147Y-159148108D03*
%TO.P,_1,11*%
%TO.N,GP8*%
X199029144Y-156608116D03*
%TO.P,_1,10*%
%TO.N,GP7*%
X199029149Y-154068106D03*
%TO.P,_1,9*%
%TO.N,GP6*%
X199029149Y-151528107D03*
D24*
%TO.P,_1,8*%
%TO.N,GND*%
X199029138Y-148988107D03*
D23*
%TO.P,_1,7*%
%TO.N,GP5*%
X199029143Y-146448108D03*
%TO.P,_1,6*%
%TO.N,GP4*%
X199029145Y-143908103D03*
%TO.P,_1,5*%
%TO.N,GP3*%
X199029143Y-141368115D03*
%TO.P,_1,4*%
%TO.N,GP2*%
X199029142Y-138828111D03*
D24*
%TO.P,_1,3*%
%TO.N,GND*%
X199029165Y-136288100D03*
D23*
%TO.P,_1,2*%
%TO.N,GP1*%
X199029149Y-133748112D03*
%TO.P,_1,1*%
%TO.N,GP0*%
X199029145Y-131208107D03*
%TD*%
D25*
%TO.P,D28,1*%
%TO.N,GP11*%
X144206372Y-120544585D03*
D26*
X146292772Y-121103624D03*
%TO.P,D28,2*%
%TO.N,inner_top*%
X149480322Y-121957746D03*
D12*
X151566722Y-122516785D03*
%TD*%
D27*
%TO.P,D39,1*%
%TO.N,GP20*%
X375518842Y-106592271D03*
D28*
X377662735Y-106329028D03*
%TO.P,D39,2*%
%TO.N,mirror_mods_top*%
X380938155Y-105926862D03*
D12*
X383082048Y-105663619D03*
%TD*%
D15*
%TO.P,D4,1*%
%TO.N,GP10*%
X35193599Y-85812684D03*
D16*
X37337497Y-86075918D03*
%TO.P,D4,2*%
%TO.N,mods_number*%
X40612903Y-86478086D03*
D12*
X42756801Y-86741320D03*
%TD*%
D10*
%TO.P,D36,1*%
%TO.N,GP15*%
X189760651Y-205480852D03*
D11*
X191287998Y-203953498D03*
%TO.P,D36,2*%
%TO.N,keysNextToBigPart3_bottom*%
X193621450Y-201620044D03*
D12*
X195148797Y-200092690D03*
%TD*%
D29*
%TO.P,D58,1*%
%TO.N,GP19*%
X289935682Y-134906909D03*
D30*
X292040319Y-134421013D03*
%TO.P,D58,2*%
%TO.N,mirror_index_home*%
X295255741Y-133678677D03*
D12*
X297360378Y-133192781D03*
%TD*%
D15*
%TO.P,D10,1*%
%TO.N,GP9*%
X61939597Y-64916422D03*
D16*
X64083495Y-65179656D03*
%TO.P,D10,2*%
%TO.N,pinky_function*%
X67358901Y-65581824D03*
D12*
X69502799Y-65845058D03*
%TD*%
D27*
%TO.P,D41,1*%
%TO.N,GP22*%
X370156603Y-62920214D03*
D28*
X372300496Y-62656971D03*
%TO.P,D41,2*%
%TO.N,mirror_mods_function*%
X375575916Y-62254805D03*
D12*
X377719809Y-61991562D03*
%TD*%
D27*
%TO.P,D42,1*%
%TO.N,GP18*%
X356572503Y-149218954D03*
D28*
X358716396Y-148955711D03*
%TO.P,D42,2*%
%TO.N,mirror_pinky_bottom*%
X361991816Y-148553545D03*
D12*
X364135709Y-148290302D03*
%TD*%
D15*
%TO.P,D2,1*%
%TO.N,GP12*%
X30318832Y-125514531D03*
D16*
X32462730Y-125777765D03*
%TO.P,D2,2*%
%TO.N,mods_home*%
X35738136Y-126179933D03*
D12*
X37882034Y-126443167D03*
%TD*%
D21*
%TO.P,D52,1*%
%TO.N,GP18*%
X314373483Y-147839441D03*
D22*
X316493796Y-147427302D03*
%TO.P,D52,2*%
%TO.N,mirror_middle_bottom*%
X319733168Y-146797634D03*
D12*
X321853481Y-146385495D03*
%TD*%
D13*
%TO.P,D68,1*%
%TO.N,GP18*%
X269833451Y-192668066D03*
D14*
X271360805Y-194195413D03*
%TO.P,D68,2*%
%TO.N,mirror_left_top*%
X273694259Y-196528865D03*
D12*
X275221613Y-198056212D03*
%TD*%
D25*
%TO.P,D30,1*%
%TO.N,GP9*%
X155594407Y-78043884D03*
D26*
X157680807Y-78602923D03*
%TO.P,D30,2*%
%TO.N,inner_function*%
X160868357Y-79457045D03*
D12*
X162954757Y-80016084D03*
%TD*%
D27*
%TO.P,D40,1*%
%TO.N,GP21*%
X373081491Y-86741308D03*
D28*
X375225384Y-86478065D03*
%TO.P,D40,2*%
%TO.N,mirror_mods_number*%
X378500804Y-86075899D03*
D12*
X380644697Y-85812656D03*
%TD*%
D27*
%TO.P,D43,1*%
%TO.N,GP19*%
X354135141Y-129368063D03*
D28*
X356279034Y-129104820D03*
%TO.P,D43,2*%
%TO.N,mirror_pinky_home*%
X359554454Y-128702654D03*
D12*
X361698347Y-128439411D03*
%TD*%
D15*
%TO.P,D1,1*%
%TO.N,GP13*%
X27881439Y-145365428D03*
D16*
X30025337Y-145628662D03*
%TO.P,D1,2*%
%TO.N,mods_bottom*%
X33300743Y-146030830D03*
D12*
X35444641Y-146294064D03*
%TD*%
D31*
%TO.P,_3,1*%
%TO.N,N/C*%
X361838610Y-70994100D03*
X362460477Y-72093235D03*
X362176102Y-69777174D03*
X363677403Y-72430727D03*
D32*
X363476320Y-70793017D03*
D31*
X363275237Y-69155307D03*
X364776538Y-71808860D03*
X364492163Y-69492799D03*
X365114030Y-70591934D03*
%TD*%
D27*
%TO.P,D45,1*%
%TO.N,GP21*%
X349260365Y-89666168D03*
D28*
X351404258Y-89402925D03*
%TO.P,D45,2*%
%TO.N,mirror_pinky_number*%
X354679678Y-89000759D03*
D12*
X356823571Y-88737516D03*
%TD*%
D31*
%TO.P,_8,1*%
%TO.N,N/C*%
X165351189Y-141739499D03*
X165516016Y-142991558D03*
X166119966Y-140737612D03*
X167372025Y-140572785D03*
D32*
X166944964Y-142166560D03*
D31*
X166517903Y-143760335D03*
X167769962Y-143595508D03*
X168373912Y-141341562D03*
X168538739Y-142593621D03*
%TD*%
D27*
%TO.P,D38,1*%
%TO.N,GP19*%
X377956267Y-126443168D03*
D28*
X380100160Y-126179925D03*
%TO.P,D38,2*%
%TO.N,mirror_mods_home*%
X383375580Y-125777759D03*
D12*
X385519473Y-125514516D03*
%TD*%
D33*
%TO.P,D51,1*%
%TO.N,GP22*%
X322170573Y-63957022D03*
D34*
X324303976Y-63619136D03*
%TO.P,D51,2*%
%TO.N,mirror_ring_function*%
X327563350Y-63102904D03*
D12*
X329696753Y-62765018D03*
%TD*%
D35*
%TO.P,D63,1*%
%TO.N,GP19*%
X269447966Y-141835308D03*
D36*
X271534367Y-141276255D03*
%TO.P,D63,2*%
%TO.N,mirror_inner_home*%
X274721921Y-140422153D03*
D12*
X276808322Y-139863100D03*
%TD*%
D37*
%TO.P,D22,1*%
%TO.N,GP12*%
X118477945Y-133192776D03*
D38*
X120582580Y-133678668D03*
%TO.P,D22,2*%
%TO.N,index_home*%
X123798018Y-134421016D03*
D12*
X125902653Y-134906908D03*
%TD*%
D29*
%TO.P,D60,1*%
%TO.N,GP21*%
X280937626Y-95932102D03*
D30*
X283042263Y-95446206D03*
%TO.P,D60,2*%
%TO.N,mirror_index_number*%
X286257685Y-94703870D03*
D12*
X288362322Y-94217974D03*
%TD*%
D13*
%TO.P,D69,1*%
%TO.N,GP17*%
X234831694Y-185950547D03*
D14*
X236359048Y-187477894D03*
%TO.P,D69,2*%
%TO.N,mirror_right_middle*%
X238692502Y-189811346D03*
D12*
X240219856Y-191338693D03*
%TD*%
D25*
%TO.P,D29,1*%
%TO.N,GP10*%
X149382713Y-101226076D03*
D26*
X151469113Y-101785115D03*
%TO.P,D29,2*%
%TO.N,inner_number*%
X154656663Y-102639237D03*
D12*
X156743063Y-103198276D03*
%TD*%
D13*
%TO.P,D67,1*%
%TO.N,GP17*%
X255691310Y-206810226D03*
D14*
X257218664Y-208337573D03*
%TO.P,D67,2*%
%TO.N,mirror_left_middle*%
X259552118Y-210671025D03*
D12*
X261079472Y-212198372D03*
%TD*%
D10*
%TO.P,D31,1*%
%TO.N,GP14*%
X154758799Y-212198368D03*
D11*
X156286146Y-210671014D03*
%TO.P,D31,2*%
%TO.N,left_middle*%
X158619598Y-208337560D03*
D12*
X160146945Y-206810206D03*
%TD*%
D25*
%TO.P,D27,1*%
%TO.N,GP12*%
X139030014Y-139863138D03*
D26*
X141116414Y-140422177D03*
%TO.P,D27,2*%
%TO.N,inner_home*%
X144303964Y-141276299D03*
D12*
X146390364Y-141835338D03*
%TD*%
D31*
%TO.P,_4,1*%
%TO.N,N/C*%
X144512588Y-80704059D03*
X144721022Y-81949597D03*
X145245943Y-79675948D03*
X146491481Y-79467514D03*
D32*
X146120307Y-81075233D03*
D31*
X145749133Y-82682952D03*
X146994671Y-82474518D03*
X147519592Y-80200869D03*
X147728026Y-81446407D03*
%TD*%
%TO.P,_9,1*%
%TO.N,N/C*%
X247299489Y-142593601D03*
X247464325Y-141341548D03*
X248068264Y-143595491D03*
X249320317Y-143760327D03*
D32*
X248893266Y-142166550D03*
D31*
X248466215Y-140572773D03*
X249718268Y-140737609D03*
X250322207Y-142991552D03*
X250487043Y-141739499D03*
%TD*%
D29*
%TO.P,D61,1*%
%TO.N,GP22*%
X275538809Y-72547253D03*
D30*
X277643446Y-72061357D03*
%TO.P,D61,2*%
%TO.N,mirror_index_function*%
X280858868Y-71319021D03*
D12*
X282963505Y-70833125D03*
%TD*%
D17*
%TO.P,D11,1*%
%TO.N,GP13*%
X73001053Y-145730843D03*
D18*
X75134465Y-146068738D03*
%TO.P,D11,2*%
%TO.N,ring_bottom*%
X78393825Y-146584976D03*
D12*
X80527237Y-146922871D03*
%TD*%
D13*
%TO.P,D72,1*%
%TO.N,GP16*%
X220689516Y-200092698D03*
D14*
X222216870Y-201620045D03*
%TO.P,D72,2*%
%TO.N,mirror_keysNextToBigPart3_bottom*%
X224550324Y-203953497D03*
D12*
X226077678Y-205480844D03*
%TD*%
D27*
%TO.P,D37,1*%
%TO.N,GP18*%
X380393630Y-146294086D03*
D28*
X382537523Y-146030843D03*
%TO.P,D37,2*%
%TO.N,mirror_mods_bottom*%
X385812943Y-145628677D03*
D12*
X387956836Y-145365434D03*
%TD*%
D35*
%TO.P,D62,1*%
%TO.N,GP18*%
X274624307Y-161153842D03*
D36*
X276710708Y-160594789D03*
%TO.P,D62,2*%
%TO.N,mirror_inner_bottom*%
X279898262Y-159740687D03*
D12*
X281984663Y-159181634D03*
%TD*%
D33*
%TO.P,D49,1*%
%TO.N,GP20*%
X329053688Y-107415326D03*
D34*
X331187091Y-107077440D03*
%TO.P,D49,2*%
%TO.N,mirror_ring_top*%
X334446465Y-106561208D03*
D12*
X336579868Y-106223322D03*
%TD*%
D17*
%TO.P,D15,1*%
%TO.N,GP9*%
X86141574Y-62765044D03*
D18*
X88274986Y-63102939D03*
%TO.P,D15,2*%
%TO.N,ring_function*%
X91534346Y-63619177D03*
D12*
X93667758Y-63957072D03*
%TD*%
D31*
%TO.P,_6,1*%
%TO.N,N/C*%
X89808442Y-179191307D03*
X90505461Y-178138231D03*
X90060209Y-180428811D03*
X91742965Y-177886464D03*
D32*
X91428125Y-179506147D03*
D31*
X91113285Y-181125830D03*
X92796041Y-178583483D03*
X92350789Y-180874063D03*
X93047808Y-179820987D03*
%TD*%
%TO.P,_2,1*%
%TO.N,N/C*%
X50724313Y-70591939D03*
X51061796Y-71808861D03*
X51346178Y-69492803D03*
X52563100Y-69155320D03*
D32*
X52362016Y-70793023D03*
D31*
X52160932Y-72430726D03*
X53377854Y-72093243D03*
X53662236Y-69777185D03*
X53999719Y-70994107D03*
%TD*%
D19*
%TO.P,D16,1*%
%TO.N,GP13*%
X93984821Y-146385521D03*
D20*
X96105138Y-146797660D03*
%TO.P,D16,2*%
%TO.N,middle_bottom*%
X99344504Y-147427340D03*
D12*
X101464821Y-147839479D03*
%TD*%
D33*
%TO.P,D48,1*%
%TO.N,GP19*%
X332182374Y-127169111D03*
D34*
X334315777Y-126831225D03*
%TO.P,D48,2*%
%TO.N,mirror_ring_home*%
X337575151Y-126314993D03*
D12*
X339708554Y-125977107D03*
%TD*%
D35*
%TO.P,D66,1*%
%TO.N,GP22*%
X252883564Y-80016084D03*
D36*
X254969965Y-79457031D03*
%TO.P,D66,2*%
%TO.N,mirror_inner_function*%
X258157519Y-78602929D03*
D12*
X260243920Y-78043876D03*
%TD*%
D29*
%TO.P,D59,1*%
%TO.N,GP20*%
X285436669Y-115419508D03*
D30*
X287541306Y-114933612D03*
%TO.P,D59,2*%
%TO.N,mirror_index_top*%
X290756728Y-114191276D03*
D12*
X292861365Y-113705380D03*
%TD*%
D21*
%TO.P,D56,1*%
%TO.N,GP22*%
X298345539Y-65382756D03*
D22*
X300465852Y-64970617D03*
%TO.P,D56,2*%
%TO.N,mirror_middle_function*%
X303705224Y-64340949D03*
D12*
X305825537Y-63928810D03*
%TD*%
D21*
%TO.P,D54,1*%
%TO.N,GP20*%
X306741115Y-108574346D03*
D22*
X308861428Y-108162207D03*
%TO.P,D54,2*%
%TO.N,mirror_middle_top*%
X312100800Y-107532539D03*
D12*
X314221113Y-107120400D03*
%TD*%
D10*
%TO.P,D33,1*%
%TO.N,GP14*%
X175618453Y-191338692D03*
D11*
X177145800Y-189811338D03*
%TO.P,D33,2*%
%TO.N,right_middle*%
X179479252Y-187477884D03*
D12*
X181006599Y-185950530D03*
%TD*%
D37*
%TO.P,D23,1*%
%TO.N,GP11*%
X122976965Y-113705372D03*
D38*
X125081600Y-114191264D03*
%TO.P,D23,2*%
%TO.N,index_top*%
X128297038Y-114933612D03*
D12*
X130401673Y-115419504D03*
%TD*%
D19*
%TO.P,D17,1*%
%TO.N,GP12*%
X97801032Y-126752958D03*
D20*
X99921349Y-127165097D03*
%TO.P,D17,2*%
%TO.N,middle_home*%
X103160715Y-127794777D03*
D12*
X105281032Y-128206916D03*
%TD*%
D25*
%TO.P,D26,1*%
%TO.N,GP13*%
X133853628Y-159181640D03*
D26*
X135940028Y-159740679D03*
%TO.P,D26,2*%
%TO.N,inner_bottom*%
X139127578Y-160594801D03*
D12*
X141213978Y-161153840D03*
%TD*%
D33*
%TO.P,D50,1*%
%TO.N,GP21*%
X325925008Y-87661603D03*
D34*
X328058411Y-87323717D03*
%TO.P,D50,2*%
%TO.N,mirror_ring_number*%
X331317785Y-86807485D03*
D12*
X333451188Y-86469599D03*
%TD*%
D21*
%TO.P,D53,1*%
%TO.N,GP19*%
X310557253Y-128206901D03*
D22*
X312677566Y-127794762D03*
%TO.P,D53,2*%
%TO.N,mirror_middle_home*%
X315916938Y-127165094D03*
D12*
X318037251Y-126752955D03*
%TD*%
D10*
%TO.P,D32,1*%
%TO.N,GP13*%
X140616680Y-198056222D03*
D11*
X142144027Y-196528868D03*
%TO.P,D32,2*%
%TO.N,left_top*%
X144477479Y-194195414D03*
D12*
X146004826Y-192668060D03*
%TD*%
D35*
%TO.P,D64,1*%
%TO.N,GP20*%
X264271534Y-122516761D03*
D36*
X266357935Y-121957708D03*
%TO.P,D64,2*%
%TO.N,mirror_inner_top*%
X269545489Y-121103606D03*
D12*
X271631890Y-120544553D03*
%TD*%
D29*
%TO.P,D57,1*%
%TO.N,GP18*%
X294434673Y-154394277D03*
D30*
X296539310Y-153908381D03*
%TO.P,D57,2*%
%TO.N,mirror_index_bottom*%
X299754732Y-153166045D03*
D12*
X301859369Y-152680149D03*
%TD*%
D17*
%TO.P,D13,1*%
%TO.N,GP11*%
X79258424Y-106223345D03*
D18*
X81391836Y-106561240D03*
%TO.P,D13,2*%
%TO.N,ring_top*%
X84651196Y-107077478D03*
D12*
X86784608Y-107415373D03*
%TD*%
D27*
%TO.P,D44,1*%
%TO.N,GP20*%
X351697775Y-109517111D03*
D28*
X353841668Y-109253868D03*
%TO.P,D44,2*%
%TO.N,mirror_pinky_top*%
X357117088Y-108851702D03*
D12*
X359260981Y-108588459D03*
%TD*%
D37*
%TO.P,D25,1*%
%TO.N,GP9*%
X132874787Y-70833088D03*
D38*
X134979422Y-71318980D03*
%TO.P,D25,2*%
%TO.N,index_function*%
X138194860Y-72061328D03*
D12*
X140299495Y-72547220D03*
%TD*%
D31*
%TO.P,_5,1*%
%TO.N,N/C*%
X268110280Y-81446376D03*
X268843625Y-82474487D03*
X268318712Y-80200842D03*
X269346823Y-79467497D03*
D32*
X269717991Y-81075208D03*
D31*
X270089159Y-82682919D03*
X271117270Y-81949574D03*
X270592357Y-79675929D03*
X271325702Y-80704040D03*
%TD*%
D10*
%TO.P,D35,1*%
%TO.N,GP15*%
X175972037Y-219269402D03*
D11*
X177499384Y-217742048D03*
%TO.P,D35,2*%
%TO.N,keysNextToBigPart2_bottom*%
X179832836Y-215408594D03*
D12*
X181360183Y-213881240D03*
%TD*%
D15*
%TO.P,D7,1*%
%TO.N,GP12*%
X54139941Y-128439395D03*
D16*
X56283839Y-128702629D03*
%TO.P,D7,2*%
%TO.N,pinky_home*%
X59559245Y-129104797D03*
D12*
X61703143Y-129368031D03*
%TD*%
D15*
%TO.P,D9,1*%
%TO.N,GP10*%
X59014707Y-88737566D03*
D16*
X61158605Y-89000800D03*
%TO.P,D9,2*%
%TO.N,pinky_number*%
X64434011Y-89402968D03*
D12*
X66577909Y-89666202D03*
%TD*%
D31*
%TO.P,_7,1*%
%TO.N,N/C*%
X322790496Y-179820983D03*
X323042271Y-178583482D03*
X323487515Y-180874060D03*
X324095348Y-177886463D03*
D32*
X324410182Y-179506149D03*
D31*
X324725016Y-181125835D03*
X325332849Y-178138238D03*
X325778093Y-180428816D03*
X326029868Y-179191315D03*
%TD*%
D27*
%TO.P,D46,1*%
%TO.N,GP22*%
X346335480Y-65845098D03*
D28*
X348479373Y-65581855D03*
%TO.P,D46,2*%
%TO.N,mirror_pinky_function*%
X351754793Y-65179689D03*
D12*
X353898686Y-64916446D03*
%TD*%
D15*
%TO.P,D5,1*%
%TO.N,GP9*%
X38118460Y-61991564D03*
D16*
X40262358Y-62254798D03*
%TO.P,D5,2*%
%TO.N,mods_function*%
X43537764Y-62656966D03*
D12*
X45681662Y-62920200D03*
%TD*%
D15*
%TO.P,D6,1*%
%TO.N,GP13*%
X51702545Y-148290324D03*
D16*
X53846443Y-148553558D03*
%TO.P,D6,2*%
%TO.N,pinky_bottom*%
X57121849Y-148955726D03*
D12*
X59265747Y-149218960D03*
%TD*%
D33*
%TO.P,D47,1*%
%TO.N,GP18*%
X335311056Y-146922877D03*
D34*
X337444459Y-146584991D03*
%TO.P,D47,2*%
%TO.N,mirror_ring_bottom*%
X340703833Y-146068759D03*
D12*
X342837236Y-145730873D03*
%TD*%
D15*
%TO.P,D3,1*%
%TO.N,GP11*%
X32756238Y-105663626D03*
D16*
X34900136Y-105926860D03*
%TO.P,D3,2*%
%TO.N,mods_top*%
X38175542Y-106329028D03*
D12*
X40319440Y-106592262D03*
%TD*%
D17*
%TO.P,D14,1*%
%TO.N,GP10*%
X82387141Y-86469571D03*
D18*
X84520553Y-86807466D03*
%TO.P,D14,2*%
%TO.N,ring_number*%
X87779913Y-87323704D03*
D12*
X89913325Y-87661599D03*
%TD*%
D13*
%TO.P,D70,1*%
%TO.N,GP16*%
X248266688Y-227669847D03*
D14*
X249794042Y-229197194D03*
%TO.P,D70,2*%
%TO.N,mirror_keysNextToBig_bottom*%
X252127496Y-231530646D03*
D12*
X253654850Y-233057993D03*
%TD*%
D37*
%TO.P,D24,1*%
%TO.N,GP10*%
X127475966Y-94217974D03*
D38*
X129580601Y-94703866D03*
%TO.P,D24,2*%
%TO.N,index_number*%
X132796039Y-95446214D03*
D12*
X134900674Y-95932106D03*
%TD*%
D37*
%TO.P,D21,1*%
%TO.N,GP13*%
X113978861Y-152680159D03*
D38*
X116083496Y-153166051D03*
%TO.P,D21,2*%
%TO.N,index_bottom*%
X119298934Y-153908399D03*
D12*
X121403569Y-154394291D03*
%TD*%
D19*
%TO.P,D20,1*%
%TO.N,GP9*%
X110012793Y-63928795D03*
D20*
X112133110Y-64340934D03*
%TO.P,D20,2*%
%TO.N,middle_function*%
X115372476Y-64970614D03*
D12*
X117492793Y-65382753D03*
%TD*%
D31*
%TO.P,_10,1*%
%TO.N,N/C*%
X196769122Y-226828436D03*
X197252404Y-227995160D03*
X197252403Y-225661707D03*
X198419127Y-225178425D03*
D32*
X198419130Y-226828433D03*
D31*
X198419133Y-228478441D03*
X199585857Y-227995159D03*
X199585856Y-225661706D03*
X200069138Y-226828430D03*
%TD*%
D35*
%TO.P,D65,1*%
%TO.N,GP21*%
X259095138Y-103198289D03*
D36*
X261181539Y-102639236D03*
%TO.P,D65,2*%
%TO.N,mirror_inner_number*%
X264369093Y-101785134D03*
D12*
X266455494Y-101226081D03*
%TD*%
D19*
%TO.P,D19,1*%
%TO.N,GP10*%
X105433376Y-87487842D03*
D20*
X107553693Y-87899981D03*
%TO.P,D19,2*%
%TO.N,middle_number*%
X110793059Y-88529661D03*
D12*
X112913376Y-88941800D03*
%TD*%
D39*
%TO.P,B1,2*%
%TO.N,RUN*%
X206069134Y-191688069D03*
X206069146Y-185488066D03*
%TO.P,B1,1*%
%TO.N,GND*%
X209769136Y-191688068D03*
X209769148Y-185488065D03*
%TD*%
D40*
%TO.N,GP2*%
X66773440Y-161025458D03*
X159294947Y-179651622D03*
%TO.N,GP1*%
X293093364Y-181177929D03*
X356860979Y-168579020D03*
%TO.N,GP2*%
X267370123Y-172527219D03*
X334551584Y-159672206D03*
%TD*%
D41*
%TO.N,GND*%
X211200000Y-190257212D02*
X211200000Y-186918912D01*
X211200000Y-186918912D02*
X209769149Y-185488061D01*
X209769149Y-185488061D02*
X209769149Y-182306382D01*
X209769141Y-191688071D02*
X211200000Y-190257212D01*
X216809126Y-175266417D02*
X216809124Y-174388110D01*
X209769149Y-182306382D02*
X216809126Y-175266417D01*
%TO.N,RUN*%
X206069130Y-191688067D02*
X204600000Y-190218937D01*
X204600000Y-186957209D02*
X206069146Y-185488063D01*
X204600000Y-190218937D02*
X204600000Y-186957209D01*
X206069146Y-185488063D02*
X209163612Y-182393599D01*
X209163612Y-182393599D02*
X209163617Y-164253637D01*
X209163617Y-164253637D02*
X216809147Y-156608106D01*
%TO.N,GND*%
X203531955Y-179769212D02*
X203531955Y-193680740D01*
X199029132Y-174388110D02*
X199029133Y-175266391D01*
X199029133Y-175266391D02*
X203531955Y-179769212D01*
X209769136Y-193643559D02*
X209769137Y-191688067D01*
X203531955Y-193680740D02*
X209731954Y-193680741D01*
X209731954Y-193680741D02*
X209769136Y-193643559D01*
X199029152Y-161688105D02*
X200204146Y-162863098D01*
X200204146Y-174313099D02*
X200129133Y-174388111D01*
X200204146Y-162863098D02*
X200204146Y-174313099D01*
X200129133Y-174388111D02*
X199029132Y-174388110D01*
X199029139Y-148988108D02*
X200204149Y-150163116D01*
X200204149Y-150163116D02*
X200204148Y-161613107D01*
X200204148Y-161613107D02*
X200129153Y-161688104D01*
X200129153Y-161688104D02*
X199029152Y-161688105D01*
X199029165Y-136288100D02*
X200204146Y-137463079D01*
X200204146Y-137463079D02*
X200204147Y-147813100D01*
X200204147Y-147813100D02*
X199029139Y-148988108D01*
X216809160Y-136288105D02*
X199029173Y-136288107D01*
X199029173Y-136288107D02*
X199029165Y-136288100D01*
X216809130Y-174388118D02*
X215634149Y-173213138D01*
X215634149Y-173213138D02*
X215634148Y-162863119D01*
X215634148Y-162863119D02*
X216809156Y-161688111D01*
%TO.N,GP16*%
X220689516Y-200092701D02*
X222676960Y-187544461D01*
X222676960Y-187544461D02*
X216809151Y-179468111D01*
%TO.N,GP17*%
X234831693Y-185950550D02*
X221873155Y-183898120D01*
X221873155Y-183898120D02*
X216809142Y-176928104D01*
%TO.N,GP18*%
X269833454Y-192668066D02*
X255091981Y-172378173D01*
X255151657Y-172001393D02*
X261101095Y-167678872D01*
X261101095Y-167678872D02*
X270385364Y-169149356D01*
X273744488Y-166708810D02*
X274624307Y-161153842D01*
X255091981Y-172378173D02*
X255151657Y-172001393D01*
X270385364Y-169149356D02*
X273744488Y-166708810D01*
%TO.N,GP2*%
X126294950Y-217851625D02*
X71254690Y-182108063D01*
X71254690Y-182108063D02*
X66773440Y-161025458D01*
X159294947Y-179651622D02*
X159294940Y-184851626D01*
X159294940Y-184851626D02*
X126294950Y-217851625D01*
%TO.N,GP19*%
X252826428Y-121990234D02*
X220356340Y-121990234D01*
X220356340Y-121990234D02*
X220294941Y-122051628D01*
X220294941Y-122051628D02*
X220294950Y-165822305D01*
X220294950Y-165822305D02*
X216809148Y-169308102D01*
%TO.N,GP20*%
X253221218Y-121075070D02*
X253044662Y-121251628D01*
X219694945Y-121451627D02*
X219694948Y-163882315D01*
X219694948Y-163882315D02*
X216809149Y-166768113D01*
X253044662Y-121251628D02*
X219894947Y-121251629D01*
X219894947Y-121251629D02*
X219694945Y-121451627D01*
%TO.N,GP21*%
X219094949Y-161942307D02*
X216809149Y-164228111D01*
X255306377Y-116563457D02*
X252927367Y-120684043D01*
X252927367Y-120684043D02*
X219462530Y-120684048D01*
X219462530Y-120684048D02*
X219094947Y-121051627D01*
X219094947Y-121051627D02*
X219094949Y-161942307D01*
%TO.N,GP22*%
X252553746Y-120199802D02*
X218746768Y-120199802D01*
X218746768Y-120199802D02*
X218494951Y-120451625D01*
X218494944Y-157462306D02*
X216809136Y-159148113D01*
X218494951Y-120451625D02*
X218494944Y-157462306D01*
%TO.N,GP18*%
X274624308Y-161153845D02*
X222484377Y-175124697D01*
X222484377Y-175124697D02*
X216809148Y-171848106D01*
%TO.N,GP19*%
X269447963Y-141835309D02*
X262060526Y-143814771D01*
X262060526Y-143814771D02*
X258054574Y-141501936D01*
X258054574Y-141501936D02*
X252826428Y-121990234D01*
%TO.N,GP20*%
X264271537Y-122516763D02*
X258429575Y-124082114D01*
X258429575Y-124082114D02*
X253221218Y-121075070D01*
%TO.N,GP21*%
X259095135Y-103198292D02*
X252343644Y-105007345D01*
X252343644Y-105007345D02*
X252252320Y-105165536D01*
X252252320Y-105165536D02*
X255306377Y-116563457D01*
%TO.N,GP22*%
X245552408Y-81980452D02*
X245461107Y-82138610D01*
X252883572Y-80016083D02*
X245552408Y-81980452D01*
X245461107Y-82138610D02*
X254675064Y-116525566D01*
X254675064Y-116525566D02*
X252553746Y-120199802D01*
%TO.N,GP12*%
X194916821Y-139137268D02*
X194916824Y-165195788D01*
X194916824Y-165195788D02*
X199029140Y-169308099D01*
X139030015Y-139863142D02*
X139755875Y-139137274D01*
X139755875Y-139137274D02*
X194916821Y-139137268D01*
%TO.N,GP11*%
X163292049Y-122340745D02*
X163814046Y-122862736D01*
X195591368Y-122862733D02*
X195591371Y-163330327D01*
X163814046Y-122862736D02*
X195591368Y-122862733D01*
X195591371Y-163330327D02*
X199029146Y-166768116D01*
X160090716Y-116795873D02*
X163292049Y-122340745D01*
%TO.N,GP10*%
X160429777Y-116303247D02*
X163380500Y-121414043D01*
X196237469Y-161436433D02*
X199029148Y-164228113D01*
X163380500Y-121414043D02*
X163550659Y-121708786D01*
X163550659Y-121708786D02*
X196189163Y-121708774D01*
X196189163Y-121708774D02*
X196237467Y-121757078D01*
X196237467Y-121757078D02*
X196237469Y-161436433D01*
%TO.N,GP9*%
X163705760Y-121077409D02*
X163785430Y-121157076D01*
X163785430Y-121157076D02*
X196837471Y-121157084D01*
X196837471Y-121157084D02*
X196837459Y-156956429D01*
X196837459Y-156956429D02*
X199029149Y-159148106D01*
%TO.N,GP11*%
X144206380Y-120544582D02*
X144699432Y-118704490D01*
X152987198Y-120897096D02*
X160090716Y-116795873D01*
X144699432Y-118704490D02*
X144680230Y-118671249D01*
X144680230Y-118671249D02*
X152987198Y-120897096D01*
%TO.N,GP10*%
X148096643Y-105921040D02*
X162199168Y-109699789D01*
X149382717Y-101226072D02*
X148129846Y-105901869D01*
X148129846Y-105901869D02*
X148096643Y-105921040D01*
X162199168Y-109699789D02*
X160429777Y-116303247D01*
%TO.N,GP9*%
X155594413Y-78043890D02*
X153409804Y-86196948D01*
X153409804Y-86196948D02*
X153376555Y-86216140D01*
X153376555Y-86216140D02*
X168058635Y-90150199D01*
X168058635Y-90150199D02*
X161018753Y-116423374D01*
X161018753Y-116423374D02*
X163705760Y-121077409D01*
%TO.N,GP1*%
X356702811Y-168813510D02*
X356860979Y-168579020D01*
X293093364Y-181177929D02*
X356702811Y-168813510D01*
%TO.N,GP2*%
X267370123Y-172527219D02*
X317825765Y-162719640D01*
X318060247Y-162877793D02*
X334551584Y-159672206D01*
X317825765Y-162719640D02*
X318060247Y-162877793D01*
%TO.N,GP13*%
X133853619Y-159181644D02*
X133853614Y-184964516D01*
X133853614Y-184964516D02*
X137406327Y-188517263D01*
X137406334Y-194845903D02*
X140616687Y-198056226D01*
X137406327Y-188517263D02*
X137406334Y-194845903D01*
X140616687Y-198056226D02*
X140616675Y-196249546D01*
X140616675Y-196249546D02*
X165018120Y-171848094D01*
X165018120Y-171848094D02*
X199029150Y-171848104D01*
%TO.N,GP15*%
X189760638Y-205480826D02*
X191567304Y-205480845D01*
X191567304Y-205480845D02*
X199029136Y-198018945D01*
X199029136Y-198018945D02*
X199029159Y-179468098D01*
%TO.N,GP14*%
X175618441Y-191338711D02*
X177854809Y-191338699D01*
X177854809Y-191338699D02*
X192265437Y-176928084D01*
X192265437Y-176928084D02*
X199029142Y-176928076D01*
%TO.N,GP17*%
X255691351Y-206810237D02*
X253884702Y-206810238D01*
X234831694Y-187757212D02*
X234831708Y-185950573D01*
X253884702Y-206810238D02*
X234831694Y-187757212D01*
%TO.N,GP16*%
X234478123Y-213881293D02*
X234478136Y-215687909D01*
X234478136Y-215687909D02*
X246460060Y-227669857D01*
X246460060Y-227669857D02*
X248266652Y-227669846D01*
X220689549Y-200092703D02*
X220689512Y-203118523D01*
X220689512Y-203118523D02*
X231452272Y-213881257D01*
X231452272Y-213881257D02*
X234478123Y-213881293D01*
%TO.N,GP15*%
X175972064Y-219269406D02*
X177778668Y-219269398D01*
X177778668Y-219269398D02*
X189760633Y-207287448D01*
X189760633Y-207287448D02*
X189760641Y-205480817D01*
X162183434Y-233058001D02*
X162988822Y-232252597D01*
X175972036Y-221076071D02*
X175972064Y-219269406D01*
X162988822Y-232252597D02*
X164795498Y-232252622D01*
X164795498Y-232252622D02*
X175972036Y-221076071D01*
%TO.N,GP14*%
X154758818Y-212198343D02*
X156565470Y-212198356D01*
X156565470Y-212198356D02*
X175618462Y-193145331D01*
X175618462Y-193145331D02*
X175618451Y-191338726D01*
%TO.N,GP18*%
X314373471Y-147839455D02*
X295859774Y-152113670D01*
X295859774Y-152113670D02*
X294434668Y-154394296D01*
X335311064Y-146922892D02*
X318951110Y-150699899D01*
X318951110Y-150699899D02*
X314373471Y-147839455D01*
X356572509Y-149218964D02*
X343730324Y-152183796D01*
X343730324Y-152183796D02*
X335311064Y-146922892D01*
X380393620Y-146294099D02*
X359581260Y-151099004D01*
X359581260Y-151099004D02*
X356572509Y-149218964D01*
%TO.N,GP19*%
X310557267Y-128206921D02*
X291351636Y-132640903D01*
X291351636Y-132640903D02*
X289935676Y-134906896D01*
X332182337Y-127169107D02*
X315178692Y-131094719D01*
X315178692Y-131094719D02*
X310557267Y-128206921D01*
X354135135Y-129368063D02*
X340674592Y-132475672D01*
X340674592Y-132475672D02*
X332182337Y-127169107D01*
X377956253Y-126443165D02*
X357143827Y-131248068D01*
X357143827Y-131248068D02*
X354135135Y-129368063D01*
%TO.N,GP20*%
X306741124Y-108574346D02*
X286843510Y-113168070D01*
X286843510Y-113168070D02*
X285436651Y-115419520D01*
X329053695Y-107415344D02*
X311406387Y-111489530D01*
X311406387Y-111489530D02*
X306741124Y-108574346D01*
X351697771Y-109517086D02*
X337618884Y-112767472D01*
X337618884Y-112767472D02*
X329053695Y-107415344D01*
X375518867Y-106592266D02*
X354706495Y-111397156D01*
X354706495Y-111397156D02*
X351697771Y-109517086D01*
%TO.N,GP21*%
X302924952Y-88941832D02*
X282335347Y-93695291D01*
X282335347Y-93695291D02*
X280937602Y-95932114D01*
X325924985Y-87661593D02*
X307634044Y-91884384D01*
X307634044Y-91884384D02*
X302924952Y-88941832D01*
X349260353Y-89666175D02*
X334563129Y-93059301D01*
X334563129Y-93059301D02*
X325924985Y-87661593D01*
X373081489Y-86741326D02*
X352269073Y-91546206D01*
X352269073Y-91546206D02*
X349260353Y-89666175D01*
%TO.N,GP18*%
X294434668Y-154394296D02*
X276220541Y-158599362D01*
X276220541Y-158599362D02*
X274624289Y-161153828D01*
%TO.N,GP19*%
X289935676Y-134906896D02*
X271053252Y-139266252D01*
X271053252Y-139266252D02*
X269447950Y-141835300D01*
%TO.N,GP20*%
X285436651Y-115419520D02*
X265885995Y-119933124D01*
X265885995Y-119933124D02*
X264271519Y-122516783D01*
%TO.N,GP21*%
X280937602Y-95932114D02*
X260718755Y-100599990D01*
X260718755Y-100599990D02*
X259095159Y-103198253D01*
%TO.N,GP22*%
X275538806Y-72547242D02*
X254518077Y-77400291D01*
X254518077Y-77400291D02*
X252883554Y-80016066D01*
%TO.N,GP13*%
X113978891Y-152680192D02*
X116732243Y-156469876D01*
X116732243Y-156469876D02*
X133853597Y-159181630D01*
%TO.N,GP11*%
X122976969Y-113705359D02*
X125831490Y-117634315D01*
X125831490Y-117634315D02*
X144206407Y-120544599D01*
%TO.N,GP9*%
X132874793Y-70833110D02*
X135840614Y-74915218D01*
X135840614Y-74915218D02*
X155594390Y-78043876D01*
X38118472Y-61991535D02*
X39542120Y-60879248D01*
X63784795Y-67278199D02*
X78113150Y-69037499D01*
X39542120Y-60879248D02*
X60827277Y-63492757D01*
X60827277Y-63492757D02*
X61939587Y-64916453D01*
X113553535Y-68460698D02*
X132874775Y-70833088D01*
X61939587Y-64916453D02*
X63784795Y-67278199D01*
X78113150Y-69037499D02*
X86141550Y-62765009D01*
X88096334Y-61237810D02*
X110012794Y-63928814D01*
X110012794Y-63928814D02*
X113553535Y-68460698D01*
X86141550Y-62765009D02*
X88096334Y-61237810D01*
%TO.N,GP22*%
X322170584Y-63957033D02*
X300004297Y-66678718D01*
X300004297Y-66678718D02*
X298345514Y-65382748D01*
X346335525Y-65845092D02*
X327540867Y-68152796D01*
X327540867Y-68152796D02*
X322170584Y-63957033D01*
X370156612Y-62920207D02*
X369044311Y-64343880D01*
X369044311Y-64343880D02*
X347759192Y-66957374D01*
X347759192Y-66957374D02*
X346335525Y-65845092D01*
%TO.N,GP13*%
X113978889Y-152680190D02*
X114866118Y-152789112D01*
X93984815Y-146385522D02*
X97303059Y-150632655D01*
X97303059Y-150632655D02*
X113978889Y-152680190D01*
X73001042Y-145730857D02*
X75126799Y-144070017D01*
X75126799Y-144070017D02*
X93984815Y-146385522D01*
X51702539Y-148290305D02*
X52814851Y-149713963D01*
X52814851Y-149713963D02*
X65853742Y-151314924D01*
X65853742Y-151314924D02*
X73001042Y-145730857D01*
X27881471Y-145365444D02*
X29305148Y-144253142D01*
X29305148Y-144253142D02*
X50590241Y-146866651D01*
X50590241Y-146866651D02*
X51702539Y-148290305D01*
%TO.N,GP12*%
X118477930Y-133192750D02*
X122061620Y-137779678D01*
X122061620Y-137779678D02*
X139030012Y-139863112D01*
X97801032Y-126752940D02*
X98685552Y-126861571D01*
X98685552Y-126861571D02*
X102056747Y-131176488D01*
X102056747Y-131176488D02*
X118477930Y-133192750D01*
X76129740Y-125977096D02*
X78214780Y-124348042D01*
X78214780Y-124348042D02*
X97801032Y-126752940D01*
X54139931Y-128439404D02*
X55811021Y-130578260D01*
X55811021Y-130578260D02*
X68280831Y-132109359D01*
X68280831Y-132109359D02*
X76129740Y-125977096D01*
%TO.N,GP11*%
X32756202Y-105663609D02*
X34179878Y-104551304D01*
X34179878Y-104551304D02*
X55465060Y-107164794D01*
X55465060Y-107164794D02*
X56577339Y-108588499D01*
%TO.N,GP12*%
X30318816Y-125514554D02*
X31742508Y-124402269D01*
X31742508Y-124402269D02*
X53027654Y-127015742D01*
X53027654Y-127015742D02*
X54139931Y-128439404D01*
%TO.N,GP11*%
X122976973Y-113705351D02*
X123864212Y-113814292D01*
X101617190Y-107120396D02*
X105041384Y-111503159D01*
X105041384Y-111503159D02*
X122976973Y-113705351D01*
X79258409Y-106223354D02*
X81302784Y-104626116D01*
X81302784Y-104626116D02*
X101617190Y-107120396D01*
X56577339Y-108588499D02*
X59119095Y-111841762D01*
X59119095Y-111841762D02*
X70308650Y-113215678D01*
X70308650Y-113215678D02*
X79258409Y-106223354D01*
%TO.N,GP10*%
X127475945Y-94217985D02*
X131207766Y-98994470D01*
X131207766Y-98994470D02*
X149382760Y-101226092D01*
X105433381Y-87487861D02*
X108910536Y-91938432D01*
X108910536Y-91938432D02*
X127475945Y-94217985D01*
X82387118Y-86469574D02*
X84390804Y-84904156D01*
X84390804Y-84904156D02*
X105433381Y-87487861D01*
X59014701Y-88737524D02*
X60126982Y-90161208D01*
X60126982Y-90161208D02*
X75280559Y-92021822D01*
X75280559Y-92021822D02*
X82387118Y-86469574D01*
X35193605Y-85812704D02*
X36617265Y-84700406D01*
X36617265Y-84700406D02*
X57902401Y-87313885D01*
X57902401Y-87313885D02*
X59014701Y-88737524D01*
%TO.N,mirror_mods_bottom*%
X385812938Y-145628686D02*
X387956858Y-145365443D01*
X387956858Y-145365443D02*
X387956859Y-145365440D01*
%TO.N,GP18*%
X380393621Y-146294105D02*
X382537525Y-146030827D01*
X382537525Y-146030827D02*
X382537525Y-146030827D01*
%TO.N,GP19*%
X380100143Y-126179928D02*
X377956275Y-126443156D01*
X377956275Y-126443156D02*
X377956267Y-126443145D01*
%TO.N,mirror_mods_home*%
X385519463Y-125514527D02*
X383375561Y-125777737D01*
X383375561Y-125777737D02*
X383375526Y-125777766D01*
%TO.N,mirror_mods_top*%
X380938158Y-105926832D02*
X383082080Y-105663619D01*
X383082080Y-105663619D02*
X383082092Y-105663625D01*
%TO.N,GP20*%
X375518900Y-106592267D02*
X377662779Y-106329017D01*
X377662779Y-106329017D02*
X377662757Y-106329025D01*
%TO.N,GP21*%
X375225387Y-86478071D02*
X373081456Y-86741316D01*
X373081456Y-86741316D02*
X373081453Y-86741318D01*
%TO.N,mirror_mods_number*%
X380644657Y-85812672D02*
X378500806Y-86075932D01*
X378500806Y-86075932D02*
X378500781Y-86075951D01*
%TO.N,mirror_mods_function*%
X375575924Y-62254783D02*
X377719788Y-61991552D01*
X377719788Y-61991552D02*
X377719776Y-61991565D01*
%TO.N,GP22*%
X370156618Y-62920208D02*
X372300526Y-62656989D01*
X372300526Y-62656989D02*
X372300528Y-62656992D01*
X348479416Y-65581844D02*
X346335506Y-65845082D01*
X346335506Y-65845082D02*
X346335520Y-65845097D01*
%TO.N,mirror_pinky_function*%
X353898698Y-64916439D02*
X351754807Y-65179682D01*
X351754807Y-65179682D02*
X351754805Y-65179679D01*
%TO.N,mirror_pinky_number*%
X354679673Y-89000761D02*
X356823576Y-88737506D01*
X356823576Y-88737506D02*
X356823579Y-88737508D01*
%TO.N,GP21*%
X349260354Y-89666184D02*
X351404257Y-89402914D01*
X351404257Y-89402914D02*
X351404266Y-89402915D01*
%TO.N,GP20*%
X353841677Y-109253874D02*
X351697750Y-109517119D01*
X351697750Y-109517119D02*
X351697752Y-109517105D01*
%TO.N,mirror_pinky_top*%
X359260967Y-108588470D02*
X357117052Y-108851709D01*
X357117052Y-108851709D02*
X357117067Y-108851658D01*
%TO.N,GP19*%
X356279060Y-129104819D02*
X354135143Y-129368041D01*
X354135143Y-129368041D02*
X354135142Y-129368049D01*
%TO.N,mirror_pinky_home*%
X361698325Y-128439407D02*
X359554427Y-128702644D01*
X359554427Y-128702644D02*
X359554443Y-128702653D01*
%TO.N,GP18*%
X358716422Y-148955729D02*
X356572510Y-149218968D01*
X356572510Y-149218968D02*
X356572516Y-149218963D01*
%TO.N,mirror_pinky_bottom*%
X364135711Y-148290299D02*
X361991844Y-148553563D01*
X361991844Y-148553563D02*
X361991834Y-148553577D01*
%TO.N,mirror_ring_bottom*%
X340703817Y-146068740D02*
X342837228Y-145730853D01*
X342837228Y-145730853D02*
X342837246Y-145730811D01*
%TO.N,GP18*%
X337444453Y-146584988D02*
X335311066Y-146922905D01*
X335311066Y-146922905D02*
X335311059Y-146922890D01*
%TO.N,GP19*%
X334315762Y-126831231D02*
X332182405Y-127169123D01*
X332182405Y-127169123D02*
X332182400Y-127169125D01*
%TO.N,mirror_ring_home*%
X339708569Y-125977095D02*
X337575132Y-126314978D01*
X337575132Y-126314978D02*
X337575149Y-126314976D01*
%TO.N,mirror_ring_top*%
X334446441Y-106561214D02*
X336579839Y-106223312D01*
X336579839Y-106223312D02*
X336579867Y-106223337D01*
%TO.N,GP20*%
X329053697Y-107415330D02*
X331187071Y-107077477D01*
X331187071Y-107077477D02*
X331187080Y-107077482D01*
%TO.N,GP21*%
X328058360Y-87323685D02*
X325924987Y-87661594D01*
X325924987Y-87661594D02*
X325924992Y-87661616D01*
%TO.N,mirror_ring_number*%
X333451177Y-86469560D02*
X331317788Y-86807478D01*
X331317788Y-86807478D02*
X331317780Y-86807486D01*
%TO.N,GP22*%
X300465833Y-64970626D02*
X298345488Y-65382768D01*
X298345488Y-65382768D02*
X298345487Y-65382763D01*
%TO.N,mirror_middle_function*%
X305825527Y-63928820D02*
X303705233Y-64340962D01*
X303705233Y-64340962D02*
X303705220Y-64340958D01*
%TO.N,mirror_middle_number*%
X308284624Y-87899993D02*
X310404917Y-87487884D01*
X310404917Y-87487884D02*
X310404945Y-87487865D01*
%TO.N,GP21*%
X302924933Y-88941826D02*
X305045273Y-88529649D01*
X305045273Y-88529649D02*
X305045245Y-88529683D01*
%TO.N,mirror_middle_top*%
X312100790Y-107532539D02*
X314221105Y-107120406D01*
X314221105Y-107120406D02*
X314221114Y-107120430D01*
%TO.N,GP20*%
X308861448Y-108162227D02*
X306741139Y-108574347D01*
X306741139Y-108574347D02*
X306741124Y-108574335D01*
%TO.N,GP19*%
X312677576Y-127794793D02*
X310557281Y-128206930D01*
X310557281Y-128206930D02*
X310557270Y-128206929D01*
%TO.N,mirror_middle_home*%
X318037310Y-126752950D02*
X315916950Y-127165111D01*
X315916950Y-127165111D02*
X315916974Y-127165103D01*
%TO.N,mirror_middle_bottom*%
X319733175Y-146797619D02*
X321853434Y-146385506D01*
X321853434Y-146385506D02*
X321853479Y-146385482D01*
%TO.N,GP18*%
X316493776Y-147427321D02*
X314373469Y-147839454D01*
X314373469Y-147839454D02*
X314373461Y-147839451D01*
X296539292Y-153908442D02*
X294434685Y-154394311D01*
%TO.N,mirror_index_bottom*%
X301859354Y-152680186D02*
X299754730Y-153166086D01*
%TO.N,mirror_index_home*%
X295255727Y-133678654D02*
X297360350Y-133192781D01*
%TO.N,GP19*%
X289935663Y-134906895D02*
X292040298Y-134421013D01*
%TO.N,GP20*%
X287541312Y-114933582D02*
X285436667Y-115419526D01*
%TO.N,mirror_index_top*%
X292861344Y-113705374D02*
X290756718Y-114191257D01*
%TO.N,GP21*%
X280937598Y-95932104D02*
X283042261Y-95446201D01*
%TO.N,GP22*%
X277643452Y-72061287D02*
X275538791Y-72547237D01*
%TO.N,mirror_index_function*%
X282963507Y-70833073D02*
X280858876Y-71318996D01*
%TO.N,GP18*%
X276710734Y-160594800D02*
X274624327Y-161153871D01*
X274624327Y-161153871D02*
X274624337Y-161153875D01*
%TO.N,mirror_inner_bottom*%
X281984692Y-159181590D02*
X279898283Y-159740690D01*
X279898283Y-159740690D02*
X279898290Y-159740696D01*
%TO.N,GP19*%
X271534340Y-141276278D02*
X269447970Y-141835295D01*
X269447970Y-141835295D02*
X269447974Y-141835305D01*
%TO.N,mirror_inner_home*%
X276808322Y-139863110D02*
X274721912Y-140422186D01*
X274721912Y-140422186D02*
X274721917Y-140422166D01*
%TO.N,mirror_inner_top*%
X269545518Y-121103643D02*
X271631900Y-120544549D01*
X271631900Y-120544549D02*
X271631908Y-120544563D01*
%TO.N,GP20*%
X264271536Y-122516804D02*
X266357954Y-121957723D01*
X266357954Y-121957723D02*
X266357968Y-121957716D01*
%TO.N,mirror_inner_number*%
X264369138Y-101785114D02*
X266455547Y-101226090D01*
X266455547Y-101226090D02*
X266455514Y-101226084D01*
%TO.N,GP21*%
X261181568Y-102639241D02*
X259095169Y-103198278D01*
X259095169Y-103198278D02*
X259095159Y-103198285D01*
%TO.N,GP22*%
X254969925Y-79457018D02*
X252883552Y-80016045D01*
X252883552Y-80016045D02*
X252883555Y-80016055D01*
%TO.N,mirror_inner_function*%
X258157498Y-78602902D02*
X260243872Y-78043853D01*
X260243872Y-78043853D02*
X260243888Y-78043882D01*
%TO.N,mods_bottom*%
X33300748Y-146030879D02*
X35444641Y-146294093D01*
%TO.N,mods_home*%
X37882049Y-126443152D02*
X35738142Y-126179936D01*
%TO.N,mods_top*%
X40319426Y-106592269D02*
X38175556Y-106329001D01*
%TO.N,mods_number*%
X42756820Y-86741323D02*
X40612897Y-86478055D01*
%TO.N,mods_function*%
X43537782Y-62656976D02*
X45681676Y-62920226D01*
%TO.N,pinky_bottom*%
X59265733Y-149218961D02*
X57121841Y-148955712D01*
%TO.N,pinky_home*%
X59559241Y-129104833D02*
X61703152Y-129368083D01*
%TO.N,pinky_top*%
X61996649Y-109253869D02*
X64140559Y-109517102D01*
%TO.N,pinky_number*%
X64434014Y-89402910D02*
X66577959Y-89666200D01*
%TO.N,pinky_function*%
X67358872Y-65581842D02*
X69502782Y-65845070D01*
%TO.N,ring_bottom*%
X80527218Y-146922913D02*
X80527226Y-146922902D01*
X78393849Y-146584997D02*
X80527218Y-146922913D01*
%TO.N,ring_home*%
X81522527Y-126831207D02*
X81522522Y-126831243D01*
X83655930Y-127169123D02*
X81522527Y-126831207D01*
%TO.N,ring_top*%
X86784617Y-107415382D02*
X84651224Y-107077446D01*
X84651224Y-107077446D02*
X84651210Y-107077458D01*
%TO.N,ring_number*%
X89913334Y-87661569D02*
X89913317Y-87661584D01*
X87779882Y-87323736D02*
X89913334Y-87661569D01*
%TO.N,ring_function*%
X93667725Y-63957062D02*
X93667727Y-63957064D01*
X91534339Y-63619185D02*
X93667725Y-63957062D01*
X93602113Y-63873062D02*
X93667720Y-63957069D01*
%TO.N,middle_bottom*%
X99344539Y-147427320D02*
X99344499Y-147427297D01*
X101464818Y-147839418D02*
X99344539Y-147427320D01*
%TO.N,middle_home*%
X105280999Y-128206918D02*
X105281002Y-128206920D01*
X103160682Y-127794758D02*
X105280999Y-128206918D01*
%TO.N,middle_top*%
X106976875Y-108162240D02*
X109097169Y-108574386D01*
X109097169Y-108574386D02*
X109097171Y-108574372D01*
%TO.N,middle_number*%
X112913356Y-88941818D02*
X110793038Y-88529659D01*
X110793038Y-88529659D02*
X110793041Y-88529658D01*
%TO.N,middle_function*%
X115372469Y-64970592D02*
X117492761Y-65382762D01*
X117492761Y-65382762D02*
X117492752Y-65382782D01*
%TO.N,index_bottom*%
X119298981Y-153908405D02*
X121403590Y-154394273D01*
X121403590Y-154394273D02*
X121403599Y-154394291D01*
%TO.N,index_home*%
X123797989Y-134421051D02*
X123797993Y-134421042D01*
X125902595Y-134906908D02*
X123797989Y-134421051D01*
%TO.N,index_top*%
X130401662Y-115419474D02*
X128297003Y-114933586D01*
X128297003Y-114933586D02*
X128296991Y-114933598D01*
%TO.N,index_number*%
X134900652Y-95932097D02*
X134900652Y-95932097D01*
X132796014Y-95446216D02*
X134900652Y-95932097D01*
%TO.N,index_function*%
X140299504Y-72547239D02*
X140299484Y-72547200D01*
X138194867Y-72061329D02*
X140299504Y-72547239D01*
%TO.N,inner_bottom*%
X139127576Y-160594791D02*
X141213962Y-161153863D01*
X141213962Y-161153863D02*
X141213957Y-161153857D01*
%TO.N,inner_home*%
X146390334Y-141835334D02*
X146390324Y-141835317D01*
X144303964Y-141276271D02*
X146390334Y-141835334D01*
%TO.N,inner_top*%
X149480348Y-121957762D02*
X151566745Y-122516805D01*
X151566745Y-122516805D02*
X151566742Y-122516802D01*
%TO.N,inner_number*%
X154656690Y-102639261D02*
X154656691Y-102639258D01*
X156743101Y-103198239D02*
X154656690Y-102639261D01*
%TO.N,inner_function*%
X160868355Y-79457063D02*
X160868358Y-79457049D01*
X162954756Y-80016031D02*
X160868355Y-79457063D01*
%TO.N,left_middle*%
X160146949Y-206810210D02*
X160146953Y-206810209D01*
X158619608Y-208337563D02*
X160146949Y-206810210D01*
%TO.N,left_top*%
X146004852Y-192668064D02*
X144477469Y-194195390D01*
X144477469Y-194195390D02*
X144477499Y-194195412D01*
%TO.N,right_middle*%
X181006623Y-185950587D02*
X181006632Y-185950584D01*
X179479263Y-187477908D02*
X181006623Y-185950587D01*
%TO.N,keysNextToBig_bottom*%
X167571586Y-227669861D02*
X167571595Y-227669864D01*
X166044295Y-229197212D02*
X167571586Y-227669861D01*
%TO.N,keysNextToBigPart2_bottom*%
X181360175Y-213881286D02*
X181360187Y-213881272D01*
X179832848Y-215408608D02*
X181360175Y-213881286D01*
%TO.N,keysNextToBigPart3_bottom*%
X193621432Y-201620004D02*
X195148756Y-200092698D01*
X195148756Y-200092698D02*
X195148745Y-200092680D01*
%TO.N,mirror_left_middle*%
X259552127Y-210671032D02*
X261079473Y-212198308D01*
%TO.N,mirror_left_top*%
X273694258Y-196528842D02*
X275221604Y-198056233D01*
%TO.N,mirror_right_middle*%
X238692484Y-189811377D02*
X240219851Y-191338698D01*
%TO.N,mirror_keysNextToBig_bottom*%
X253654894Y-233058015D02*
X252127505Y-231530667D01*
%TO.N,mirror_keysNextToBigPart2_bottom*%
X239866263Y-219269414D02*
X238338882Y-217742099D01*
%TO.N,mirror_keysNextToBigPart3_bottom*%
X226077671Y-205480834D02*
X224550334Y-203953495D01*
%TO.N,GP13*%
X73001045Y-145730882D02*
X75134448Y-146068765D01*
X142144036Y-196528862D02*
X140616677Y-198056218D01*
X135940007Y-159740688D02*
X135939989Y-159740680D01*
X93984854Y-146385489D02*
X93984836Y-146385510D01*
X30025367Y-145628693D02*
X27881438Y-145365452D01*
X113978904Y-152680132D02*
X113978892Y-152680146D01*
X133853571Y-159181634D02*
X135940007Y-159740688D01*
X75134448Y-146068765D02*
X75134454Y-146068763D01*
X53846484Y-148553564D02*
X51702578Y-148290331D01*
X116083555Y-153166054D02*
X113978904Y-152680132D01*
X140616677Y-198056218D02*
X140616662Y-198056241D01*
X96105153Y-146797646D02*
X93984854Y-146385489D01*
%TO.N,GP12*%
X76129742Y-125977090D02*
X76129731Y-125977076D01*
X99921303Y-127165112D02*
X99921306Y-127165104D01*
X54139925Y-128439407D02*
X56283817Y-128702647D01*
X118477903Y-133192787D02*
X118477901Y-133192787D01*
X78263156Y-126314968D02*
X76129742Y-125977090D01*
X139029976Y-139863137D02*
X139029983Y-139863134D01*
X97800963Y-126752954D02*
X99921303Y-127165112D01*
X120582550Y-133678684D02*
X118477903Y-133192787D01*
X141116390Y-140422180D02*
X139029976Y-139863137D01*
X32462762Y-125777748D02*
X30318820Y-125514526D01*
%TO.N,GP11*%
X79258422Y-106223329D02*
X79258414Y-106223305D01*
X125081587Y-114191280D02*
X122976927Y-113705397D01*
X146292757Y-121103633D02*
X144206376Y-120544567D01*
X103737487Y-107532549D02*
X103737509Y-107532561D01*
X122976927Y-113705397D02*
X122976944Y-113705390D01*
X101617177Y-107120433D02*
X103737487Y-107532549D01*
X56577319Y-108588480D02*
X58721251Y-108851684D01*
X34900132Y-105926835D02*
X32756191Y-105663622D01*
X81391852Y-106561198D02*
X79258422Y-106223329D01*
X144206376Y-120544567D02*
X144206407Y-120544599D01*
%TO.N,GP10*%
X84520544Y-86807445D02*
X82387124Y-86469596D01*
X107553674Y-87899988D02*
X105433364Y-87487881D01*
X105433364Y-87487881D02*
X105433356Y-87487884D01*
X82387124Y-86469596D02*
X82387111Y-86469579D01*
X61158592Y-89000770D02*
X59014710Y-88737512D01*
X129580599Y-94703861D02*
X127475965Y-94217996D01*
X151469160Y-101785131D02*
X149382750Y-101226079D01*
X37337517Y-86075962D02*
X35193626Y-85812696D01*
X127475965Y-94217996D02*
X127475950Y-94217981D01*
X149382750Y-101226079D02*
X149382752Y-101226078D01*
%TO.N,GP9*%
X86207188Y-62849048D02*
X86141548Y-62764999D01*
X110012794Y-63928812D02*
X110012779Y-63928806D01*
X132874783Y-70833061D02*
X132874772Y-70833068D01*
X40262401Y-62254820D02*
X38118452Y-61991551D01*
X64083450Y-65179671D02*
X61939566Y-64916417D01*
X155594390Y-78043893D02*
X155594392Y-78043879D01*
X157680809Y-78602896D02*
X155594390Y-78043893D01*
X112133057Y-64340959D02*
X110012794Y-63928812D01*
X88274936Y-63102912D02*
X86141600Y-62765049D01*
X86141600Y-62765049D02*
X86141588Y-62765057D01*
X134979442Y-71318947D02*
X132874783Y-70833061D01*
%TO.N,GP14*%
X156286150Y-210671017D02*
X154758818Y-212198347D01*
X154758818Y-212198347D02*
X154758823Y-212198343D01*
X177145814Y-189811380D02*
X175618488Y-191338684D01*
X175618488Y-191338684D02*
X175618448Y-191338705D01*
%TO.N,GP15*%
X191287957Y-203953469D02*
X189760598Y-205480836D01*
X163710798Y-231530644D02*
X162183435Y-233057991D01*
X177499368Y-217742048D02*
X177499373Y-217742048D01*
X175972014Y-219269472D02*
X177499368Y-217742048D01*
X189760598Y-205480836D02*
X189760622Y-205480825D01*
X162183435Y-233057991D02*
X162183434Y-233057996D01*
%TO.N,GP18*%
X269833445Y-192668047D02*
X271360812Y-194195406D01*
%TO.N,GP17*%
X257218679Y-208337536D02*
X255691315Y-206810200D01*
X234831695Y-185950571D02*
X236359048Y-187477910D01*
%TO.N,GP16*%
X249794097Y-229197216D02*
X248266724Y-227669867D01*
X236005498Y-215408608D02*
X234478116Y-213881274D01*
X222216868Y-201620059D02*
X220689546Y-200092677D01*
%TO.N,mirror_index_number*%
X286257684Y-94703849D02*
X288362322Y-94217995D01*
%TO.N,mirror_ring_function*%
X329696708Y-62765027D02*
X329696734Y-62765006D01*
X327563346Y-63102933D02*
X329696708Y-62765027D01*
%TO.N,GP22*%
X324303968Y-63619175D02*
X322170587Y-63957031D01*
X322170587Y-63957031D02*
X322170571Y-63957016D01*
X291213016Y-74511976D02*
X279840774Y-75908286D01*
X279840774Y-75908286D02*
X275538813Y-72547230D01*
X298345514Y-65382748D02*
X291213016Y-74511976D01*
%TD*%
M02*
