%TF.GenerationSoftware,KiCad,Pcbnew,8.0.6*%
%TF.CreationDate,2024-12-18T16:31:54-08:00*%
%TF.ProjectId,gundamBowtie,67756e64-616d-4426-9f77-7469652e6b69,v1.0.0*%
%TF.SameCoordinates,Original*%
%TF.FileFunction,Soldermask,Top*%
%TF.FilePolarity,Negative*%
%FSLAX46Y46*%
G04 Gerber Fmt 4.6, Leading zero omitted, Abs format (unit mm)*
G04 Created by KiCad (PCBNEW 8.0.6) date 2024-12-18 16:31:54*
%MOMM*%
%LPD*%
G01*
G04 APERTURE LIST*
G04 Aperture macros list*
%AMRoundRect*
0 Rectangle with rounded corners*
0 $1 Rounding radius*
0 $2 $3 $4 $5 $6 $7 $8 $9 X,Y pos of 4 corners*
0 Add a 4 corners polygon primitive as box body*
4,1,4,$2,$3,$4,$5,$6,$7,$8,$9,$2,$3,0*
0 Add four circle primitives for the rounded corners*
1,1,$1+$1,$2,$3*
1,1,$1+$1,$4,$5*
1,1,$1+$1,$6,$7*
1,1,$1+$1,$8,$9*
0 Add four rect primitives between the rounded corners*
20,1,$1+$1,$2,$3,$4,$5,0*
20,1,$1+$1,$4,$5,$6,$7,0*
20,1,$1+$1,$6,$7,$8,$9,0*
20,1,$1+$1,$8,$9,$2,$3,0*%
G04 Aperture macros list end*
%ADD10RoundRect,0.050000X0.000000X-1.257236X1.257236X0.000000X0.000000X1.257236X-1.257236X0.000000X0*%
%ADD11RoundRect,0.050000X0.106066X-0.742462X0.742462X-0.106066X-0.106066X0.742462X-0.742462X0.106066X0*%
%ADD12C,2.005000*%
%ADD13C,1.801800*%
%ADD14C,3.100000*%
%ADD15C,4.087800*%
%ADD16RoundRect,0.050000X-1.257236X0.000000X0.000000X-1.257236X1.257236X0.000000X0.000000X1.257236X0*%
%ADD17RoundRect,0.050000X-0.742462X-0.106066X-0.106066X-0.742462X0.742462X0.106066X0.106066X0.742462X0*%
%ADD18RoundRect,0.050000X-0.990715X-0.774032X0.774032X-0.990715X0.990715X0.774032X-0.774032X0.990715X0*%
%ADD19RoundRect,0.050000X-0.519767X-0.540686X0.373524X-0.650369X0.519767X0.540686X-0.373524X0.650369X0*%
%ADD20RoundRect,0.050000X-1.017125X-0.738985X0.738985X-1.017125X1.017125X0.738985X-0.738985X1.017125X0*%
%ADD21RoundRect,0.050000X-0.538320X-0.522217X0.350599X-0.663009X0.538320X0.522217X-0.350599X0.663009X0*%
%ADD22RoundRect,0.050000X-1.042296X-0.703037X0.703037X-1.042296X1.042296X0.703037X-0.703037X1.042296X0*%
%ADD23RoundRect,0.050000X-0.556218X-0.503112X0.327247X-0.674840X0.556218X0.503112X-0.327247X0.674840X0*%
%ADD24RoundRect,0.050000X-0.703037X-1.042296X1.042296X-0.703037X0.703037X1.042296X-1.042296X0.703037X0*%
%ADD25RoundRect,0.050000X-0.327247X-0.674840X0.556218X-0.503112X0.327247X0.674840X-0.556218X0.503112X0*%
%ADD26O,1.800000X1.800000*%
%ADD27RoundRect,0.050000X-0.850000X-0.850000X0.850000X-0.850000X0.850000X0.850000X-0.850000X0.850000X0*%
%ADD28O,1.900000X1.900000*%
%ADD29O,1.600000X1.600000*%
%ADD30RoundRect,0.050000X-1.088798X-0.628618X0.628618X-1.088798X1.088798X0.628618X-0.628618X1.088798X0*%
%ADD31RoundRect,0.050000X-0.589958X-0.463087X0.279375X-0.696024X0.589958X0.463087X-0.279375X0.696024X0*%
%ADD32RoundRect,0.050000X-0.774032X-0.990715X0.990715X-0.774032X0.774032X0.990715X-0.990715X0.774032X0*%
%ADD33RoundRect,0.050000X-0.373524X-0.650369X0.519767X-0.540686X0.373524X0.650369X-0.519767X0.540686X0*%
%ADD34RoundRect,0.050000X-0.666234X-1.066196X1.066196X-0.666234X0.666234X1.066196X-1.066196X0.666234X0*%
%ADD35RoundRect,0.050000X-0.303496X-0.685850X0.573437X-0.483394X0.303496X0.685850X-0.573437X0.483394X0*%
%ADD36C,0.800000*%
%ADD37C,4.500000*%
%ADD38RoundRect,0.050000X-0.738985X-1.017125X1.017125X-0.738985X0.738985X1.017125X-1.017125X0.738985X0*%
%ADD39RoundRect,0.050000X-0.350599X-0.663009X0.538320X-0.522217X0.350599X0.663009X-0.538320X0.522217X0*%
%ADD40RoundRect,0.050000X-0.628618X-1.088798X1.088798X-0.628618X0.628618X1.088798X-1.088798X0.628618X0*%
%ADD41RoundRect,0.050000X-0.279375X-0.696024X0.589958X-0.463087X0.279375X0.696024X-0.589958X0.463087X0*%
%ADD42RoundRect,0.050000X-1.066196X-0.666234X0.666234X-1.066196X1.066196X0.666234X-0.666234X1.066196X0*%
%ADD43RoundRect,0.050000X-0.573437X-0.483394X0.303496X-0.685850X0.573437X0.483394X-0.303496X0.685850X0*%
%ADD44RoundRect,0.050000X-0.550000X0.900000X-0.550000X-0.900000X0.550000X-0.900000X0.550000X0.900000X0*%
G04 APERTURE END LIST*
D10*
%TO.C,D34*%
X162183448Y-233057988D03*
D11*
X163710795Y-231530634D03*
X166044247Y-229197180D03*
D12*
X167571594Y-227669826D03*
%TD*%
D13*
%TO.C,S52*%
X312172762Y-143173675D03*
D14*
X312934768Y-140438016D03*
D15*
X317159427Y-142204366D03*
D14*
X318683451Y-136733044D03*
D13*
X322146092Y-141235057D03*
%TD*%
%TO.C,S66*%
X250362686Y-75515158D03*
D14*
X250932018Y-72733015D03*
D15*
X255269596Y-74200360D03*
D14*
X256408246Y-68636051D03*
D13*
X260176506Y-72885562D03*
%TD*%
D16*
%TO.C,D71*%
X234478135Y-213881267D03*
D17*
X236005489Y-215408614D03*
X238338943Y-217742066D03*
D12*
X239866297Y-219269413D03*
%TD*%
D18*
%TO.C,D8*%
X56577332Y-108588468D03*
D19*
X58721230Y-108851702D03*
X61996636Y-109253870D03*
D12*
X64140534Y-109517104D03*
%TD*%
D20*
%TO.C,D12*%
X76129728Y-125977093D03*
D21*
X78263140Y-126314988D03*
X81522500Y-126831226D03*
D12*
X83655912Y-127169121D03*
%TD*%
D13*
%TO.C,S12*%
X75657545Y-120839953D03*
D14*
X77309254Y-118529889D03*
D15*
X80674998Y-121634635D03*
D14*
X83978416Y-117014521D03*
D13*
X85692451Y-122429317D03*
%TD*%
D22*
%TO.C,D18*%
X101617200Y-107120422D03*
D23*
X103737517Y-107532561D03*
X106976883Y-108162241D03*
D12*
X109097200Y-108574380D03*
%TD*%
D24*
%TO.C,D55*%
X302924937Y-88941812D03*
D25*
X305045250Y-88529673D03*
X308284622Y-87900005D03*
D12*
X310404935Y-87487866D03*
%TD*%
D13*
%TO.C,S27*%
X139097372Y-134704771D03*
D14*
X140981495Y-132580012D03*
D15*
X144004273Y-136019571D03*
D14*
X147772528Y-131770067D03*
D13*
X148911174Y-137334371D03*
%TD*%
D26*
%TO.C,_1*%
X210459144Y-179238110D03*
D27*
X207919158Y-179238108D03*
D26*
X205379148Y-179238123D03*
X216809144Y-131208111D03*
X216809147Y-133748113D03*
D27*
X216809160Y-136288107D03*
D26*
X216809148Y-138828099D03*
X216809153Y-141368114D03*
X216809146Y-143908108D03*
X216809147Y-146448106D03*
D27*
X216809142Y-148988114D03*
D26*
X216809145Y-151528110D03*
X216809148Y-154068102D03*
X216809143Y-156608112D03*
X216809143Y-159148111D03*
D27*
X216809154Y-161688111D03*
D26*
X216809149Y-164228110D03*
X216809147Y-166768115D03*
X216809149Y-169308103D03*
X216809150Y-171848107D03*
D27*
X216809127Y-174388118D03*
D26*
X216809143Y-176928106D03*
X216809147Y-179468111D03*
X199029148Y-179468107D03*
X199029145Y-176928105D03*
D27*
X199029132Y-174388111D03*
D26*
X199029144Y-171848119D03*
X199029139Y-169308104D03*
X199029146Y-166768110D03*
X199029145Y-164228112D03*
D27*
X199029150Y-161688104D03*
D26*
X199029147Y-159148108D03*
X199029144Y-156608116D03*
X199029149Y-154068106D03*
X199029149Y-151528107D03*
D27*
X199029138Y-148988107D03*
D26*
X199029143Y-146448108D03*
X199029145Y-143908103D03*
X199029143Y-141368115D03*
X199029142Y-138828111D03*
D27*
X199029165Y-136288100D03*
D26*
X199029149Y-133748112D03*
X199029145Y-131208107D03*
D28*
X210644156Y-131338118D03*
D29*
X210344141Y-134368107D03*
X205494142Y-134368111D03*
D28*
X205194158Y-131338107D03*
%TD*%
D13*
%TO.C,S46*%
X344465663Y-61037099D03*
D14*
X345416636Y-58361260D03*
D15*
X349507786Y-60418005D03*
D14*
X351409758Y-55066315D03*
D13*
X354549909Y-59798911D03*
%TD*%
%TO.C,S28*%
X144273764Y-115386260D03*
D14*
X146157887Y-113261501D03*
D15*
X149180665Y-116701060D03*
D14*
X152948920Y-112451556D03*
D13*
X154087566Y-118015860D03*
%TD*%
%TO.C,S2*%
X29667663Y-120397054D03*
D14*
X31237738Y-118030757D03*
D15*
X34709790Y-121016146D03*
D14*
X37849954Y-116283559D03*
D13*
X39751917Y-121635238D03*
%TD*%
D30*
%TO.C,D28*%
X144206372Y-120544585D03*
D31*
X146292772Y-121103624D03*
X149480322Y-121957746D03*
D12*
X151566722Y-122516785D03*
%TD*%
D32*
%TO.C,D39*%
X375518842Y-106592271D03*
D33*
X377662735Y-106329028D03*
X380938155Y-105926862D03*
D12*
X383082048Y-105663619D03*
%TD*%
D13*
%TO.C,S11*%
X72528882Y-140593772D03*
D14*
X74180591Y-138283708D03*
D15*
X77546335Y-141388454D03*
D14*
X80849753Y-136768340D03*
D13*
X82563788Y-142183136D03*
%TD*%
D18*
%TO.C,D4*%
X35193599Y-85812684D03*
D19*
X37337497Y-86075918D03*
X40612903Y-86478086D03*
D12*
X42756801Y-86741320D03*
%TD*%
D13*
%TO.C,S47*%
X333274538Y-142183095D03*
D14*
X334131536Y-139475695D03*
D15*
X338291982Y-141388412D03*
D14*
X340006026Y-135973606D03*
D13*
X343309426Y-140593729D03*
%TD*%
%TO.C,S45*%
X347390519Y-84858232D03*
D14*
X348341492Y-82182393D03*
D15*
X352432642Y-84239138D03*
D14*
X354334614Y-78887448D03*
D13*
X357474765Y-83620044D03*
%TD*%
D10*
%TO.C,D36*%
X189760651Y-205480852D03*
D11*
X191287998Y-203953498D03*
X193621450Y-201620044D03*
D12*
X195148797Y-200092690D03*
%TD*%
D34*
%TO.C,D58*%
X289935682Y-134906909D03*
D35*
X292040319Y-134421013D03*
X295255741Y-133678677D03*
D12*
X297360378Y-133192781D03*
%TD*%
D18*
%TO.C,D10*%
X61939597Y-64916422D03*
D19*
X64083495Y-65179656D03*
X67358901Y-65581824D03*
D12*
X69502799Y-65845058D03*
%TD*%
D13*
%TO.C,S72*%
X223327057Y-195659144D03*
D14*
X226021135Y-194761113D03*
D15*
X226919154Y-199251243D03*
D14*
X232307319Y-197455187D03*
D13*
X230511251Y-202843342D03*
%TD*%
%TO.C,S30*%
X155661797Y-72885505D03*
D14*
X157545920Y-70760746D03*
D15*
X160568698Y-74200305D03*
D14*
X164336953Y-69950801D03*
D13*
X165475599Y-75515105D03*
%TD*%
%TO.C,S7*%
X53488793Y-123321856D03*
D14*
X55058868Y-120955559D03*
D15*
X58530920Y-123940948D03*
D14*
X61671084Y-119208361D03*
D13*
X63573047Y-124560040D03*
%TD*%
D32*
%TO.C,D41*%
X370156603Y-62920214D03*
D33*
X372300496Y-62656971D03*
X375575916Y-62254805D03*
D12*
X377719809Y-61991562D03*
%TD*%
D13*
%TO.C,S15*%
X85669336Y-57627919D03*
D14*
X87321045Y-55317855D03*
D15*
X90686789Y-58422601D03*
D14*
X93990207Y-53802487D03*
D13*
X95704242Y-59217283D03*
%TD*%
%TO.C,S59*%
X283074422Y-110833328D03*
D14*
X283740500Y-108072747D03*
D15*
X288024232Y-109690581D03*
D14*
X289356380Y-104169402D03*
D13*
X292974042Y-108547834D03*
%TD*%
D32*
%TO.C,D42*%
X356572503Y-149218954D03*
D33*
X358716396Y-148955711D03*
X361991816Y-148553545D03*
D12*
X364135709Y-148290302D03*
%TD*%
D13*
%TO.C,S16*%
X93692183Y-141235051D03*
D14*
X95423496Y-138984041D03*
D15*
X98678845Y-142204360D03*
D14*
X102141488Y-137702351D03*
D13*
X103665507Y-143173669D03*
%TD*%
D18*
%TO.C,D2*%
X30318832Y-125514531D03*
D19*
X32462730Y-125777765D03*
X35738136Y-126179933D03*
D12*
X37882034Y-126443167D03*
%TD*%
D24*
%TO.C,D52*%
X314373483Y-147839441D03*
D25*
X316493796Y-147427302D03*
X319733168Y-146797634D03*
D12*
X321853481Y-146385495D03*
%TD*%
D16*
%TO.C,D68*%
X269833451Y-192668066D03*
D17*
X271360805Y-194195413D03*
X273694259Y-196528865D03*
D12*
X275221613Y-198056212D03*
%TD*%
D13*
%TO.C,S32*%
X136183138Y-195418697D03*
D14*
X135285107Y-192724619D03*
D15*
X139775237Y-191826600D03*
D14*
X137979181Y-186438435D03*
D13*
X143367336Y-188234503D03*
%TD*%
D30*
%TO.C,D30*%
X155594407Y-78043884D03*
D31*
X157680807Y-78602923D03*
X160868357Y-79457045D03*
D12*
X162954757Y-80016084D03*
%TD*%
D32*
%TO.C,D40*%
X373081491Y-86741308D03*
D33*
X375225384Y-86478065D03*
X378500804Y-86075899D03*
D12*
X380644697Y-85812656D03*
%TD*%
D32*
%TO.C,D43*%
X354135141Y-129368063D03*
D33*
X356279034Y-129104820D03*
X359554454Y-128702654D03*
D12*
X361698347Y-128439411D03*
%TD*%
D18*
%TO.C,D1*%
X27881439Y-145365428D03*
D19*
X30025337Y-145628662D03*
X33300743Y-146030830D03*
D12*
X35444641Y-146294064D03*
%TD*%
D13*
%TO.C,S53*%
X308356596Y-123541124D03*
D14*
X309118602Y-120805465D03*
D15*
X313343261Y-122571815D03*
D14*
X314867285Y-117100493D03*
D13*
X318329926Y-121602506D03*
%TD*%
D36*
%TO.C,_3*%
X361838610Y-70994100D03*
X362460477Y-72093235D03*
X362176102Y-69777174D03*
X363677403Y-72430727D03*
D37*
X363476320Y-70793017D03*
D36*
X363275237Y-69155307D03*
X364776538Y-71808860D03*
X364492163Y-69492799D03*
X365114030Y-70591934D03*
%TD*%
D13*
%TO.C,S51*%
X320134052Y-59217320D03*
D14*
X320991050Y-56509920D03*
D15*
X325151496Y-58422637D03*
D14*
X326865540Y-53007831D03*
D13*
X330168940Y-57627954D03*
%TD*%
%TO.C,S25*%
X132762162Y-65675536D03*
D14*
X134570977Y-63486318D03*
D15*
X137711956Y-66818290D03*
D14*
X141329609Y-62439864D03*
D13*
X142661750Y-67961044D03*
%TD*%
D32*
%TO.C,D45*%
X349260365Y-89666168D03*
D33*
X351404258Y-89402925D03*
X354679678Y-89000759D03*
D12*
X356823571Y-88737516D03*
%TD*%
D36*
%TO.C,_8*%
X165351189Y-141739499D03*
X165516016Y-142991558D03*
X166119966Y-140737612D03*
X167372025Y-140572785D03*
D37*
X166944964Y-142166560D03*
D36*
X166517903Y-143760335D03*
X167769962Y-143595508D03*
X168373912Y-141341562D03*
X168538739Y-142593621D03*
%TD*%
D13*
%TO.C,S67*%
X258328855Y-202376641D03*
D14*
X261022933Y-201478610D03*
D15*
X261920952Y-205968740D03*
D14*
X267309117Y-204172684D03*
D13*
X265513049Y-209560839D03*
%TD*%
D32*
%TO.C,D38*%
X377956267Y-126443168D03*
D33*
X380100160Y-126179925D03*
X383375580Y-125777759D03*
D12*
X385519473Y-125514516D03*
%TD*%
D13*
%TO.C,S22*%
X118365219Y-128035248D03*
D14*
X120174034Y-125846030D03*
D15*
X123315013Y-129178002D03*
D14*
X126932666Y-124799576D03*
D13*
X128264807Y-130320756D03*
%TD*%
D38*
%TO.C,D51*%
X322170573Y-63957022D03*
D39*
X324303976Y-63619136D03*
X327563350Y-63102904D03*
D12*
X329696753Y-62765018D03*
%TD*%
D40*
%TO.C,D63*%
X269447966Y-141835308D03*
D41*
X271534367Y-141276255D03*
X274721921Y-140422153D03*
D12*
X276808322Y-139863100D03*
%TD*%
D13*
%TO.C,S56*%
X296144831Y-60716993D03*
D14*
X296906837Y-57981334D03*
D15*
X301131496Y-59747684D03*
D14*
X302655520Y-54276362D03*
D13*
X306118161Y-58778375D03*
%TD*%
D42*
%TO.C,D22*%
X118477945Y-133192776D03*
D43*
X120582580Y-133678668D03*
X123798018Y-134421016D03*
D12*
X125902653Y-134906908D03*
%TD*%
D13*
%TO.C,S23*%
X122864262Y-108547853D03*
D14*
X124673077Y-106358635D03*
D15*
X127814056Y-109690607D03*
D14*
X131431709Y-105312181D03*
D13*
X132763850Y-110833361D03*
%TD*%
%TO.C,S50*%
X323888487Y-82921837D03*
D14*
X324745485Y-80214437D03*
D15*
X328905931Y-82127154D03*
D14*
X330619975Y-76712348D03*
D13*
X333923375Y-81332471D03*
%TD*%
%TO.C,S54*%
X304540403Y-103908526D03*
D14*
X305302409Y-101172867D03*
D15*
X309527068Y-102939217D03*
D14*
X311051092Y-97467895D03*
D13*
X314513733Y-101969908D03*
%TD*%
%TO.C,S63*%
X266927130Y-137334353D03*
D14*
X267496462Y-134552210D03*
D15*
X271834040Y-136019555D03*
D14*
X272972690Y-130455246D03*
D13*
X276740950Y-134704757D03*
%TD*%
D34*
%TO.C,D60*%
X280937626Y-95932102D03*
D35*
X283042263Y-95446206D03*
X286257685Y-94703870D03*
D12*
X288362322Y-94217974D03*
%TD*%
D16*
%TO.C,D69*%
X234831694Y-185950547D03*
D17*
X236359048Y-187477894D03*
X238692502Y-189811346D03*
D12*
X240219856Y-191338693D03*
%TD*%
D13*
%TO.C,S62*%
X272103506Y-156652890D03*
D14*
X272672838Y-153870747D03*
D15*
X277010416Y-155338092D03*
D14*
X278149066Y-149773783D03*
D13*
X281917326Y-154023294D03*
%TD*%
D30*
%TO.C,D29*%
X149382713Y-101226076D03*
D31*
X151469113Y-101785115D03*
X154656663Y-102639237D03*
D12*
X156743063Y-103198276D03*
%TD*%
D13*
%TO.C,S57*%
X292072454Y-149808154D03*
D14*
X292738532Y-147047573D03*
D15*
X297022264Y-148665407D03*
D14*
X298354412Y-143144228D03*
D13*
X301972074Y-147522660D03*
%TD*%
D16*
%TO.C,D67*%
X255691310Y-206810226D03*
D17*
X257218664Y-208337573D03*
X259552118Y-210671025D03*
D12*
X261079472Y-212198372D03*
%TD*%
D13*
%TO.C,S42*%
X354702636Y-144410991D03*
D14*
X355653609Y-141735152D03*
D15*
X359744759Y-143791897D03*
D14*
X361646731Y-138440207D03*
D13*
X364786882Y-143172803D03*
%TD*%
%TO.C,S69*%
X237469159Y-181517017D03*
D14*
X240163237Y-180618986D03*
D15*
X241061256Y-185109116D03*
D14*
X246449421Y-183313060D03*
D13*
X244653353Y-188701215D03*
%TD*%
%TO.C,S43*%
X352265269Y-124560034D03*
D14*
X353216242Y-121884195D03*
D15*
X357307392Y-123940940D03*
D14*
X359209364Y-118589250D03*
D13*
X362349515Y-123321846D03*
%TD*%
%TO.C,S5*%
X47551549Y-58112256D03*
D14*
X45649586Y-52760577D03*
D15*
X42509422Y-57493164D03*
D14*
X39037370Y-54507775D03*
D13*
X37467295Y-56874072D03*
%TD*%
%TO.C,S58*%
X287573416Y-130320753D03*
D14*
X288239494Y-127560172D03*
D15*
X292523226Y-129178006D03*
D14*
X293855374Y-123656827D03*
D13*
X297473036Y-128035259D03*
%TD*%
D10*
%TO.C,D31*%
X154758799Y-212198368D03*
D11*
X156286146Y-210671014D03*
X158619598Y-208337560D03*
D12*
X160146945Y-206810206D03*
%TD*%
D30*
%TO.C,D27*%
X139030014Y-139863138D03*
D31*
X141116414Y-140422177D03*
X144303964Y-141276299D03*
D12*
X146390364Y-141835338D03*
%TD*%
D13*
%TO.C,S29*%
X149450122Y-96067736D03*
D14*
X151334245Y-93942977D03*
D15*
X154357023Y-97382536D03*
D14*
X158125278Y-93133032D03*
D13*
X159263924Y-98697336D03*
%TD*%
%TO.C,S49*%
X327017148Y-102675609D03*
D14*
X327874146Y-99968209D03*
D15*
X332034592Y-101880926D03*
D14*
X333748636Y-96466120D03*
D13*
X337052036Y-101086243D03*
%TD*%
D36*
%TO.C,_4*%
X144512588Y-80704059D03*
X144721022Y-81949597D03*
X145245943Y-79675948D03*
X146491481Y-79467514D03*
D37*
X146120307Y-81075233D03*
D36*
X145749133Y-82682952D03*
X146994671Y-82474518D03*
X147519592Y-80200869D03*
X147728026Y-81446407D03*
%TD*%
%TO.C,_9*%
X247299489Y-142593601D03*
X247464325Y-141341548D03*
X248068264Y-143595491D03*
X249320317Y-143760327D03*
D37*
X248893266Y-142166550D03*
D36*
X248466215Y-140572773D03*
X249718268Y-140737609D03*
X250322207Y-142991552D03*
X250487043Y-141739499D03*
%TD*%
D34*
%TO.C,D61*%
X275538809Y-72547253D03*
D35*
X277643446Y-72061357D03*
X280858868Y-71319021D03*
D12*
X282963505Y-70833125D03*
%TD*%
D13*
%TO.C,S19*%
X105140746Y-82337398D03*
D14*
X106872059Y-80086388D03*
D15*
X110127408Y-83306707D03*
D14*
X113590051Y-78804698D03*
D13*
X115114070Y-84276016D03*
%TD*%
D20*
%TO.C,D11*%
X73001053Y-145730843D03*
D21*
X75134465Y-146068738D03*
X78393825Y-146584976D03*
D12*
X80527237Y-146922871D03*
%TD*%
D13*
%TO.C,S35*%
X171538440Y-216631927D03*
D14*
X170640409Y-213937849D03*
D15*
X175130539Y-213039830D03*
D14*
X173334483Y-207651665D03*
D13*
X178722638Y-209447733D03*
%TD*%
D16*
%TO.C,D72*%
X220689516Y-200092698D03*
D17*
X222216870Y-201620045D03*
X224550324Y-203953497D03*
D12*
X226077678Y-205480844D03*
%TD*%
D13*
%TO.C,S38*%
X376086365Y-121635199D03*
D14*
X377037338Y-118959360D03*
D15*
X381128488Y-121016105D03*
D14*
X383030460Y-115664415D03*
D13*
X386170611Y-120397011D03*
%TD*%
D32*
%TO.C,D37*%
X380393630Y-146294086D03*
D33*
X382537523Y-146030843D03*
X385812943Y-145628677D03*
D12*
X387956836Y-145365434D03*
%TD*%
D13*
%TO.C,S24*%
X127363294Y-89060446D03*
D14*
X129172109Y-86871228D03*
D15*
X132313088Y-90203200D03*
D14*
X135930741Y-85824774D03*
D13*
X137262882Y-91345954D03*
%TD*%
%TO.C,S39*%
X373649023Y-101784297D03*
D14*
X374599996Y-99108458D03*
D15*
X378691146Y-101165203D03*
D14*
X380593118Y-95813513D03*
D13*
X383733269Y-100546109D03*
%TD*%
%TO.C,S65*%
X256574315Y-98697353D03*
D14*
X257143647Y-95915210D03*
D15*
X261481225Y-97382555D03*
D14*
X262619875Y-91818246D03*
D13*
X266388135Y-96067757D03*
%TD*%
D40*
%TO.C,D62*%
X274624307Y-161153842D03*
D41*
X276710708Y-160594789D03*
X279898262Y-159740687D03*
D12*
X281984663Y-159181634D03*
%TD*%
D38*
%TO.C,D49*%
X329053688Y-107415326D03*
D39*
X331187091Y-107077440D03*
X334446465Y-106561208D03*
D12*
X336579868Y-106223322D03*
%TD*%
D20*
%TO.C,D15*%
X86141574Y-62765044D03*
D21*
X88274986Y-63102939D03*
X91534346Y-63619177D03*
D12*
X93667758Y-63957072D03*
%TD*%
D13*
%TO.C,S34*%
X157749871Y-230420492D03*
D14*
X156851840Y-227726414D03*
D15*
X161341970Y-226828395D03*
D14*
X159545914Y-221440230D03*
D13*
X164934069Y-223236298D03*
%TD*%
%TO.C,S6*%
X51051386Y-143172844D03*
D14*
X52621461Y-140806547D03*
D15*
X56093513Y-143791936D03*
D14*
X59233677Y-139059349D03*
D13*
X61135640Y-144411028D03*
%TD*%
D36*
%TO.C,_6*%
X89808442Y-179191307D03*
X90505461Y-178138231D03*
X90060209Y-180428811D03*
X91742965Y-177886464D03*
D37*
X91428125Y-179506147D03*
D36*
X91113285Y-181125830D03*
X92796041Y-178583483D03*
X92350789Y-180874063D03*
X93047808Y-179820987D03*
%TD*%
D13*
%TO.C,S3*%
X32105038Y-100546103D03*
D14*
X33675113Y-98179806D03*
D15*
X37147165Y-101165195D03*
D14*
X40287329Y-96432608D03*
D13*
X42189292Y-101784287D03*
%TD*%
D36*
%TO.C,_2*%
X50724313Y-70591939D03*
X51061796Y-71808861D03*
X51346178Y-69492803D03*
X52563100Y-69155320D03*
D37*
X52362016Y-70793023D03*
D36*
X52160932Y-72430726D03*
X53377854Y-72093243D03*
X53662236Y-69777185D03*
X53999719Y-70994107D03*
%TD*%
D13*
%TO.C,S10*%
X61288418Y-59798927D03*
D14*
X62858493Y-57432630D03*
D15*
X66330545Y-60418019D03*
D14*
X69470709Y-55685432D03*
D13*
X71372672Y-61037111D03*
%TD*%
D22*
%TO.C,D16*%
X93984821Y-146385521D03*
D23*
X96105138Y-146797660D03*
X99344504Y-147427340D03*
D12*
X101464821Y-147839479D03*
%TD*%
D13*
%TO.C,S40*%
X371211618Y-81933340D03*
D14*
X372162591Y-79257501D03*
D15*
X376253741Y-81314246D03*
D14*
X378155713Y-75962556D03*
D13*
X381295864Y-80695152D03*
%TD*%
D38*
%TO.C,D48*%
X332182374Y-127169111D03*
D39*
X334315777Y-126831225D03*
X337575151Y-126314993D03*
D12*
X339708554Y-125977107D03*
%TD*%
D40*
%TO.C,D66*%
X252883564Y-80016084D03*
D41*
X254969965Y-79457031D03*
X258157519Y-78602929D03*
D12*
X260243920Y-78043876D03*
%TD*%
D13*
%TO.C,S17*%
X97508352Y-121602466D03*
D14*
X99239665Y-119351456D03*
D15*
X102495014Y-122571775D03*
D14*
X105957657Y-118069766D03*
D13*
X107481676Y-123541084D03*
%TD*%
%TO.C,S14*%
X81914920Y-81332421D03*
D14*
X83566629Y-79022357D03*
D15*
X86932373Y-82127103D03*
D14*
X90235791Y-77506989D03*
D13*
X91949826Y-82921785D03*
%TD*%
%TO.C,S13*%
X78786275Y-101086213D03*
D14*
X80437984Y-98776149D03*
D15*
X83803728Y-101880895D03*
D14*
X87107146Y-97260781D03*
D13*
X88821181Y-102675577D03*
%TD*%
D34*
%TO.C,D59*%
X285436669Y-115419508D03*
D35*
X287541306Y-114933612D03*
X290756728Y-114191276D03*
D12*
X292861365Y-113705380D03*
%TD*%
D13*
%TO.C,S20*%
X109720158Y-58778349D03*
D14*
X111451471Y-56527339D03*
D15*
X114706820Y-59747658D03*
D14*
X118169463Y-55245649D03*
D13*
X119693482Y-60716967D03*
%TD*%
D24*
%TO.C,D56*%
X298345539Y-65382756D03*
D25*
X300465852Y-64970617D03*
X303705224Y-64340949D03*
D12*
X305825537Y-63928810D03*
%TD*%
D13*
%TO.C,S71*%
X237115645Y-209447709D03*
D14*
X239809723Y-208549678D03*
D15*
X240707742Y-213039808D03*
D14*
X246095907Y-211243752D03*
D13*
X244299839Y-216631907D03*
%TD*%
%TO.C,S36*%
X185327034Y-202843325D03*
D14*
X184429003Y-200149247D03*
D15*
X188919133Y-199251228D03*
D14*
X187123077Y-193863063D03*
D13*
X192511232Y-195659131D03*
%TD*%
D24*
%TO.C,D54*%
X306741115Y-108574346D03*
D25*
X308861428Y-108162207D03*
X312100800Y-107532539D03*
D12*
X314221113Y-107120400D03*
%TD*%
D10*
%TO.C,D33*%
X175618453Y-191338692D03*
D11*
X177145800Y-189811338D03*
X179479252Y-187477884D03*
D12*
X181006599Y-185950530D03*
%TD*%
D13*
%TO.C,S61*%
X273176612Y-67961044D03*
D14*
X273842690Y-65200463D03*
D15*
X278126422Y-66818297D03*
D14*
X279458570Y-61297118D03*
D13*
X283076232Y-65675550D03*
%TD*%
D42*
%TO.C,D23*%
X122976965Y-113705372D03*
D43*
X125081600Y-114191264D03*
X128297038Y-114933612D03*
D12*
X130401673Y-115419504D03*
%TD*%
D13*
%TO.C,S33*%
X171184907Y-188701208D03*
D14*
X170286876Y-186007130D03*
D15*
X174777006Y-185109111D03*
D14*
X172980950Y-179720946D03*
D13*
X178369105Y-181517014D03*
%TD*%
D22*
%TO.C,D17*%
X97801032Y-126752958D03*
D23*
X99921349Y-127165097D03*
X103160715Y-127794777D03*
D12*
X105281032Y-128206916D03*
%TD*%
D13*
%TO.C,S68*%
X272470968Y-188234524D03*
D14*
X275165046Y-187336493D03*
D15*
X276063065Y-191826623D03*
D14*
X281451230Y-190030567D03*
D13*
X279655162Y-195418722D03*
%TD*%
D30*
%TO.C,D26*%
X133853628Y-159181640D03*
D31*
X135940028Y-159740679D03*
X139127578Y-160594801D03*
D12*
X141213978Y-161153840D03*
%TD*%
D13*
%TO.C,S55*%
X300724218Y-84276032D03*
D14*
X301486224Y-81540373D03*
D15*
X305710883Y-83306723D03*
D14*
X307234907Y-77835401D03*
D13*
X310697548Y-82337414D03*
%TD*%
D38*
%TO.C,D50*%
X325925008Y-87661603D03*
D39*
X328058411Y-87323717D03*
X331317785Y-86807485D03*
D12*
X333451188Y-86469599D03*
%TD*%
D24*
%TO.C,D53*%
X310557253Y-128206901D03*
D25*
X312677566Y-127794762D03*
X315916938Y-127165094D03*
D12*
X318037251Y-126752955D03*
%TD*%
D13*
%TO.C,S44*%
X349827915Y-104709155D03*
D14*
X350778888Y-102033316D03*
D15*
X354870038Y-104090061D03*
D14*
X356772010Y-98738371D03*
D13*
X359912161Y-103470967D03*
%TD*%
D10*
%TO.C,D32*%
X140616680Y-198056222D03*
D11*
X142144027Y-196528868D03*
X144477479Y-194195414D03*
D12*
X146004826Y-192668060D03*
%TD*%
D40*
%TO.C,D64*%
X264271534Y-122516761D03*
D41*
X266357935Y-121957708D03*
X269545489Y-121103606D03*
D12*
X271631890Y-120544553D03*
%TD*%
D34*
%TO.C,D57*%
X294434673Y-154394277D03*
D35*
X296539310Y-153908381D03*
X299754732Y-153166045D03*
D12*
X301859369Y-152680149D03*
%TD*%
D20*
%TO.C,D13*%
X79258424Y-106223345D03*
D21*
X81391836Y-106561240D03*
X84651196Y-107077478D03*
D12*
X86784608Y-107415373D03*
%TD*%
D32*
%TO.C,D44*%
X351697775Y-109517111D03*
D33*
X353841668Y-109253868D03*
X357117088Y-108851702D03*
D12*
X359260981Y-108588459D03*
%TD*%
D42*
%TO.C,D25*%
X132874787Y-70833088D03*
D43*
X134979422Y-71318980D03*
X138194860Y-72061328D03*
D12*
X140299495Y-72547220D03*
%TD*%
D13*
%TO.C,S70*%
X250904225Y-223236297D03*
D14*
X253598303Y-222338266D03*
D15*
X254496322Y-226828396D03*
D14*
X259884487Y-225032340D03*
D13*
X258088419Y-230420495D03*
%TD*%
%TO.C,S26*%
X133921017Y-154023286D03*
D14*
X135805140Y-151898527D03*
D15*
X138827918Y-155338086D03*
D14*
X142596173Y-151088582D03*
D13*
X143734819Y-156652886D03*
%TD*%
%TO.C,S64*%
X261750742Y-118015861D03*
D14*
X262320074Y-115233718D03*
D15*
X266657652Y-116701063D03*
D14*
X267796302Y-111136754D03*
D13*
X271564562Y-115386265D03*
%TD*%
D36*
%TO.C,_5*%
X268110280Y-81446376D03*
X268843625Y-82474487D03*
X268318712Y-80200842D03*
X269346823Y-79467497D03*
D37*
X269717991Y-81075208D03*
D36*
X270089159Y-82682919D03*
X271117270Y-81949574D03*
X270592357Y-79675929D03*
X271325702Y-80704040D03*
%TD*%
D10*
%TO.C,D35*%
X175972037Y-219269402D03*
D11*
X177499384Y-217742048D03*
X179832836Y-215408594D03*
D12*
X181360183Y-213881240D03*
%TD*%
D18*
%TO.C,D7*%
X54139941Y-128439395D03*
D19*
X56283839Y-128702629D03*
X59559245Y-129104797D03*
D12*
X61703143Y-129368031D03*
%TD*%
D13*
%TO.C,S4*%
X34542458Y-80695183D03*
D14*
X36112533Y-78328886D03*
D15*
X39584585Y-81314275D03*
D14*
X42724749Y-76581688D03*
D13*
X44626712Y-81933367D03*
%TD*%
%TO.C,S31*%
X150325274Y-209560865D03*
D14*
X149427243Y-206866787D03*
D15*
X153917373Y-205968768D03*
D14*
X152121317Y-200580603D03*
D13*
X157509472Y-202376671D03*
%TD*%
D18*
%TO.C,D9*%
X59014707Y-88737566D03*
D19*
X61158605Y-89000800D03*
X64434011Y-89402968D03*
D12*
X66577909Y-89666202D03*
%TD*%
D36*
%TO.C,_7*%
X322790496Y-179820983D03*
X323042271Y-178583482D03*
X323487515Y-180874060D03*
X324095348Y-177886463D03*
D37*
X324410182Y-179506149D03*
D36*
X324725016Y-181125835D03*
X325332849Y-178138238D03*
X325778093Y-180428816D03*
X326029868Y-179191315D03*
%TD*%
D13*
%TO.C,S8*%
X55926128Y-103470992D03*
D14*
X57496203Y-101104695D03*
D15*
X60968255Y-104090084D03*
D14*
X64108419Y-99357497D03*
D13*
X66010382Y-104709176D03*
%TD*%
D32*
%TO.C,D46*%
X346335480Y-65845098D03*
D33*
X348479373Y-65581855D03*
X351754793Y-65179689D03*
D12*
X353898686Y-64916446D03*
%TD*%
D13*
%TO.C,S60*%
X278575406Y-91345941D03*
D14*
X279241484Y-88585360D03*
D15*
X283525216Y-90203194D03*
D14*
X284857364Y-84682015D03*
D13*
X288475026Y-89060447D03*
%TD*%
D18*
%TO.C,D5*%
X38118460Y-61991564D03*
D19*
X40262358Y-62254798D03*
X43537764Y-62656966D03*
D12*
X45681662Y-62920200D03*
%TD*%
D18*
%TO.C,D6*%
X51702545Y-148290324D03*
D19*
X53846443Y-148553558D03*
X57121849Y-148955726D03*
D12*
X59265747Y-149218960D03*
%TD*%
D13*
%TO.C,S18*%
X101324572Y-101969917D03*
D14*
X103055885Y-99718907D03*
D15*
X106311234Y-102939226D03*
D14*
X109773877Y-98437217D03*
D13*
X111297896Y-103908535D03*
%TD*%
D38*
%TO.C,D47*%
X335311056Y-146922877D03*
D39*
X337444459Y-146584991D03*
X340703833Y-146068759D03*
D12*
X342837236Y-145730873D03*
%TD*%
D13*
%TO.C,S37*%
X378523759Y-141486122D03*
D14*
X379474732Y-138810283D03*
D15*
X383565882Y-140867028D03*
D14*
X385467854Y-135515338D03*
D13*
X388608005Y-140247934D03*
%TD*%
%TO.C,S1*%
X27230314Y-140247954D03*
D14*
X28800389Y-137881657D03*
D15*
X32272441Y-140867046D03*
D14*
X35412605Y-136134459D03*
D13*
X37314568Y-141486138D03*
%TD*%
D18*
%TO.C,D3*%
X32756238Y-105663626D03*
D19*
X34900136Y-105926860D03*
X38175542Y-106329028D03*
D12*
X40319440Y-106592262D03*
%TD*%
D20*
%TO.C,D14*%
X82387141Y-86469571D03*
D21*
X84520553Y-86807466D03*
X87779913Y-87323704D03*
D12*
X89913325Y-87661599D03*
%TD*%
D16*
%TO.C,D70*%
X248266688Y-227669847D03*
D17*
X249794042Y-229197194D03*
X252127496Y-231530646D03*
D12*
X253654850Y-233057993D03*
%TD*%
D42*
%TO.C,D24*%
X127475966Y-94217974D03*
D43*
X129580601Y-94703866D03*
X132796039Y-95446214D03*
D12*
X134900674Y-95932106D03*
%TD*%
D42*
%TO.C,D21*%
X113978861Y-152680159D03*
D43*
X116083496Y-153166051D03*
X119298934Y-153908399D03*
D12*
X121403569Y-154394291D03*
%TD*%
D22*
%TO.C,D20*%
X110012793Y-63928795D03*
D23*
X112133110Y-64340934D03*
X115372476Y-64970614D03*
D12*
X117492793Y-65382753D03*
%TD*%
D13*
%TO.C,S41*%
X368286754Y-58112244D03*
D14*
X369237727Y-55436405D03*
D15*
X373328877Y-57493150D03*
D14*
X375230849Y-52141460D03*
D13*
X378371000Y-56874056D03*
%TD*%
D36*
%TO.C,_10*%
X196769122Y-226828436D03*
X197252404Y-227995160D03*
X197252403Y-225661707D03*
X198419127Y-225178425D03*
D37*
X198419130Y-226828433D03*
D36*
X198419133Y-228478441D03*
X199585857Y-227995159D03*
X199585856Y-225661706D03*
X200069138Y-226828430D03*
%TD*%
D40*
%TO.C,D65*%
X259095138Y-103198289D03*
D41*
X261181539Y-102639236D03*
X264369093Y-101785134D03*
D12*
X266455494Y-101226081D03*
%TD*%
D13*
%TO.C,S21*%
X113866215Y-147522650D03*
D14*
X115675030Y-145333432D03*
D15*
X118816009Y-148665404D03*
D14*
X122433662Y-144286978D03*
D13*
X123765803Y-149808158D03*
%TD*%
%TO.C,S9*%
X58363535Y-83620045D03*
D14*
X59933610Y-81253748D03*
D15*
X63405662Y-84239137D03*
D14*
X66545826Y-79506550D03*
D13*
X68447789Y-84858229D03*
%TD*%
D22*
%TO.C,D19*%
X105433376Y-87487842D03*
D23*
X107553693Y-87899981D03*
X110793059Y-88529661D03*
D12*
X112913376Y-88941800D03*
%TD*%
D13*
%TO.C,S48*%
X330145860Y-122429334D03*
D14*
X331002858Y-119721934D03*
D15*
X335163304Y-121634651D03*
D14*
X336877348Y-116219845D03*
D13*
X340180748Y-120839968D03*
%TD*%
D44*
%TO.C,B1*%
X206069134Y-191688069D03*
X206069146Y-185488066D03*
X209769136Y-191688068D03*
X209769148Y-185488065D03*
%TD*%
M02*
