0
SECTION
2
HEADER
9
$INSUNITS
70
4
0
ENDSEC
0
SECTION
2
TABLES
0
TABLE
2
LTYPE
0
LTYPE
72
65
70
64
2
CONTINUOUS
3
______
73
0
40
0
0
ENDTAB
0
TABLE
2
LAYER
0
ENDTAB
0
ENDSEC
0
SECTION
2
ENTITIES
0
LINE
8
0
10
264.6036519
20
-237.6093358
11
403.9560382
21
-147.1319062
0
LINE
8
0
10
405.7479896
20
-143.2895371
11
393.3399367
21
-42.2340555
0
LINE
8
0
10
389.2078973
20
-38.7248086
11
332.4213321
21
-41.0244872
0
LINE
8
0
10
332.3547221
20
-41.0277411
11
308.4360843
21
-42.3961175
0
LINE
8
0
10
307.4951935
20
-42.5643285
11
284.5440125
21
-49.580348
0
LINE
8
0
10
284.5374294
20
-49.5823542
11
253.3888676
21
-59.0456888
0
LINE
8
0
10
250.6879367
20
-63.9082301
11
262.8310936
21
-109.2271088
0
LINE
8
0
10
258.9673903
20
-114.2623848
11
175.0984073
21
-114.2623848
0
LINE
8
0
10
171.234704
20
-109.2271088
11
183.3778609
21
-63.9082301
0
LINE
8
0
10
180.67693
20
-59.0456888
11
149.5283682
21
-49.5823542
0
LINE
8
0
10
149.5217851
20
-49.580348
11
126.5706041
21
-42.5643285
0
LINE
8
0
10
125.6297133
20
-42.3961175
11
101.7110755
21
-41.0277411
0
LINE
8
0
10
101.6444655
20
-41.0244872
11
44.8579003
21
-38.7248086
0
LINE
8
0
10
40.7258609
20
-42.2340555
11
28.317808
21
-143.2895371
0
LINE
8
0
10
30.1097594
20
-147.1319062
11
169.4621457
21
-237.6093358
0
LINE
8
0
10
171.6403789
20
-238.2544439
11
262.4254187
21
-238.2544439
0
ARC
8
0
10
401.777805
20
-143.7770143
40
4
50
302.9944843
51
6.9999972
0
ARC
8
0
10
389.3697521
20
-42.7215326
40
4
50
6.9999972
51
92.3190324
0
ARC
8
0
10
332.5831869
20
-45.0212112
40
4
50
92.3190324
51
93.2742992
0
ARC
8
0
10
308.6645491
20
-46.3895876
40
4
50
93.2742992
51
106.9980343
0
ARC
8
0
10
283.374657
20
-45.7550889
40
4
50
286.8994562
51
286.9980343
0
ARC
8
0
10
254.55164
20
-62.8729541
40
4
50
106.8994562
51
194.9999979
0
ARC
8
0
10
258.9673903
20
-110.2623848
40
4
50
270
51
14.9999979
0
ARC
8
0
10
175.0984073
20
-110.2623848
40
4
50
165.0000021
51
270
0
ARC
8
0
10
179.5141576
20
-62.8729541
40
4
50
345.0000021
51
73.1005438
0
ARC
8
0
10
150.6911406
20
-45.7550889
40
4
50
253.0019657
51
253.1005438
0
ARC
8
0
10
125.4012485
20
-46.3895876
40
4
50
73.0019657
51
86.7257008
0
ARC
8
0
10
101.4826107
20
-45.0212112
40
4
50
86.7257008
51
87.6809676
0
ARC
8
0
10
44.6960455
20
-42.7215326
40
4
50
87.6809676
51
173.0000028
0
ARC
8
0
10
32.2879926
20
-143.7770143
40
4
50
173.0000028
51
237.0055157
0
ARC
8
0
10
171.6403789
20
-234.2544439
40
4
50
237.0055157
51
270
0
ARC
8
0
10
262.4254187
20
-234.2544439
40
4
50
270
51
302.9944843
0
ENDSEC
0
EOF