0
SECTION
2
HEADER
9
$INSUNITS
70
4
0
ENDSEC
0
SECTION
2
TABLES
0
TABLE
2
LTYPE
0
LTYPE
72
65
70
64
2
CONTINUOUS
3
______
73
0
40
0
0
ENDTAB
0
TABLE
2
LAYER
0
ENDTAB
0
ENDSEC
0
SECTION
2
ENTITIES
0
LINE
8
0
10
28.0131657
20
-145.7706492
11
51.8342733
21
-148.6955134
0
LINE
8
0
10
28.0131657
20
-145.7706492
11
38.2501905
21
-62.3967725
0
LINE
8
0
10
41.1750548
20
-38.5756649
11
88.81727
21
-44.4253933
0
LINE
8
0
10
41.1750548
20
-38.5756649
11
38.2501906
21
-62.3967725
0
LINE
8
0
10
51.8342732
20
-148.6955135
11
75.6553808
21
-151.6203777
0
LINE
8
0
10
75.6553808
20
-151.6203777
11
76.3021381
21
-146.3529627
0
LINE
8
0
10
88.2223311
20
-49.2707819
11
88.81727
21
-44.4253933
0
LINE
8
0
10
76.3021381
20
-146.3529627
11
96.6351216
21
-149.5733909
0
LINE
8
0
10
96.6351216
20
-149.5733909
11
97.0742288
21
-146.800977
0
LINE
8
0
10
112.375279
20
-50.1939479
11
113.5300438
21
-42.9030501
0
LINE
8
0
10
113.5300438
20
-42.9030501
11
89.8255236
21
-39.1486229
0
LINE
8
0
10
89.8255236
20
-39.1486229
11
88.2223311
21
-49.2707819
0
LINE
8
0
10
97.0742288
20
-146.800977
11
114.0047209
21
-150.0919312
0
LINE
8
0
10
135.5272503
20
-56.8676147
11
137.8898061
21
-44.7133184
0
LINE
8
0
10
137.8898061
20
-44.7133184
11
114.3307537
21
-40.1339026
0
LINE
8
0
10
114.3307537
20
-40.1339026
11
112.375279
21
-50.1939479
0
LINE
8
0
10
113.5379114
20
-152.1139052
11
133.6522981
21
-156.7576773
0
LINE
8
0
10
114.0047209
20
-150.0919312
11
113.5379114
21
-152.1139052
0
LINE
8
0
10
158.5446882
20
-63.8580127
11
161.2175068
21
-52.2807637
0
LINE
8
0
10
161.2175068
20
-52.2807637
11
137.8326253
21
-46.8819384
0
LINE
8
0
10
137.8326253
20
-46.8819384
11
135.5272503
21
-56.8676147
0
LINE
8
0
10
133.2446956
20
-158.2788707
11
156.4269155
21
-164.4905278
0
LINE
8
0
10
156.4269155
20
-164.4905278
11
184.3793724
21
-60.1705385
0
LINE
8
0
10
133.6522981
20
-156.7576773
11
133.2446956
21
-158.2788707
0
LINE
8
0
10
184.3793724
20
-60.1705385
11
161.1971525
21
-53.9588814
0
LINE
8
0
10
161.1971525
20
-53.9588814
11
158.5446882
21
-63.8580127
0
LINE
8
0
10
148.8889775
20
-169.3115329
11
177.1732488
21
-197.5958042
0
LINE
8
0
10
131.9184148
20
-186.2820956
11
160.2026861
21
-214.5663669
0
LINE
8
0
10
148.8889775
20
-169.3115329
11
131.9184148
21
-186.2820956
0
LINE
8
0
10
183.8907632
20
-162.5940185
11
215.0034615
21
-193.7067168
0
LINE
8
0
10
183.8907632
20
-162.5940185
11
166.9202005
21
-179.5645812
0
LINE
8
0
10
166.9202005
20
-179.5645812
11
181.0623361
21
-193.7067168
0
LINE
8
0
10
170.4557344
20
-238.2544439
11
215.0034615
21
-193.7067168
0
LINE
8
0
10
160.2026861
20
-214.5663668
11
153.4851717
21
-221.2838812
0
LINE
8
0
10
153.4851717
20
-221.2838812
11
170.4557344
21
-238.2544439
0
LINE
8
0
10
181.0623361
20
-193.7067168
11
177.1732488
21
-197.5958042
0
LINE
8
0
10
382.2315243
20
-148.6955134
11
406.0526319
21
-145.7706492
0
LINE
8
0
10
395.8156071
20
-62.3967725
11
406.0526319
21
-145.7706492
0
LINE
8
0
10
395.815607
20
-62.3967725
11
392.8907428
21
-38.5756649
0
LINE
8
0
10
345.2485276
20
-44.4253933
11
392.8907428
21
-38.5756649
0
LINE
8
0
10
358.4104168
20
-151.6203777
11
382.2315244
21
-148.6955135
0
LINE
8
0
10
357.7636595
20
-146.3529627
11
358.4104168
21
-151.6203777
0
LINE
8
0
10
345.2485276
20
-44.4253933
11
345.8434665
21
-49.2707819
0
LINE
8
0
10
337.430676
20
-149.5733909
11
357.7636595
21
-146.3529627
0
LINE
8
0
10
336.9915688
20
-146.800977
11
337.430676
21
-149.5733909
0
LINE
8
0
10
345.8434665
20
-49.2707819
11
344.240274
21
-39.1486229
0
LINE
8
0
10
344.240274
20
-39.1486229
11
320.5357538
21
-42.9030501
0
LINE
8
0
10
320.5357538
20
-42.9030501
11
321.6905186
21
-50.1939479
0
LINE
8
0
10
320.0610767
20
-150.0919312
11
336.9915688
21
-146.800977
0
LINE
8
0
10
321.6905186
20
-50.1939479
11
319.7350439
21
-40.1339026
0
LINE
8
0
10
319.7350439
20
-40.1339026
11
296.1759915
21
-44.7133184
0
LINE
8
0
10
296.1759915
20
-44.7133184
11
298.5385473
21
-56.8676147
0
LINE
8
0
10
300.4134995
20
-156.7576773
11
320.5278862
21
-152.1139052
0
LINE
8
0
10
320.5278862
20
-152.1139052
11
320.0610767
21
-150.0919312
0
LINE
8
0
10
298.5385473
20
-56.8676147
11
296.2331723
21
-46.8819384
0
LINE
8
0
10
296.2331723
20
-46.8819384
11
272.8482908
21
-52.2807637
0
LINE
8
0
10
272.8482908
20
-52.2807637
11
275.5211094
21
-63.8580127
0
LINE
8
0
10
277.6388821
20
-164.4905278
11
300.821102
21
-158.2788707
0
LINE
8
0
10
300.821102
20
-158.2788707
11
300.4134995
21
-156.7576773
0
LINE
8
0
10
249.6864252
20
-60.1705385
11
277.6388821
21
-164.4905278
0
LINE
8
0
10
275.5211094
20
-63.8580127
11
272.8686451
21
-53.9588814
0
LINE
8
0
10
272.8686451
20
-53.9588814
11
249.6864252
21
-60.1705385
0
LINE
8
0
10
273.8631116
20
-214.5663669
11
302.1473828
21
-186.2820956
0
LINE
8
0
10
256.8925489
20
-197.5958042
11
285.1768201
21
-169.3115329
0
LINE
8
0
10
302.1473828
20
-186.2820956
11
285.1768201
21
-169.3115329
0
LINE
8
0
10
253.0034615
20
-193.7067168
11
267.1455971
21
-179.5645812
0
LINE
8
0
10
267.1455971
20
-179.5645812
11
250.1750344
21
-162.5940185
0
LINE
8
0
10
219.0623361
20
-193.7067168
11
250.1750344
21
-162.5940185
0
LINE
8
0
10
219.0623361
20
-193.7067168
11
263.6100632
21
-238.2544439
0
LINE
8
0
10
263.6100632
20
-238.2544439
11
280.5806259
21
-221.2838812
0
LINE
8
0
10
280.5806259
20
-221.2838812
11
273.8631116
21
-214.5663669
0
LINE
8
0
10
256.8925489
20
-197.5958042
11
253.0034615
21
-193.7067168
0
ENDSEC
0
EOF