0
SECTION
2
HEADER
9
$INSUNITS
70
4
0
ENDSEC
0
SECTION
2
TABLES
0
TABLE
2
LTYPE
0
LTYPE
72
65
70
64
2
CONTINUOUS
3
______
73
0
40
0
0
ENDTAB
0
TABLE
2
LAYER
0
ENDTAB
0
ENDSEC
0
SECTION
2
ENTITIES
0
LINE
8
0
10
264.6036519
20
-237.6093358
11
403.9560382
21
-147.1319062
0
LINE
8
0
10
405.7479896
20
-143.2895371
11
393.3399367
21
-42.2340555
0
LINE
8
0
10
389.2078973
20
-38.7248086
11
332.4213321
21
-41.0244872
0
LINE
8
0
10
332.3547221
20
-41.0277411
11
308.4360843
21
-42.3961175
0
LINE
8
0
10
307.4951935
20
-42.5643285
11
284.5440125
21
-49.580348
0
LINE
8
0
10
284.5374294
20
-49.5823542
11
253.3888676
21
-59.0456888
0
LINE
8
0
10
250.6879367
20
-63.9082301
11
262.8310936
21
-109.2271088
0
LINE
8
0
10
258.9673903
20
-114.2623848
11
175.0984073
21
-114.2623848
0
LINE
8
0
10
171.234704
20
-109.2271088
11
183.3778609
21
-63.9082301
0
LINE
8
0
10
180.67693
20
-59.0456888
11
149.5283682
21
-49.5823542
0
LINE
8
0
10
149.5217851
20
-49.580348
11
126.5706041
21
-42.5643285
0
LINE
8
0
10
125.6297133
20
-42.3961175
11
101.7110755
21
-41.0277411
0
LINE
8
0
10
101.6444655
20
-41.0244872
11
44.8579003
21
-38.7248086
0
LINE
8
0
10
40.7258609
20
-42.2340555
11
28.317808
21
-143.2895371
0
LINE
8
0
10
30.1097594
20
-147.1319062
11
169.4621457
21
-237.6093358
0
LINE
8
0
10
171.6403789
20
-238.2544439
11
262.4254187
21
-238.2544439
0
ARC
8
0
10
401.777805
20
-143.7770143
40
4
50
302.9944843
51
6.9999972
0
ARC
8
0
10
389.3697521
20
-42.7215326
40
4
50
6.9999972
51
92.3190324
0
ARC
8
0
10
332.5831869
20
-45.0212112
40
4
50
92.3190324
51
93.2742992
0
ARC
8
0
10
308.6645491
20
-46.3895876
40
4
50
93.2742992
51
106.9980343
0
ARC
8
0
10
283.374657
20
-45.7550889
40
4
50
286.8994562
51
286.9980343
0
ARC
8
0
10
254.55164
20
-62.8729541
40
4
50
106.8994562
51
194.9999979
0
ARC
8
0
10
258.9673903
20
-110.2623848
40
4
50
270
51
14.9999979
0
ARC
8
0
10
175.0984073
20
-110.2623848
40
4
50
165.0000021
51
270
0
ARC
8
0
10
179.5141576
20
-62.8729541
40
4
50
345.0000021
51
73.1005438
0
ARC
8
0
10
150.6911406
20
-45.7550889
40
4
50
253.0019657
51
253.1005438
0
ARC
8
0
10
125.4012485
20
-46.3895876
40
4
50
73.0019657
51
86.7257008
0
ARC
8
0
10
101.4826107
20
-45.0212112
40
4
50
86.7257008
51
87.6809676
0
ARC
8
0
10
44.6960455
20
-42.7215326
40
4
50
87.6809676
51
173.0000028
0
ARC
8
0
10
32.2879926
20
-143.7770143
40
4
50
173.0000028
51
237.0055157
0
ARC
8
0
10
171.6403789
20
-234.2544439
40
4
50
237.0055157
51
270
0
ARC
8
0
10
262.4254187
20
-234.2544439
40
4
50
270
51
302.9944843
0
LINE
8
0
10
30.7992044
20
-143.5939572
11
49.6575813
21
-145.9094747
0
LINE
8
0
10
49.6575813
20
-145.9094747
11
51.9730988
21
-127.0510978
0
LINE
8
0
10
51.9730988
20
-127.0510978
11
33.1147219
21
-124.7355803
0
LINE
8
0
10
33.1147219
20
-124.7355803
11
30.7992044
21
-143.5939572
0
LINE
8
0
10
33.2365913
20
-123.7430342
11
52.0949682
21
-126.0585517
0
LINE
8
0
10
52.0949682
20
-126.0585517
11
54.4104857
21
-107.2001748
0
LINE
8
0
10
54.4104857
20
-107.2001748
11
35.5521088
21
-104.8846573
0
LINE
8
0
10
35.5521088
20
-104.8846573
11
33.2365913
21
-123.7430342
0
LINE
8
0
10
35.6739781
20
-103.8921111
11
54.532355
21
-106.2076286
0
LINE
8
0
10
54.532355
20
-106.2076286
11
56.8478725
21
-87.3492517
0
LINE
8
0
10
56.8478725
20
-87.3492517
11
37.9894956
21
-85.0337342
0
LINE
8
0
10
37.9894956
20
-85.0337342
11
35.6739781
21
-103.8921111
0
LINE
8
0
10
38.111365
20
-84.0411881
11
56.9697419
21
-86.3567056
0
LINE
8
0
10
56.9697419
20
-86.3567056
11
59.2852594
21
-67.4983287
0
LINE
8
0
10
59.2852594
20
-67.4983287
11
40.4268825
21
-65.1828112
0
LINE
8
0
10
40.4268825
20
-65.1828112
11
38.111365
21
-84.0411881
0
LINE
8
0
10
41.0362293
20
-60.2200805
11
59.8946062
21
-62.535598
0
LINE
8
0
10
59.8946062
20
-62.535598
11
62.2101237
21
-43.6772211
0
LINE
8
0
10
62.2101237
20
-43.6772211
11
43.3517468
21
-41.3617036
0
LINE
8
0
10
43.3517468
20
-41.3617036
11
41.0362293
21
-60.2200805
0
LINE
8
0
10
54.6203119
20
-146.5188215
11
73.4786888
21
-148.834339
0
LINE
8
0
10
73.4786888
20
-148.834339
11
75.7942063
21
-129.9759621
0
LINE
8
0
10
75.7942063
20
-129.9759621
11
56.9358294
21
-127.6604446
0
LINE
8
0
10
56.9358294
20
-127.6604446
11
54.6203119
21
-146.5188215
0
LINE
8
0
10
57.0576988
20
-126.6678984
11
75.9160757
21
-128.9834159
0
LINE
8
0
10
75.9160757
20
-128.9834159
11
78.2315932
21
-110.125039
0
LINE
8
0
10
78.2315932
20
-110.125039
11
59.3732163
21
-107.8095215
0
LINE
8
0
10
59.3732163
20
-107.8095215
11
57.0576988
21
-126.6678984
0
LINE
8
0
10
59.4950857
20
-106.8169754
11
78.3534626
21
-109.1324929
0
LINE
8
0
10
78.3534626
20
-109.1324929
11
80.6689801
21
-90.274116
0
LINE
8
0
10
80.6689801
20
-90.274116
11
61.8106032
21
-87.9585985
0
LINE
8
0
10
61.8106032
20
-87.9585985
11
59.4950857
21
-106.8169754
0
LINE
8
0
10
61.9324726
20
-86.9660523
11
80.7908495
21
-89.2815698
0
LINE
8
0
10
80.7908495
20
-89.2815698
11
83.106367
21
-70.4231929
0
LINE
8
0
10
83.106367
20
-70.4231929
11
64.2479901
21
-68.1076754
0
LINE
8
0
10
64.2479901
20
-68.1076754
11
61.9324726
21
-86.9660523
0
LINE
8
0
10
64.8573369
20
-63.1449447
11
83.7157138
21
-65.4604622
0
LINE
8
0
10
83.7157138
20
-65.4604622
11
86.0312313
21
-46.6020853
0
LINE
8
0
10
86.0312313
20
-46.6020853
11
67.1728544
21
-44.2865678
0
LINE
8
0
10
67.1728544
20
-44.2865678
11
64.8573369
21
-63.1449447
0
LINE
8
0
10
75.7909084
20
-143.740829
11
94.5569869
21
-146.7130839
0
LINE
8
0
10
94.5569869
20
-146.7130839
11
97.5292418
21
-127.9470054
0
LINE
8
0
10
97.5292418
20
-127.9470054
11
78.7631633
21
-124.9747505
0
LINE
8
0
10
78.7631633
20
-124.9747505
11
75.7909084
21
-143.740829
0
LINE
8
0
10
78.9195977
20
-123.9870622
11
97.6856762
21
-126.9593171
0
LINE
8
0
10
97.6856762
20
-126.9593171
11
100.6579311
21
-108.1932386
0
LINE
8
0
10
100.6579311
20
-108.1932386
11
81.8918526
21
-105.2209837
0
LINE
8
0
10
81.8918526
20
-105.2209837
11
78.9195977
21
-123.9870622
0
LINE
8
0
10
82.0482869
20
-104.2332954
11
100.8143654
21
-107.2055503
0
LINE
8
0
10
100.8143654
20
-107.2055503
11
103.7866203
21
-88.4394718
0
LINE
8
0
10
103.7866203
20
-88.4394718
11
85.0205418
21
-85.4672169
0
LINE
8
0
10
85.0205418
20
-85.4672169
11
82.0482869
21
-104.2332954
0
LINE
8
0
10
85.1769762
20
-84.4795286
11
103.9430547
21
-87.4517835
0
LINE
8
0
10
103.9430547
20
-87.4517835
11
106.9153096
21
-68.685705
0
LINE
8
0
10
106.9153096
20
-68.685705
11
88.1492311
21
-65.7134501
0
LINE
8
0
10
88.1492311
20
-65.7134501
11
85.1769762
21
-84.4795286
0
LINE
8
0
10
88.9314034
20
-60.7750084
11
107.6974819
21
-63.7472633
0
LINE
8
0
10
107.6974819
20
-63.7472633
11
110.6697368
21
-44.9811848
0
LINE
8
0
10
110.6697368
20
-44.9811848
11
91.9036583
21
-42.0089299
0
LINE
8
0
10
91.9036583
20
-42.0089299
11
88.9314034
21
-60.7750084
0
LINE
8
0
10
96.6544728
20
-144.1725929
11
115.3053893
21
-147.7979638
0
LINE
8
0
10
115.3053893
20
-147.7979638
11
118.9307602
21
-129.1470473
0
LINE
8
0
10
118.9307602
20
-129.1470473
11
100.2798437
21
-125.5216764
0
LINE
8
0
10
100.2798437
20
-125.5216764
11
96.6544728
21
-144.1725929
0
LINE
8
0
10
100.4706527
20
-124.5400492
11
119.1215692
21
-128.1654201
0
LINE
8
0
10
119.1215692
20
-128.1654201
11
122.7469401
21
-109.5145036
0
LINE
8
0
10
122.7469401
20
-109.5145036
11
104.0960236
21
-105.8891327
0
LINE
8
0
10
104.0960236
20
-105.8891327
11
100.4706527
21
-124.5400492
0
LINE
8
0
10
104.2868326
20
-104.9075056
11
122.9377491
21
-108.5328765
0
LINE
8
0
10
122.9377491
20
-108.5328765
11
126.56312
21
-89.88196
0
LINE
8
0
10
126.56312
20
-89.88196
11
107.9122035
21
-86.2565891
0
LINE
8
0
10
107.9122035
20
-86.2565891
11
104.2868326
21
-104.9075056
0
LINE
8
0
10
108.1030124
20
-85.2749619
11
126.7539289
21
-88.9003328
0
LINE
8
0
10
126.7539289
20
-88.9003328
11
130.3792998
21
-70.2494163
0
LINE
8
0
10
130.3792998
20
-70.2494163
11
111.7283833
21
-66.6240454
0
LINE
8
0
10
111.7283833
20
-66.6240454
11
108.1030124
21
-85.2749619
0
LINE
8
0
10
112.6824283
20
-61.7159095
11
131.3333448
21
-65.3412804
0
LINE
8
0
10
131.3333448
20
-65.3412804
11
134.9587157
21
-46.6903639
0
LINE
8
0
10
134.9587157
20
-46.6903639
11
116.3077992
21
-43.064993
0
LINE
8
0
10
116.3077992
20
-43.064993
11
112.6824283
21
-61.7159095
0
LINE
8
0
10
116.5362142
20
-150.2403577
11
135.0492454
21
-154.5144277
0
LINE
8
0
10
135.0492454
20
-154.5144277
11
139.3233154
21
-136.0013965
0
LINE
8
0
10
139.3233154
20
-136.0013965
11
120.8102842
21
-131.7273265
0
LINE
8
0
10
120.8102842
20
-131.7273265
11
116.5362142
21
-150.2403577
0
LINE
8
0
10
121.0352353
20
-130.7529564
11
139.5482665
21
-135.0270264
0
LINE
8
0
10
139.5482665
20
-135.0270264
11
143.8223365
21
-116.5139952
0
LINE
8
0
10
143.8223365
20
-116.5139952
11
125.3093053
21
-112.2399252
0
LINE
8
0
10
125.3093053
20
-112.2399252
11
121.0352353
21
-130.7529564
0
LINE
8
0
10
125.5342564
20
-111.2655552
11
144.0472876
21
-115.5396252
0
LINE
8
0
10
144.0472876
20
-115.5396252
11
148.3213576
21
-97.026594
0
LINE
8
0
10
148.3213576
20
-97.026594
11
129.8083264
21
-92.752524
0
LINE
8
0
10
129.8083264
20
-92.752524
11
125.5342564
21
-111.2655552
0
LINE
8
0
10
130.0332775
20
-91.7781539
11
148.5463087
21
-96.0522239
0
LINE
8
0
10
148.5463087
20
-96.0522239
11
152.8203787
21
-77.5391927
0
LINE
8
0
10
152.8203787
20
-77.5391927
11
134.3073475
21
-73.2651227
0
LINE
8
0
10
134.3073475
20
-73.2651227
11
130.0332775
21
-91.7781539
0
LINE
8
0
10
135.4321028
20
-68.3932724
11
153.945134
21
-72.6673424
0
LINE
8
0
10
153.945134
20
-72.6673424
11
158.219204
21
-54.1543112
0
LINE
8
0
10
158.219204
20
-54.1543112
11
139.7061728
21
-49.8802412
0
LINE
8
0
10
139.7061728
20
-49.8802412
11
135.4321028
21
-68.3932724
0
LINE
8
0
10
136.3065578
20
-156.5111037
11
154.6591485
21
-161.4286656
0
LINE
8
0
10
154.6591485
20
-161.4286656
11
159.5767104
21
-143.0760749
0
LINE
8
0
10
159.5767104
20
-143.0760749
11
141.2241197
21
-138.158513
0
LINE
8
0
10
141.2241197
20
-138.158513
11
136.3065578
21
-156.5111037
0
LINE
8
0
10
141.4829387
20
-137.1925872
11
159.8355294
21
-142.1101491
0
LINE
8
0
10
159.8355294
20
-142.1101491
11
164.7530913
21
-123.7575584
0
LINE
8
0
10
164.7530913
20
-123.7575584
11
146.4005006
21
-118.8399965
0
LINE
8
0
10
146.4005006
20
-118.8399965
11
141.4829387
21
-137.1925872
0
LINE
8
0
10
146.6593196
20
-117.8740707
11
165.0119103
21
-122.7916326
0
LINE
8
0
10
165.0119103
20
-122.7916326
11
169.9294722
21
-104.4390419
0
LINE
8
0
10
169.9294722
20
-104.4390419
11
151.5768815
21
-99.52148
0
LINE
8
0
10
151.5768815
20
-99.52148
11
146.6593196
21
-117.8740707
0
LINE
8
0
10
151.8357005
20
-98.5555542
11
170.1882912
21
-103.4731161
0
LINE
8
0
10
170.1882912
20
-103.4731161
11
175.1058531
21
-85.1205254
0
LINE
8
0
10
175.1058531
20
-85.1205254
11
156.7532624
21
-80.2029635
0
LINE
8
0
10
156.7532624
20
-80.2029635
11
151.8357005
21
-98.5555542
0
LINE
8
0
10
158.0473576
20
-75.3733343
11
176.3999483
21
-80.2908962
0
LINE
8
0
10
176.3999483
20
-80.2908962
11
181.3175102
21
-61.9383055
0
LINE
8
0
10
181.3175102
20
-61.9383055
11
162.9649195
21
-57.0207436
0
LINE
8
0
10
162.9649195
20
-57.0207436
11
158.0473576
21
-75.3733343
0
LINE
8
0
10
163.0311131
20
-213.85926
11
176.4661419
21
-200.4242312
0
LINE
8
0
10
176.4661419
20
-200.4242312
11
163.0311131
21
-186.9892024
0
LINE
8
0
10
163.0311131
20
-186.9892024
11
149.5960843
21
-200.4242312
0
LINE
8
0
10
149.5960843
20
-200.4242312
11
163.0311131
21
-213.85926
0
LINE
8
0
10
148.8889775
20
-199.7171244
11
162.3240063
21
-186.2820956
0
LINE
8
0
10
162.3240063
20
-186.2820956
11
148.8889775
21
-172.8470668
0
LINE
8
0
10
148.8889775
20
-172.8470668
11
135.4539487
21
-186.2820956
0
LINE
8
0
10
135.4539487
20
-186.2820956
11
148.8889775
21
-199.7171244
0
LINE
8
0
10
183.8907632
20
-192.99961
11
197.325792
21
-179.5645812
0
LINE
8
0
10
197.325792
20
-179.5645812
11
183.8907632
21
-166.1295524
0
LINE
8
0
10
183.8907632
20
-166.1295524
11
170.4557344
21
-179.5645812
0
LINE
8
0
10
170.4557344
20
-179.5645812
11
183.8907632
21
-192.99961
0
LINE
8
0
10
170.4557344
20
-234.71891
11
183.8907632
21
-221.2838812
0
LINE
8
0
10
183.8907632
20
-221.2838812
11
170.4557344
21
-207.8488524
0
LINE
8
0
10
170.4557344
20
-207.8488524
11
157.0207056
21
-221.2838812
0
LINE
8
0
10
157.0207056
20
-221.2838812
11
170.4557344
21
-234.71891
0
LINE
8
0
10
184.2443166
20
-220.9303278
11
197.6793454
21
-207.495299
0
LINE
8
0
10
197.6793454
20
-207.495299
11
184.2443166
21
-194.0602702
0
LINE
8
0
10
184.2443166
20
-194.0602702
11
170.8092878
21
-207.495299
0
LINE
8
0
10
170.8092878
20
-207.495299
11
184.2443166
21
-220.9303278
0
LINE
8
0
10
198.0328988
20
-207.1417456
11
211.4679276
21
-193.7067168
0
LINE
8
0
10
211.4679276
20
-193.7067168
11
198.0328988
21
-180.271688
0
LINE
8
0
10
198.0328988
20
-180.271688
11
184.59787
21
-193.7067168
0
LINE
8
0
10
184.59787
20
-193.7067168
11
198.0328988
21
-207.1417456
0
LINE
8
0
10
384.4082163
20
-145.9094747
11
403.2665932
21
-143.5939572
0
LINE
8
0
10
403.2665932
20
-143.5939572
11
400.9510757
21
-124.7355803
0
LINE
8
0
10
400.9510757
20
-124.7355803
11
382.0926988
21
-127.0510978
0
LINE
8
0
10
382.0926988
20
-127.0510978
11
384.4082163
21
-145.9094747
0
LINE
8
0
10
381.9708294
20
-126.0585517
11
400.8292063
21
-123.7430342
0
LINE
8
0
10
400.8292063
20
-123.7430342
11
398.5136888
21
-104.8846573
0
LINE
8
0
10
398.5136888
20
-104.8846573
11
379.6553119
21
-107.2001748
0
LINE
8
0
10
379.6553119
20
-107.2001748
11
381.9708294
21
-126.0585517
0
LINE
8
0
10
379.5334426
20
-106.2076286
11
398.3918195
21
-103.8921111
0
LINE
8
0
10
398.3918195
20
-103.8921111
11
396.076302
21
-85.0337342
0
LINE
8
0
10
396.076302
20
-85.0337342
11
377.2179251
21
-87.3492517
0
LINE
8
0
10
377.2179251
20
-87.3492517
11
379.5334426
21
-106.2076286
0
LINE
8
0
10
377.0960557
20
-86.3567056
11
395.9544326
21
-84.0411881
0
LINE
8
0
10
395.9544326
20
-84.0411881
11
393.6389151
21
-65.1828112
0
LINE
8
0
10
393.6389151
20
-65.1828112
11
374.7805382
21
-67.4983287
0
LINE
8
0
10
374.7805382
20
-67.4983287
11
377.0960557
21
-86.3567056
0
LINE
8
0
10
374.1711914
20
-62.535598
11
393.0295683
21
-60.2200805
0
LINE
8
0
10
393.0295683
20
-60.2200805
11
390.7140508
21
-41.3617036
0
LINE
8
0
10
390.7140508
20
-41.3617036
11
371.8556739
21
-43.6772211
0
LINE
8
0
10
371.8556739
20
-43.6772211
11
374.1711914
21
-62.535598
0
LINE
8
0
10
360.5871088
20
-148.834339
11
379.4454857
21
-146.5188215
0
LINE
8
0
10
379.4454857
20
-146.5188215
11
377.1299682
21
-127.6604446
0
LINE
8
0
10
377.1299682
20
-127.6604446
11
358.2715913
21
-129.9759621
0
LINE
8
0
10
358.2715913
20
-129.9759621
11
360.5871088
21
-148.834339
0
LINE
8
0
10
358.1497219
20
-128.9834159
11
377.0080988
21
-126.6678984
0
LINE
8
0
10
377.0080988
20
-126.6678984
11
374.6925813
21
-107.8095215
0
LINE
8
0
10
374.6925813
20
-107.8095215
11
355.8342044
21
-110.125039
0
LINE
8
0
10
355.8342044
20
-110.125039
11
358.1497219
21
-128.9834159
0
LINE
8
0
10
355.712335
20
-109.1324929
11
374.5707119
21
-106.8169754
0
LINE
8
0
10
374.5707119
20
-106.8169754
11
372.2551944
21
-87.9585985
0
LINE
8
0
10
372.2551944
20
-87.9585985
11
353.3968175
21
-90.274116
0
LINE
8
0
10
353.3968175
20
-90.274116
11
355.712335
21
-109.1324929
0
LINE
8
0
10
353.2749481
20
-89.2815698
11
372.133325
21
-86.9660523
0
LINE
8
0
10
372.133325
20
-86.9660523
11
369.8178075
21
-68.1076754
0
LINE
8
0
10
369.8178075
20
-68.1076754
11
350.9594306
21
-70.4231929
0
LINE
8
0
10
350.9594306
20
-70.4231929
11
353.2749481
21
-89.2815698
0
LINE
8
0
10
350.3500838
20
-65.4604622
11
369.2084607
21
-63.1449447
0
LINE
8
0
10
369.2084607
20
-63.1449447
11
366.8929432
21
-44.2865678
0
LINE
8
0
10
366.8929432
20
-44.2865678
11
348.0345663
21
-46.6020853
0
LINE
8
0
10
348.0345663
20
-46.6020853
11
350.3500838
21
-65.4604622
0
LINE
8
0
10
339.5088107
20
-146.7130839
11
358.2748892
21
-143.740829
0
LINE
8
0
10
358.2748892
20
-143.740829
11
355.3026343
21
-124.9747505
0
LINE
8
0
10
355.3026343
20
-124.9747505
11
336.5365558
21
-127.9470054
0
LINE
8
0
10
336.5365558
20
-127.9470054
11
339.5088107
21
-146.7130839
0
LINE
8
0
10
336.3801214
20
-126.9593171
11
355.1461999
21
-123.9870622
0
LINE
8
0
10
355.1461999
20
-123.9870622
11
352.173945
21
-105.2209837
0
LINE
8
0
10
352.173945
20
-105.2209837
11
333.4078665
21
-108.1932386
0
LINE
8
0
10
333.4078665
20
-108.1932386
11
336.3801214
21
-126.9593171
0
LINE
8
0
10
333.2514322
20
-107.2055503
11
352.0175107
21
-104.2332954
0
LINE
8
0
10
352.0175107
20
-104.2332954
11
349.0452558
21
-85.4672169
0
LINE
8
0
10
349.0452558
20
-85.4672169
11
330.2791773
21
-88.4394718
0
LINE
8
0
10
330.2791773
20
-88.4394718
11
333.2514322
21
-107.2055503
0
LINE
8
0
10
330.1227429
20
-87.4517835
11
348.8888214
21
-84.4795286
0
LINE
8
0
10
348.8888214
20
-84.4795286
11
345.9165665
21
-65.7134501
0
LINE
8
0
10
345.9165665
20
-65.7134501
11
327.150488
21
-68.685705
0
LINE
8
0
10
327.150488
20
-68.685705
11
330.1227429
21
-87.4517835
0
LINE
8
0
10
326.3683157
20
-63.7472633
11
345.1343942
21
-60.7750084
0
LINE
8
0
10
345.1343942
20
-60.7750084
11
342.1621393
21
-42.0089299
0
LINE
8
0
10
342.1621393
20
-42.0089299
11
323.3960608
21
-44.9811848
0
LINE
8
0
10
323.3960608
20
-44.9811848
11
326.3683157
21
-63.7472633
0
LINE
8
0
10
318.7604083
20
-147.7979638
11
337.4113248
21
-144.1725929
0
LINE
8
0
10
337.4113248
20
-144.1725929
11
333.7859539
21
-125.5216764
0
LINE
8
0
10
333.7859539
20
-125.5216764
11
315.1350374
21
-129.1470473
0
LINE
8
0
10
315.1350374
20
-129.1470473
11
318.7604083
21
-147.7979638
0
LINE
8
0
10
314.9442284
20
-128.1654201
11
333.5951449
21
-124.5400492
0
LINE
8
0
10
333.5951449
20
-124.5400492
11
329.969774
21
-105.8891327
0
LINE
8
0
10
329.969774
20
-105.8891327
11
311.3188575
21
-109.5145036
0
LINE
8
0
10
311.3188575
20
-109.5145036
11
314.9442284
21
-128.1654201
0
LINE
8
0
10
311.1280485
20
-108.5328765
11
329.778965
21
-104.9075056
0
LINE
8
0
10
329.778965
20
-104.9075056
11
326.1535941
21
-86.2565891
0
LINE
8
0
10
326.1535941
20
-86.2565891
11
307.5026776
21
-89.88196
0
LINE
8
0
10
307.5026776
20
-89.88196
11
311.1280485
21
-108.5328765
0
LINE
8
0
10
307.3118687
20
-88.9003328
11
325.9627852
21
-85.2749619
0
LINE
8
0
10
325.9627852
20
-85.2749619
11
322.3374143
21
-66.6240454
0
LINE
8
0
10
322.3374143
20
-66.6240454
11
303.6864978
21
-70.2494163
0
LINE
8
0
10
303.6864978
20
-70.2494163
11
307.3118687
21
-88.9003328
0
LINE
8
0
10
302.7324528
20
-65.3412804
11
321.3833693
21
-61.7159095
0
LINE
8
0
10
321.3833693
20
-61.7159095
11
317.7579984
21
-43.064993
0
LINE
8
0
10
317.7579984
20
-43.064993
11
299.1070819
21
-46.6903639
0
LINE
8
0
10
299.1070819
20
-46.6903639
11
302.7324528
21
-65.3412804
0
LINE
8
0
10
299.0165522
20
-154.5144277
11
317.5295834
21
-150.2403577
0
LINE
8
0
10
317.5295834
20
-150.2403577
11
313.2555134
21
-131.7273265
0
LINE
8
0
10
313.2555134
20
-131.7273265
11
294.7424822
21
-136.0013965
0
LINE
8
0
10
294.7424822
20
-136.0013965
11
299.0165522
21
-154.5144277
0
LINE
8
0
10
294.5175311
20
-135.0270264
11
313.0305623
21
-130.7529564
0
LINE
8
0
10
313.0305623
20
-130.7529564
11
308.7564923
21
-112.2399252
0
LINE
8
0
10
308.7564923
20
-112.2399252
11
290.2434611
21
-116.5139952
0
LINE
8
0
10
290.2434611
20
-116.5139952
11
294.5175311
21
-135.0270264
0
LINE
8
0
10
290.01851
20
-115.5396252
11
308.5315412
21
-111.2655552
0
LINE
8
0
10
308.5315412
20
-111.2655552
11
304.2574712
21
-92.752524
0
LINE
8
0
10
304.2574712
20
-92.752524
11
285.74444
21
-97.026594
0
LINE
8
0
10
285.74444
20
-97.026594
11
290.01851
21
-115.5396252
0
LINE
8
0
10
285.5194889
20
-96.0522239
11
304.0325201
21
-91.7781539
0
LINE
8
0
10
304.0325201
20
-91.7781539
11
299.7584501
21
-73.2651227
0
LINE
8
0
10
299.7584501
20
-73.2651227
11
281.2454189
21
-77.5391927
0
LINE
8
0
10
281.2454189
20
-77.5391927
11
285.5194889
21
-96.0522239
0
LINE
8
0
10
280.1206636
20
-72.6673424
11
298.6336948
21
-68.3932724
0
LINE
8
0
10
298.6336948
20
-68.3932724
11
294.3596248
21
-49.8802412
0
LINE
8
0
10
294.3596248
20
-49.8802412
11
275.8465936
21
-54.1543112
0
LINE
8
0
10
275.8465936
20
-54.1543112
11
280.1206636
21
-72.6673424
0
LINE
8
0
10
279.4066491
20
-161.4286656
11
297.7592398
21
-156.5111037
0
LINE
8
0
10
297.7592398
20
-156.5111037
11
292.8416779
21
-138.158513
0
LINE
8
0
10
292.8416779
20
-138.158513
11
274.4890872
21
-143.0760749
0
LINE
8
0
10
274.4890872
20
-143.0760749
11
279.4066491
21
-161.4286656
0
LINE
8
0
10
274.2302682
20
-142.1101491
11
292.5828589
21
-137.1925872
0
LINE
8
0
10
292.5828589
20
-137.1925872
11
287.665297
21
-118.8399965
0
LINE
8
0
10
287.665297
20
-118.8399965
11
269.3127063
21
-123.7575584
0
LINE
8
0
10
269.3127063
20
-123.7575584
11
274.2302682
21
-142.1101491
0
LINE
8
0
10
269.0538873
20
-122.7916326
11
287.406478
21
-117.8740707
0
LINE
8
0
10
287.406478
20
-117.8740707
11
282.4889161
21
-99.52148
0
LINE
8
0
10
282.4889161
20
-99.52148
11
264.1363254
21
-104.4390419
0
LINE
8
0
10
264.1363254
20
-104.4390419
11
269.0538873
21
-122.7916326
0
LINE
8
0
10
263.8775064
20
-103.4731161
11
282.2300971
21
-98.5555542
0
LINE
8
0
10
282.2300971
20
-98.5555542
11
277.3125352
21
-80.2029635
0
LINE
8
0
10
277.3125352
20
-80.2029635
11
258.9599445
21
-85.1205254
0
LINE
8
0
10
258.9599445
20
-85.1205254
11
263.8775064
21
-103.4731161
0
LINE
8
0
10
257.6658493
20
-80.2908962
11
276.01844
21
-75.3733343
0
LINE
8
0
10
276.01844
20
-75.3733343
11
271.1008781
21
-57.0207436
0
LINE
8
0
10
271.1008781
20
-57.0207436
11
252.7482874
21
-61.9383055
0
LINE
8
0
10
252.7482874
20
-61.9383055
11
257.6658493
21
-80.2908962
0
LINE
8
0
10
257.5996557
20
-200.4242312
11
271.0346845
21
-213.85926
0
LINE
8
0
10
271.0346845
20
-213.85926
11
284.4697133
21
-200.4242312
0
LINE
8
0
10
284.4697133
20
-200.4242312
11
271.0346845
21
-186.9892024
0
LINE
8
0
10
271.0346845
20
-186.9892024
11
257.5996557
21
-200.4242312
0
LINE
8
0
10
271.7417913
20
-186.2820956
11
285.1768201
21
-199.7171244
0
LINE
8
0
10
285.1768201
20
-199.7171244
11
298.6118489
21
-186.2820956
0
LINE
8
0
10
298.6118489
20
-186.2820956
11
285.1768201
21
-172.8470668
0
LINE
8
0
10
285.1768201
20
-172.8470668
11
271.7417913
21
-186.2820956
0
LINE
8
0
10
236.7400056
20
-179.5645812
11
250.1750344
21
-192.99961
0
LINE
8
0
10
250.1750344
20
-192.99961
11
263.6100632
21
-179.5645812
0
LINE
8
0
10
263.6100632
20
-179.5645812
11
250.1750344
21
-166.1295524
0
LINE
8
0
10
250.1750344
20
-166.1295524
11
236.7400056
21
-179.5645812
0
LINE
8
0
10
250.1750344
20
-221.2838812
11
263.6100632
21
-234.71891
0
LINE
8
0
10
263.6100632
20
-234.71891
11
277.045092
21
-221.2838812
0
LINE
8
0
10
277.045092
20
-221.2838812
11
263.6100632
21
-207.8488524
0
LINE
8
0
10
263.6100632
20
-207.8488524
11
250.1750344
21
-221.2838812
0
LINE
8
0
10
236.3864522
20
-207.495299
11
249.821481
21
-220.9303278
0
LINE
8
0
10
249.821481
20
-220.9303278
11
263.2565098
21
-207.495299
0
LINE
8
0
10
263.2565098
20
-207.495299
11
249.821481
21
-194.0602702
0
LINE
8
0
10
249.821481
20
-194.0602702
11
236.3864522
21
-207.495299
0
LINE
8
0
10
222.59787
20
-193.7067168
11
236.0328988
21
-207.1417456
0
LINE
8
0
10
236.0328988
20
-207.1417456
11
249.4679276
21
-193.7067168
0
LINE
8
0
10
249.4679276
20
-193.7067168
11
236.0328988
21
-180.271688
0
LINE
8
0
10
236.0328988
20
-180.271688
11
222.59787
21
-193.7067168
0
ENDSEC
0
EOF