0
SECTION
2
HEADER
9
$INSUNITS
70
4
0
ENDSEC
0
SECTION
2
TABLES
0
TABLE
2
LTYPE
0
LTYPE
72
65
70
64
2
CONTINUOUS
3
______
73
0
40
0
0
ENDTAB
0
TABLE
2
LAYER
0
ENDTAB
0
ENDSEC
0
SECTION
2
ENTITIES
0
LINE
8
0
10
264.6010701
20
-241.1496171
11
406.7340074
21
-149.3073153
0
LINE
8
0
10
408.533288
20
-145.460199
11
395.5181492
21
-39.4604005
0
LINE
8
0
10
391.3726478
20
-35.9517215
11
332.0243372
21
-38.5554132
0
LINE
8
0
10
331.9695272
20
-38.5581947
11
307.9575805
21
-39.9419342
0
LINE
8
0
10
307.0195353
20
-40.1096881
11
283.9853507
21
-47.1432894
0
LINE
8
0
10
283.9713863
20
-47.1475257
11
250.3378146
21
-57.2837057
0
LINE
8
0
10
247.6283188
20
-62.1488388
11
259.7692315
21
-107.4593419
0
LINE
8
0
10
255.9055281
20
-112.4946179
11
178.1602695
21
-112.4946179
0
LINE
8
0
10
174.2965661
20
-107.4593419
11
186.4374788
21
-62.1488388
0
LINE
8
0
10
183.727983
20
-57.2837057
11
150.0944113
21
-47.1475257
0
LINE
8
0
10
150.0804469
20
-47.1432894
11
127.0462623
21
-40.1096881
0
LINE
8
0
10
126.1082171
20
-39.9419342
11
102.0962704
21
-38.5581947
0
LINE
8
0
10
102.0414604
20
-38.5554132
11
42.6931498
21
-35.9517215
0
LINE
8
0
10
38.5476484
20
-39.4604005
11
25.5325096
21
-145.460199
0
LINE
8
0
10
27.3317902
20
-149.3073153
11
169.4647275
21
-241.1496171
0
LINE
8
0
10
171.6356315
20
-241.7899779
11
262.4301661
21
-241.7899779
0
ARC
8
0
10
404.5631034
20
-145.9476761
40
4
50
302.8694033
51
6.9999972
0
ARC
8
0
10
391.5479646
20
-39.9478777
40
4
50
6.9999972
51
92.512033
0
ARC
8
0
10
332.199654
20
-42.5515694
40
4
50
92.512033
51
93.2981447
0
ARC
8
0
10
308.1877073
20
-43.9353089
40
4
50
93.2981447
51
106.9803069
0
ARC
8
0
10
282.8171788
20
-43.3176686
40
4
50
286.7712795
51
286.9803069
0
ARC
8
0
10
251.4920221
20
-61.1135627
40
4
50
106.7712795
51
194.9999979
0
ARC
8
0
10
255.9055281
20
-108.4946179
40
4
50
270
51
14.9999979
0
ARC
8
0
10
178.1602695
20
-108.4946179
40
4
50
165.0000021
51
270
0
ARC
8
0
10
182.5737755
20
-61.1135627
40
4
50
345.0000021
51
73.2287205
0
ARC
8
0
10
151.2486188
20
-43.3176686
40
4
50
253.0196931
51
253.2287205
0
ARC
8
0
10
125.8780903
20
-43.9353089
40
4
50
73.0196931
51
86.7018553
0
ARC
8
0
10
101.8661436
20
-42.5515694
40
4
50
86.7018553
51
87.487967
0
ARC
8
0
10
42.517833
20
-39.9478777
40
4
50
87.487967
51
173.0000028
0
ARC
8
0
10
29.5026942
20
-145.9476761
40
4
50
173.0000028
51
237.1305967
0
ARC
8
0
10
171.6356315
20
-237.7899779
40
4
50
237.1305967
51
270
0
ARC
8
0
10
262.4301661
20
-237.7899779
40
4
50
270
51
302.8694033
0
ENDSEC
0
EOF